<?xml version="1.0" encoding="UTF-8"?>

<!DOCTYPE svg PUBLIC '-//W3C//DTD SVG 1.0//EN' 'http://www.w3.org/TR/2001/REC-SVG-20010904/DTD/svg10.dtd'>
<svg style="fill-opacity:1; color-rendering:auto; color-interpolation:auto; text-rendering:auto; stroke:black; stroke-linecap:square; stroke-miterlimit:10; shape-rendering:auto; stroke-opacity:1; fill:black; stroke-dasharray:none; font-weight:normal; stroke-width:1; font-family:&apos;Dialog&apos;; font-style:normal; stroke-linejoin:miter; font-size:12; stroke-dashoffset:0; image-rendering:auto;" xmlns="http://www.w3.org/2000/svg" width="1323" xmlns:xlink="http://www.w3.org/1999/xlink" height="495">
  <!--Generated by Selena using Batik-->
  <defs id="genericDefs" />
  <g>
    <defs id="defs1">
      <clipPath clipPathUnits="userSpaceOnUse" id="clipPath1">
        <path d="M0 0 L12000 0 L12000 12000 L0 12000 L0 0 Z" />
      </clipPath>
      <clipPath clipPathUnits="userSpaceOnUse" id="clipPath2">
        <path d="M166 160 L166 230 L208 230 L208 160 Z" />
      </clipPath>
      <clipPath clipPathUnits="userSpaceOnUse" id="clipPath3">
        <path d="M0 0 L0 15 L45 15 L45 0 Z" />
      </clipPath>
      <clipPath clipPathUnits="userSpaceOnUse" id="clipPath4">
        <path d="M280 20 L280 481 L980 481 L980 20 Z" />
      </clipPath>
      <clipPath clipPathUnits="userSpaceOnUse" id="clipPath5">
        <path d="M254 0 L254 15 L434 15 L434 0 Z" />
      </clipPath>
      <clipPath clipPathUnits="userSpaceOnUse" id="clipPath6">
        <path d="M560 80 L560 106 L735 106 L735 80 Z" />
      </clipPath>
      <clipPath clipPathUnits="userSpaceOnUse" id="clipPath7">
        <path d="M580 140 L580 166 L714 166 L714 140 Z" />
      </clipPath>
      <clipPath clipPathUnits="userSpaceOnUse" id="clipPath8">
        <path d="M530 220 L530 246 L765 246 L765 220 Z" />
      </clipPath>
      <clipPath clipPathUnits="userSpaceOnUse" id="clipPath9">
        <path d="M560 300 L560 326 L735 326 L735 300 Z" />
      </clipPath>
      <clipPath clipPathUnits="userSpaceOnUse" id="clipPath10">
        <path d="M540 360 L540 386 L755 386 L755 360 Z" />
      </clipPath>
      <clipPath clipPathUnits="userSpaceOnUse" id="clipPath11">
        <path d="M560 420 L560 446 L735 446 L735 420 Z" />
      </clipPath>
      <clipPath clipPathUnits="userSpaceOnUse" id="clipPath12">
        <path d="M0 0 L0 15 L111 15 L111 0 Z" />
      </clipPath>
      <clipPath clipPathUnits="userSpaceOnUse" id="clipPath13">
        <path d="M0 0 L0 15 L82 15 L82 0 Z" />
      </clipPath>
      <clipPath clipPathUnits="userSpaceOnUse" id="clipPath14">
        <path d="M1 0 L1 15 L154 15 L154 0 Z" />
      </clipPath>
      <clipPath clipPathUnits="userSpaceOnUse" id="clipPath15">
        <path d="M1 0 L1 15 L140 15 L140 0 Z" />
      </clipPath>
      <clipPath clipPathUnits="userSpaceOnUse" id="clipPath16">
        <path d="M0 0 L0 15 L8 15 L8 0 Z" />
      </clipPath>
    </defs>
    <g style="fill:white; stroke:white;">
      <rect x="0" y="0" width="1323" style="clip-path:url(#clipPath1); stroke:none;" height="495" />
      <rect x="0" y="0" width="1322" style="clip-path:url(#clipPath1); fill:none; stroke:blue;" height="494" />
      <polygon style="clip-path:url(#clipPath2); stroke:none;" points=" 187 182 187 190 206 190 206 192 187 192 187 209 206 228 206 229 204 229 186 211 168 229 166 229 166 228 185 209 185 192 166 192 166 190 185 190 185 182 187 182" />
      <circle style="clip-path:url(#clipPath2); stroke:none;" r="11.5" cx="186.5" cy="171.5" />
      <polygon style="fill:none; clip-path:url(#clipPath2); stroke:black;" points=" 187 182 187 190 206 190 206 192 187 192 187 209 206 228 206 229 204 229 186 211 168 229 166 229 166 228 185 209 185 192 166 192 166 190 185 190 185 182 187 182" />
      <circle style="clip-path:url(#clipPath2); fill:none; stroke:black;" r="11" cx="186" cy="171" />
      <text x="0" y="13" transform="translate(165,236)" style="font-size:13; clip-path:url(#clipPath3); fill:black; stroke:none;" xml:space="preserve">Spieler</text>
      <rect x="280" y="20" width="700" style="clip-path:url(#clipPath4); stroke:none;" height="461" />
      <rect x="280" y="20" width="699" style="clip-path:url(#clipPath4); fill:none; stroke:black;" height="460" />
      <text x="254" y="13" transform="translate(286,21)" style="font-size:13; clip-path:url(#clipPath5); fill:black; stroke:none;" xml:space="preserve">Path of Enlightenment Spiel</text>
      <ellipse transform="translate(3,3)" style="clip-path:url(#clipPath6); fill:rgb(153,153,153); stroke:none;" rx="87" cx="647" ry="12.5" cy="92.5" />
      <ellipse transform="translate(3,3)" style="clip-path:url(#clipPath6); fill:none; stroke:rgb(153,153,153);" rx="87" cx="647" ry="12.5" cy="92.5" />
      <ellipse transform="translate(3,3)" style="clip-path:url(#clipPath7); fill:rgb(153,153,153); stroke:none;" rx="66.5" cx="646.5" ry="12.5" cy="152.5" />
      <ellipse transform="translate(3,3)" style="clip-path:url(#clipPath7); fill:none; stroke:rgb(153,153,153);" rx="66.5" cx="646.5" ry="12.5" cy="152.5" />
      <ellipse transform="translate(3,3)" style="clip-path:url(#clipPath8); fill:rgb(153,153,153); stroke:none;" rx="117" cx="647" ry="12.5" cy="232.5" />
      <ellipse transform="translate(3,3)" style="clip-path:url(#clipPath8); fill:none; stroke:rgb(153,153,153);" rx="117" cx="647" ry="12.5" cy="232.5" />
      <ellipse transform="translate(3,3)" style="clip-path:url(#clipPath9); fill:rgb(153,153,153); stroke:none;" rx="87" cx="647" ry="12.5" cy="312.5" />
      <ellipse transform="translate(3,3)" style="clip-path:url(#clipPath9); fill:none; stroke:rgb(153,153,153);" rx="87" cx="647" ry="12.5" cy="312.5" />
      <ellipse transform="translate(3,3)" style="clip-path:url(#clipPath10); fill:rgb(153,153,153); stroke:none;" rx="107" cx="647" ry="12.5" cy="372.5" />
      <ellipse transform="translate(3,3)" style="clip-path:url(#clipPath10); fill:none; stroke:rgb(153,153,153);" rx="107" cx="647" ry="12.5" cy="372.5" />
      <ellipse transform="translate(3,3)" style="clip-path:url(#clipPath11); fill:rgb(153,153,153); stroke:none;" rx="87" cx="647" ry="12.5" cy="432.5" />
      <ellipse transform="translate(3,3)" style="clip-path:url(#clipPath11); fill:none; stroke:rgb(153,153,153);" rx="87" cx="647" ry="12.5" cy="432.5" />
      <ellipse style="clip-path:url(#clipPath6); stroke:none;" rx="87" cx="647" ry="12.5" cy="92.5" />
      <ellipse style="clip-path:url(#clipPath6); fill:none; stroke:black;" rx="87" cx="647" ry="12.5" cy="92.5" />
      <text x="0" y="13" transform="translate(592,85)" style="font-size:13; clip-path:url(#clipPath12); fill:black; stroke:none;" xml:space="preserve">Spiel vorbereiten</text>
      <ellipse style="clip-path:url(#clipPath7); stroke:none;" rx="66.5" cx="646.5" ry="12.5" cy="152.5" />
      <ellipse style="clip-path:url(#clipPath7); fill:none; stroke:black;" rx="66.5" cx="646.5" ry="12.5" cy="152.5" />
      <text x="0" y="13" transform="translate(606,145)" style="font-size:13; clip-path:url(#clipPath13); fill:black; stroke:none;" xml:space="preserve">Spiel starten</text>
      <ellipse style="clip-path:url(#clipPath8); stroke:none;" rx="117" cx="647" ry="12.5" cy="232.5" />
      <ellipse style="clip-path:url(#clipPath8); fill:none; stroke:black;" rx="117" cx="647" ry="12.5" cy="232.5" />
      <text x="1" y="13" transform="translate(570,225)" style="font-size:13; clip-path:url(#clipPath14); fill:black; stroke:none;" xml:space="preserve">Startspieler bestimmen</text>
      <ellipse style="clip-path:url(#clipPath9); stroke:none;" rx="87" cx="647" ry="12.5" cy="312.5" />
      <ellipse style="clip-path:url(#clipPath9); fill:none; stroke:black;" rx="87" cx="647" ry="12.5" cy="312.5" />
      <text x="0" y="13" transform="translate(592,305)" style="font-size:13; clip-path:url(#clipPath12); fill:black; stroke:none;" xml:space="preserve">Spielzug machen</text>
      <ellipse style="clip-path:url(#clipPath10); stroke:none;" rx="107" cx="647" ry="12.5" cy="372.5" />
      <ellipse style="clip-path:url(#clipPath10); fill:none; stroke:black;" rx="107" cx="647" ry="12.5" cy="372.5" />
      <text x="1" y="13" transform="translate(577,365)" style="font-size:13; clip-path:url(#clipPath15); fill:black; stroke:none;" xml:space="preserve">Kategorie hinzufügen</text>
      <ellipse style="clip-path:url(#clipPath11); stroke:none;" rx="87" cx="647" ry="12.5" cy="432.5" />
      <ellipse style="clip-path:url(#clipPath11); fill:none; stroke:black;" rx="87" cx="647" ry="12.5" cy="432.5" />
      <text x="0" y="13" transform="translate(592,425)" style="font-size:13; clip-path:url(#clipPath12); fill:black; stroke:none;" xml:space="preserve">Frage hinzufügen</text>
      <path d="M215 197 L601 104" style="fill:none; clip-path:url(#clipPath1); stroke:blue;" />
      <text x="0" y="13" transform="translate(227,171)" style="font-size:13; clip-path:url(#clipPath16); fill:black; stroke:none;" xml:space="preserve">1</text>
      <text x="0" y="13" transform="translate(542,96)" style="font-size:13; clip-path:url(#clipPath16); fill:black; stroke:none;" xml:space="preserve">1</text>
      <path d="M215 197 L601 104" style="fill:none; clip-path:url(#clipPath1); stroke:blue;" />
      <text x="0" y="13" transform="translate(227,171)" style="font-size:13; clip-path:url(#clipPath16); fill:black; stroke:none;" xml:space="preserve">1</text>
      <text x="0" y="13" transform="translate(542,96)" style="font-size:13; clip-path:url(#clipPath16); fill:black; stroke:none;" xml:space="preserve">1</text>
      <path d="M215 197 L600 162" style="fill:none; clip-path:url(#clipPath1); stroke:blue;" />
      <text x="0" y="13" transform="translate(247,173)" style="font-size:13; clip-path:url(#clipPath16); fill:black; stroke:none;" xml:space="preserve">1</text>
      <text x="0" y="13" transform="translate(560,145)" style="font-size:13; clip-path:url(#clipPath16); fill:black; stroke:none;" xml:space="preserve">1</text>
      <path d="M215 197 L600 162" style="fill:none; clip-path:url(#clipPath1); stroke:blue;" />
      <text x="0" y="13" transform="translate(247,173)" style="font-size:13; clip-path:url(#clipPath16); fill:black; stroke:none;" xml:space="preserve">1</text>
      <text x="0" y="13" transform="translate(560,145)" style="font-size:13; clip-path:url(#clipPath16); fill:black; stroke:none;" xml:space="preserve">1</text>
      <path d="M215 233 L530 233" style="fill:none; clip-path:url(#clipPath1); stroke:blue;" />
      <text x="0" y="13" transform="translate(227,213)" style="font-size:13; clip-path:url(#clipPath16); fill:black; stroke:none;" xml:space="preserve">1</text>
      <text x="0" y="13" transform="translate(510,213)" style="font-size:13; clip-path:url(#clipPath16); fill:black; stroke:none;" xml:space="preserve">1</text>
      <path d="M215 233 L530 233" style="fill:none; clip-path:url(#clipPath1); stroke:blue;" />
      <text x="0" y="13" transform="translate(227,213)" style="font-size:13; clip-path:url(#clipPath16); fill:black; stroke:none;" xml:space="preserve">1</text>
      <text x="0" y="13" transform="translate(510,213)" style="font-size:13; clip-path:url(#clipPath16); fill:black; stroke:none;" xml:space="preserve">1</text>
      <path d="M215 233 L600 302" style="fill:none; clip-path:url(#clipPath1); stroke:blue;" />
      <text x="0" y="13" transform="translate(247,218)" style="font-size:13; clip-path:url(#clipPath16); fill:black; stroke:none;" xml:space="preserve">1</text>
      <text x="0" y="13" transform="translate(590,280)" style="font-size:13; clip-path:url(#clipPath16); fill:black; stroke:none;" xml:space="preserve">1</text>
      <path d="M215 233 L600 302" style="fill:none; clip-path:url(#clipPath1); stroke:blue;" />
      <text x="0" y="13" transform="translate(247,218)" style="font-size:13; clip-path:url(#clipPath16); fill:black; stroke:none;" xml:space="preserve">1</text>
      <text x="0" y="13" transform="translate(590,280)" style="font-size:13; clip-path:url(#clipPath16); fill:black; stroke:none;" xml:space="preserve">1</text>
      <path d="M215 233 L611 360" style="fill:none; clip-path:url(#clipPath1); stroke:blue;" />
      <text x="0" y="13" transform="translate(265,228)" style="font-size:13; clip-path:url(#clipPath16); fill:black; stroke:none;" xml:space="preserve">1</text>
      <text x="0" y="13" transform="translate(601,337)" style="font-size:13; clip-path:url(#clipPath16); fill:black; stroke:none;" xml:space="preserve">1</text>
      <path d="M215 233 L611 360" style="fill:none; clip-path:url(#clipPath1); stroke:blue;" />
      <text x="0" y="13" transform="translate(265,228)" style="font-size:13; clip-path:url(#clipPath16); fill:black; stroke:none;" xml:space="preserve">1</text>
      <text x="0" y="13" transform="translate(601,337)" style="font-size:13; clip-path:url(#clipPath16); fill:black; stroke:none;" xml:space="preserve">1</text>
      <path d="M215 233 L591 421" style="fill:none; clip-path:url(#clipPath1); stroke:blue;" />
      <text x="0" y="13" transform="translate(280,244)" style="font-size:13; clip-path:url(#clipPath16); fill:black; stroke:none;" xml:space="preserve">1</text>
      <text x="0" y="13" transform="translate(581,396)" style="font-size:13; clip-path:url(#clipPath16); fill:black; stroke:none;" xml:space="preserve">1</text>
      <path d="M215 233 L591 421" style="fill:none; clip-path:url(#clipPath1); stroke:blue;" />
      <text x="0" y="13" transform="translate(280,244)" style="font-size:13; clip-path:url(#clipPath16); fill:black; stroke:none;" xml:space="preserve">1</text>
      <text x="0" y="13" transform="translate(581,396)" style="font-size:13; clip-path:url(#clipPath16); fill:black; stroke:none;" xml:space="preserve">1</text>
    </g>
  </g>
</svg>
