<?xml version="1.0" encoding="UTF-8"?>

<!DOCTYPE svg PUBLIC '-//W3C//DTD SVG 1.0//EN' 'http://www.w3.org/TR/2001/REC-SVG-20010904/DTD/svg10.dtd'>
<svg style="fill-opacity:1; color-rendering:auto; color-interpolation:auto; text-rendering:auto; stroke:black; stroke-linecap:square; stroke-miterlimit:10; shape-rendering:auto; stroke-opacity:1; fill:black; stroke-dasharray:none; font-weight:normal; stroke-width:1; font-family:&apos;Dialog&apos;; font-style:normal; stroke-linejoin:miter; font-size:12; stroke-dashoffset:0; image-rendering:auto;" xmlns="http://www.w3.org/2000/svg" width="1764" xmlns:xlink="http://www.w3.org/1999/xlink" height="675">
  <!--Generated by Selena using Batik-->
  <defs id="genericDefs" />
  <g>
    <defs id="defs1">
      <clipPath clipPathUnits="userSpaceOnUse" id="clipPath1">
        <path d="M0 0 L12000 0 L12000 12000 L0 12000 L0 0 Z" />
      </clipPath>
      <clipPath clipPathUnits="userSpaceOnUse" id="clipPath2">
        <path d="M959 320 L959 390 L1001 390 L1001 320 Z" />
      </clipPath>
      <clipPath clipPathUnits="userSpaceOnUse" id="clipPath3">
        <path d="M12 0 L12 15 L98 15 L98 0 Z" />
      </clipPath>
      <clipPath clipPathUnits="userSpaceOnUse" id="clipPath4">
        <path d="M93 200 L93 379 L202 379 L202 200 Z" />
      </clipPath>
      <clipPath clipPathUnits="userSpaceOnUse" id="clipPath5">
        <path d="M40 0 L40 15 L85 15 L85 0 Z" />
      </clipPath>
      <clipPath clipPathUnits="userSpaceOnUse" id="clipPath6">
        <path d="M280 20 L280 661 L801 661 L801 20 Z" />
      </clipPath>
      <clipPath clipPathUnits="userSpaceOnUse" id="clipPath7">
        <path d="M164 0 L164 15 L344 15 L344 0 Z" />
      </clipPath>
      <clipPath clipPathUnits="userSpaceOnUse" id="clipPath8">
        <path d="M320 80 L320 106 L495 106 L495 80 Z" />
      </clipPath>
      <clipPath clipPathUnits="userSpaceOnUse" id="clipPath9">
        <path d="M440 220 L440 246 L675 246 L675 220 Z" />
      </clipPath>
      <clipPath clipPathUnits="userSpaceOnUse" id="clipPath10">
        <path d="M491 140 L491 166 L625 166 L625 140 Z" />
      </clipPath>
      <clipPath clipPathUnits="userSpaceOnUse" id="clipPath11">
        <path d="M300 620 L300 646 L475 646 L475 620 Z" />
      </clipPath>
      <clipPath clipPathUnits="userSpaceOnUse" id="clipPath12">
        <path d="M380 540 L380 566 L595 566 L595 540 Z" />
      </clipPath>
      <clipPath clipPathUnits="userSpaceOnUse" id="clipPath13">
        <path d="M560 480 L560 506 L680 506 L680 480 Z" />
      </clipPath>
      <clipPath clipPathUnits="userSpaceOnUse" id="clipPath14">
        <path d="M532 300 L532 326 L707 326 L707 300 Z" />
      </clipPath>
      <clipPath clipPathUnits="userSpaceOnUse" id="clipPath15">
        <path d="M0 0 L0 15 L111 15 L111 0 Z" />
      </clipPath>
      <clipPath clipPathUnits="userSpaceOnUse" id="clipPath16">
        <path d="M1 0 L1 15 L154 15 L154 0 Z" />
      </clipPath>
      <clipPath clipPathUnits="userSpaceOnUse" id="clipPath17">
        <path d="M0 0 L0 15 L82 15 L82 0 Z" />
      </clipPath>
      <clipPath clipPathUnits="userSpaceOnUse" id="clipPath18">
        <path d="M1 0 L1 15 L140 15 L140 0 Z" />
      </clipPath>
      <clipPath clipPathUnits="userSpaceOnUse" id="clipPath19">
        <path d="M0 0 L0 15 L72 15 L72 0 Z" />
      </clipPath>
      <clipPath clipPathUnits="userSpaceOnUse" id="clipPath20">
        <path d="M0 0 L0 15 L24 15 L24 0 Z" />
      </clipPath>
      <clipPath clipPathUnits="userSpaceOnUse" id="clipPath21">
        <path d="M0 0 L0 15 L8 15 L8 0 Z" />
      </clipPath>
      <clipPath clipPathUnits="userSpaceOnUse" id="clipPath22">
        <path d="M0 0 L0 15 L7 15 L7 0 Z" />
      </clipPath>
      <clipPath clipPathUnits="userSpaceOnUse" id="clipPath23">
        <path d="M614 326 L614 337 L625 337 L625 326 Z" />
      </clipPath>
      <clipPath clipPathUnits="userSpaceOnUse" id="clipPath24">
        <path d="M0 0 L0 15 L61 15 L61 0 Z" />
      </clipPath>
    </defs>
    <g style="fill:white; stroke:white;">
      <rect x="0" y="0" width="1764" style="clip-path:url(#clipPath1); stroke:none;" height="675" />
      <rect x="0" y="0" width="1763" style="clip-path:url(#clipPath1); fill:none; stroke:blue;" height="674" />
      <polygon style="clip-path:url(#clipPath2); stroke:none;" points=" 980 342 980 350 999 350 999 352 980 352 980 369 999 388 999 389 997 389 979 371 961 389 959 389 959 388 978 369 978 352 959 352 959 350 978 350 978 342 980 342" />
      <circle style="clip-path:url(#clipPath2); stroke:none;" r="11.5" cx="979.5" cy="331.5" />
      <polygon style="fill:none; clip-path:url(#clipPath2); stroke:black;" points=" 980 342 980 350 999 350 999 352 980 352 980 369 999 388 999 389 997 389 979 371 961 389 959 389 959 388 978 369 978 352 959 352 959 350 978 350 978 342 980 342" />
      <circle style="clip-path:url(#clipPath2); fill:none; stroke:black;" r="11" cx="979" cy="331" />
      <text x="12" y="13" transform="translate(925,396)" style="font-size:13; clip-path:url(#clipPath3); fill:black; stroke:none;" xml:space="preserve">Gegenspieler</text>
      <polygon style="clip-path:url(#clipPath4); stroke:none;" points=" 151 258 151 276 201 276 201 284 151 284 151 321 201 374 201 378 193 378 147 329 101 378 93 378 93 374 143 321 143 284 93 284 93 276 143 276 143 258 151 258" />
      <circle style="clip-path:url(#clipPath4); stroke:none;" r="29.5" cx="147.5" cy="229.5" />
      <polygon style="fill:none; clip-path:url(#clipPath4); stroke:black;" points=" 151 258 151 276 201 276 201 284 151 284 151 321 201 374 201 378 193 378 147 329 101 378 93 378 93 374 143 321 143 284 93 284 93 276 143 276 143 258 151 258" />
      <circle style="clip-path:url(#clipPath4); fill:none; stroke:black;" r="29" cx="147" cy="229" />
      <text x="40" y="13" transform="translate(85,385)" style="font-size:13; clip-path:url(#clipPath5); fill:black; stroke:none;" xml:space="preserve">Spieler</text>
      <rect x="280" y="20" width="521" style="clip-path:url(#clipPath6); stroke:none;" height="641" />
      <rect x="280" y="20" width="520" style="clip-path:url(#clipPath6); fill:none; stroke:black;" height="640" />
      <text x="164" y="13" transform="translate(286,21)" style="font-size:13; clip-path:url(#clipPath7); fill:black; stroke:none;" xml:space="preserve">Path of Enlightenment Spiel</text>
      <ellipse transform="translate(3,3)" style="clip-path:url(#clipPath8); fill:rgb(153,153,153); stroke:none;" rx="87" cx="407" ry="12.5" cy="92.5" />
      <ellipse transform="translate(3,3)" style="clip-path:url(#clipPath8); fill:none; stroke:rgb(153,153,153);" rx="87" cx="407" ry="12.5" cy="92.5" />
      <ellipse transform="translate(3,3)" style="clip-path:url(#clipPath9); fill:rgb(153,153,153); stroke:none;" rx="117" cx="557" ry="12.5" cy="232.5" />
      <ellipse transform="translate(3,3)" style="clip-path:url(#clipPath9); fill:none; stroke:rgb(153,153,153);" rx="117" cx="557" ry="12.5" cy="232.5" />
      <ellipse transform="translate(3,3)" style="clip-path:url(#clipPath10); fill:rgb(153,153,153); stroke:none;" rx="66.5" cx="557.5" ry="12.5" cy="152.5" />
      <ellipse transform="translate(3,3)" style="clip-path:url(#clipPath10); fill:none; stroke:rgb(153,153,153);" rx="66.5" cx="557.5" ry="12.5" cy="152.5" />
      <ellipse transform="translate(3,3)" style="clip-path:url(#clipPath11); fill:rgb(153,153,153); stroke:none;" rx="87" cx="387" ry="12.5" cy="632.5" />
      <ellipse transform="translate(3,3)" style="clip-path:url(#clipPath11); fill:none; stroke:rgb(153,153,153);" rx="87" cx="387" ry="12.5" cy="632.5" />
      <ellipse transform="translate(3,3)" style="clip-path:url(#clipPath12); fill:rgb(153,153,153); stroke:none;" rx="107" cx="487" ry="12.5" cy="552.5" />
      <ellipse transform="translate(3,3)" style="clip-path:url(#clipPath12); fill:none; stroke:rgb(153,153,153);" rx="107" cx="487" ry="12.5" cy="552.5" />
      <ellipse transform="translate(3,3)" style="clip-path:url(#clipPath13); fill:rgb(153,153,153); stroke:none;" rx="59.5" cx="619.5" ry="12.5" cy="492.5" />
      <ellipse transform="translate(3,3)" style="clip-path:url(#clipPath13); fill:none; stroke:rgb(153,153,153);" rx="59.5" cx="619.5" ry="12.5" cy="492.5" />
      <ellipse transform="translate(3,3)" style="clip-path:url(#clipPath14); fill:rgb(153,153,153); stroke:none;" rx="87" cx="619" ry="12.5" cy="312.5" />
      <ellipse transform="translate(3,3)" style="clip-path:url(#clipPath14); fill:none; stroke:rgb(153,153,153);" rx="87" cx="619" ry="12.5" cy="312.5" />
      <ellipse style="clip-path:url(#clipPath8); stroke:none;" rx="87" cx="407" ry="12.5" cy="92.5" />
      <ellipse style="clip-path:url(#clipPath8); fill:none; stroke:black;" rx="87" cx="407" ry="12.5" cy="92.5" />
      <text x="0" y="13" transform="translate(352,85)" style="font-size:13; clip-path:url(#clipPath15); fill:black; stroke:none;" xml:space="preserve">Spiel vorbereiten</text>
      <ellipse style="clip-path:url(#clipPath9); stroke:none;" rx="117" cx="557" ry="12.5" cy="232.5" />
      <ellipse style="clip-path:url(#clipPath9); fill:none; stroke:black;" rx="117" cx="557" ry="12.5" cy="232.5" />
      <text x="1" y="13" transform="translate(480,225)" style="font-size:13; clip-path:url(#clipPath16); fill:black; stroke:none;" xml:space="preserve">Startspieler bestimmen</text>
      <ellipse style="clip-path:url(#clipPath10); stroke:none;" rx="66.5" cx="557.5" ry="12.5" cy="152.5" />
      <ellipse style="clip-path:url(#clipPath10); fill:none; stroke:black;" rx="66.5" cx="557.5" ry="12.5" cy="152.5" />
      <text x="0" y="13" transform="translate(517,145)" style="font-size:13; clip-path:url(#clipPath17); fill:black; stroke:none;" xml:space="preserve">Spiel starten</text>
      <ellipse style="clip-path:url(#clipPath11); stroke:none;" rx="87" cx="387" ry="12.5" cy="632.5" />
      <ellipse style="clip-path:url(#clipPath11); fill:none; stroke:black;" rx="87" cx="387" ry="12.5" cy="632.5" />
      <text x="0" y="13" transform="translate(332,625)" style="font-size:13; clip-path:url(#clipPath15); fill:black; stroke:none;" xml:space="preserve">Frage hinzufügen</text>
      <ellipse style="clip-path:url(#clipPath12); stroke:none;" rx="107" cx="487" ry="12.5" cy="552.5" />
      <ellipse style="clip-path:url(#clipPath12); fill:none; stroke:black;" rx="107" cx="487" ry="12.5" cy="552.5" />
      <text x="1" y="13" transform="translate(417,545)" style="font-size:13; clip-path:url(#clipPath18); fill:black; stroke:none;" xml:space="preserve">Kategorie hinzufügen</text>
      <ellipse style="clip-path:url(#clipPath13); stroke:none;" rx="59.5" cx="619.5" ry="12.5" cy="492.5" />
      <ellipse style="clip-path:url(#clipPath13); fill:none; stroke:black;" rx="59.5" cx="619.5" ry="12.5" cy="492.5" />
      <text x="0" y="13" transform="translate(584,485)" style="font-size:13; clip-path:url(#clipPath19); fill:black; stroke:none;" xml:space="preserve">Fragerunde</text>
      <ellipse style="clip-path:url(#clipPath14); stroke:none;" rx="87" cx="619" ry="12.5" cy="312.5" />
      <ellipse style="clip-path:url(#clipPath14); fill:none; stroke:black;" rx="87" cx="619" ry="12.5" cy="312.5" />
      <text x="0" y="13" transform="translate(564,305)" style="font-size:13; clip-path:url(#clipPath15); fill:black; stroke:none;" xml:space="preserve">Spielzug machen</text>
      <path d="M215 244 L389 104" style="fill:none; clip-path:url(#clipPath1); stroke:blue;" />
      <text x="0" y="13" transform="translate(228,192)" style="font-size:13; clip-path:url(#clipPath20); fill:black; stroke:none;" xml:space="preserve">2..4</text>
      <text x="0" y="13" transform="translate(349,110)" style="font-size:13; clip-path:url(#clipPath21); fill:black; stroke:none;" xml:space="preserve">1</text>
      <path d="M215 244 L389 104" style="fill:none; clip-path:url(#clipPath1); stroke:blue;" />
      <text x="0" y="13" transform="translate(228,192)" style="font-size:13; clip-path:url(#clipPath20); fill:black; stroke:none;" xml:space="preserve">2..4</text>
      <text x="0" y="13" transform="translate(349,110)" style="font-size:13; clip-path:url(#clipPath21); fill:black; stroke:none;" xml:space="preserve">1</text>
      <path d="M215 275 L524 164" style="fill:none; clip-path:url(#clipPath1); stroke:blue;" />
      <text x="0" y="13" transform="translate(252,234)" style="font-size:13; clip-path:url(#clipPath22); fill:black; stroke:none;" xml:space="preserve">1</text>
      <text x="0" y="13" transform="translate(476,157)" style="font-size:13; clip-path:url(#clipPath21); fill:black; stroke:none;" xml:space="preserve">1</text>
      <path d="M215 275 L524 164" style="fill:none; clip-path:url(#clipPath1); stroke:blue;" />
      <text x="0" y="13" transform="translate(252,234)" style="font-size:13; clip-path:url(#clipPath22); fill:black; stroke:none;" xml:space="preserve">1</text>
      <text x="0" y="13" transform="translate(476,157)" style="font-size:13; clip-path:url(#clipPath21); fill:black; stroke:none;" xml:space="preserve">1</text>
      <path d="M215 275 L440 232" style="fill:none; clip-path:url(#clipPath1); stroke:blue;" />
      <text x="0" y="13" transform="translate(247,271)" style="font-size:13; clip-path:url(#clipPath20); fill:black; stroke:none;" xml:space="preserve">2..4</text>
      <text x="0" y="13" transform="translate(420,215)" style="font-size:13; clip-path:url(#clipPath21); fill:black; stroke:none;" xml:space="preserve">1</text>
      <path d="M215 275 L440 232" style="fill:none; clip-path:url(#clipPath1); stroke:blue;" />
      <text x="0" y="13" transform="translate(247,271)" style="font-size:13; clip-path:url(#clipPath20); fill:black; stroke:none;" xml:space="preserve">2..4</text>
      <text x="0" y="13" transform="translate(420,215)" style="font-size:13; clip-path:url(#clipPath21); fill:black; stroke:none;" xml:space="preserve">1</text>
      <path d="M215 312 L532 312" style="fill:none; clip-path:url(#clipPath1); stroke:blue;" />
      <text x="0" y="13" transform="translate(233,283)" style="font-size:13; clip-path:url(#clipPath21); fill:black; stroke:none;" xml:space="preserve">1</text>
      <text x="0" y="13" transform="translate(512,293)" style="font-size:13; clip-path:url(#clipPath21); fill:black; stroke:none;" xml:space="preserve">1</text>
      <path d="M215 312 L532 312" style="fill:none; clip-path:url(#clipPath1); stroke:blue;" />
      <text x="0" y="13" transform="translate(233,283)" style="font-size:13; clip-path:url(#clipPath21); fill:black; stroke:none;" xml:space="preserve">1</text>
      <text x="0" y="13" transform="translate(512,293)" style="font-size:13; clip-path:url(#clipPath21); fill:black; stroke:none;" xml:space="preserve">1</text>
      <path d="M215 349 L468 540" style="fill:none; clip-path:url(#clipPath1); stroke:blue;" />
      <text x="0" y="13" transform="translate(228,340)" style="font-size:13; clip-path:url(#clipPath21); fill:black; stroke:none;" xml:space="preserve">1</text>
      <text x="0" y="13" transform="translate(459,512)" style="font-size:13; clip-path:url(#clipPath21); fill:black; stroke:none;" xml:space="preserve">1</text>
      <path d="M215 349 L468 540" style="fill:none; clip-path:url(#clipPath1); stroke:blue;" />
      <text x="0" y="13" transform="translate(228,340)" style="font-size:13; clip-path:url(#clipPath21); fill:black; stroke:none;" xml:space="preserve">1</text>
      <text x="0" y="13" transform="translate(459,512)" style="font-size:13; clip-path:url(#clipPath21); fill:black; stroke:none;" xml:space="preserve">1</text>
      <path d="M215 392 L376 620" style="fill:none; clip-path:url(#clipPath1); stroke:blue;" />
      <text x="0" y="13" transform="translate(203,409)" style="font-size:13; clip-path:url(#clipPath21); fill:black; stroke:none;" xml:space="preserve">1</text>
      <text x="0" y="13" transform="translate(375,595)" style="font-size:13; clip-path:url(#clipPath21); fill:black; stroke:none;" xml:space="preserve">1</text>
      <path d="M215 392 L376 620" style="fill:none; clip-path:url(#clipPath1); stroke:blue;" />
      <text x="0" y="13" transform="translate(203,409)" style="font-size:13; clip-path:url(#clipPath21); fill:black; stroke:none;" xml:space="preserve">1</text>
      <text x="0" y="13" transform="translate(375,595)" style="font-size:13; clip-path:url(#clipPath21); fill:black; stroke:none;" xml:space="preserve">1</text>
    </g>
    <g style="font-size:13; stroke-dasharray:15,10; stroke-linecap:butt;">
      <path d="M619 480 L619 325" style="fill:none; clip-path:url(#clipPath1);" />
      <polygon points=" 619 326 614 336 619 326 624 336 619 326" style="stroke-dasharray:none; clip-path:url(#clipPath23); stroke-linecap:square; stroke:none;" />
      <polygon points=" 619 326 614 336 619 326 624 336 619 326" style="fill:none; stroke-dasharray:none; clip-path:url(#clipPath23); stroke-linecap:square;" />
      <text x="0" y="13" transform="translate(624,396)" style="stroke-linecap:square; clip-path:url(#clipPath24); stroke-dasharray:none; stroke:none;" xml:space="preserve">«extend»</text>
      <path d="M619 480 L619 325" style="fill:none; clip-path:url(#clipPath1);" />
      <polygon points=" 619 326 614 336 619 326 624 336 619 326" style="stroke-dasharray:none; clip-path:url(#clipPath23); stroke-linecap:square; stroke:none;" />
      <polygon points=" 619 326 614 336 619 326 624 336 619 326" style="fill:none; stroke-dasharray:none; clip-path:url(#clipPath23); stroke-linecap:square;" />
      <text x="0" y="13" transform="translate(624,396)" style="stroke-linecap:square; clip-path:url(#clipPath24); stroke-dasharray:none; stroke:none;" xml:space="preserve">«extend»</text>
    </g>
    <g style="fill:blue; font-size:13; stroke:blue;">
      <path d="M215 328 L589 480" style="fill:none; clip-path:url(#clipPath1);" />
      <text x="0" y="13" transform="translate(226,312)" style="clip-path:url(#clipPath21); fill:black; stroke:none;" xml:space="preserve">1</text>
      <text x="0" y="13" transform="translate(580,456)" style="clip-path:url(#clipPath21); fill:black; stroke:none;" xml:space="preserve">1</text>
      <path d="M215 328 L589 480" style="fill:none; clip-path:url(#clipPath1);" />
      <text x="0" y="13" transform="translate(226,312)" style="clip-path:url(#clipPath21); fill:black; stroke:none;" xml:space="preserve">1</text>
      <text x="0" y="13" transform="translate(580,456)" style="clip-path:url(#clipPath21); fill:black; stroke:none;" xml:space="preserve">1</text>
      <path d="M920 384 L652 481" style="fill:none; clip-path:url(#clipPath1);" />
      <text x="0" y="13" transform="translate(901,368)" style="clip-path:url(#clipPath21); fill:black; stroke:none;" xml:space="preserve">1</text>
      <text x="0" y="13" transform="translate(654,458)" style="clip-path:url(#clipPath21); fill:black; stroke:none;" xml:space="preserve">1</text>
      <path d="M920 384 L652 481" style="fill:none; clip-path:url(#clipPath1);" />
      <text x="0" y="13" transform="translate(901,368)" style="clip-path:url(#clipPath21); fill:black; stroke:none;" xml:space="preserve">1</text>
      <text x="0" y="13" transform="translate(654,458)" style="clip-path:url(#clipPath21); fill:black; stroke:none;" xml:space="preserve">1</text>
    </g>
  </g>
</svg>
