<?xml version="1.0" encoding="UTF-8"?>

<!DOCTYPE svg PUBLIC '-//W3C//DTD SVG 1.0//EN' 'http://www.w3.org/TR/2001/REC-SVG-20010904/DTD/svg10.dtd'>
<svg style="fill-opacity:1; color-rendering:auto; color-interpolation:auto; text-rendering:auto; stroke:black; stroke-linecap:square; stroke-miterlimit:10; shape-rendering:auto; stroke-opacity:1; fill:black; stroke-dasharray:none; font-weight:normal; stroke-width:1; font-family:&apos;Dialog&apos;; font-style:normal; stroke-linejoin:miter; font-size:12; stroke-dashoffset:0; image-rendering:auto;" xmlns="http://www.w3.org/2000/svg" width="1506" xmlns:xlink="http://www.w3.org/1999/xlink" height="794">
  <!--Generated by Selena using Batik-->
  <defs id="genericDefs" />
  <g>
    <defs id="defs1">
      <clipPath clipPathUnits="userSpaceOnUse" id="clipPath1">
        <path d="M0 0 L12000 0 L12000 12000 L0 12000 L0 0 Z" />
      </clipPath>
      <clipPath clipPathUnits="userSpaceOnUse" id="clipPath2">
        <path d="M15 15 L15 781 L1501 781 L1501 15 Z" />
      </clipPath>
      <clipPath clipPathUnits="userSpaceOnUse" id="clipPath3">
        <path d="M682 0 L682 15 L793 15 L793 0 Z" />
      </clipPath>
      <clipPath clipPathUnits="userSpaceOnUse" id="clipPath4">
        <path d="M40 36 L40 778 L326 778 L326 36 Z" />
      </clipPath>
      <clipPath clipPathUnits="userSpaceOnUse" id="clipPath5">
        <path d="M40 36 L40 51 L326 51 L326 36 Z" />
      </clipPath>
      <clipPath clipPathUnits="userSpaceOnUse" id="clipPath6">
        <path d="M115 0 L115 15 L160 15 L160 0 Z" />
      </clipPath>
      <clipPath clipPathUnits="userSpaceOnUse" id="clipPath7">
        <path d="M220 122 L220 152 L300 152 L300 122 Z" />
      </clipPath>
      <clipPath clipPathUnits="userSpaceOnUse" id="clipPath8">
        <path d="M60 122 L60 152 L120 152 L120 122 Z" />
      </clipPath>
      <clipPath clipPathUnits="userSpaceOnUse" id="clipPath9">
        <path d="M9 0 L9 15 L60 15 L60 0 Z" />
      </clipPath>
      <clipPath clipPathUnits="userSpaceOnUse" id="clipPath10">
        <path d="M3 0 L3 15 L7 15 L7 0 Z" />
      </clipPath>
      <clipPath clipPathUnits="userSpaceOnUse" id="clipPath11">
        <path d="M40 762 L40 778 L56 778 L56 762 Z" />
      </clipPath>
      <clipPath clipPathUnits="userSpaceOnUse" id="clipPath12">
        <path d="M42 764 L42 775 L53 775 L53 764 Z" />
      </clipPath>
      <clipPath clipPathUnits="userSpaceOnUse" id="clipPath13">
        <path d="M40 762 L56 762 L56 778 L40 778 L40 762 Z" />
      </clipPath>
      <clipPath clipPathUnits="userSpaceOnUse" id="clipPath14">
        <path d="M310 762 L310 778 L326 778 L326 762 Z" />
      </clipPath>
      <clipPath clipPathUnits="userSpaceOnUse" id="clipPath15">
        <path d="M312 764 L312 775 L323 775 L323 764 Z" />
      </clipPath>
      <clipPath clipPathUnits="userSpaceOnUse" id="clipPath16">
        <path d="M310 762 L326 762 L326 778 L310 778 L310 762 Z" />
      </clipPath>
      <clipPath clipPathUnits="userSpaceOnUse" id="clipPath17">
        <path d="M283 762 L283 778 L310 778 L310 762 Z" />
      </clipPath>
      <clipPath clipPathUnits="userSpaceOnUse" id="clipPath18">
        <path d="M56 762 L56 778 L283 778 L283 762 Z" />
      </clipPath>
      <clipPath clipPathUnits="userSpaceOnUse" id="clipPath19">
        <path d="M56 762 L283 762 L283 778 L56 778 L56 762 Z" />
      </clipPath>
      <clipPath clipPathUnits="userSpaceOnUse" id="clipPath20">
        <path d="M391 36 L391 778 L1081 778 L1081 36 Z" />
      </clipPath>
      <clipPath clipPathUnits="userSpaceOnUse" id="clipPath21">
        <path d="M391 36 L391 51 L1081 51 L1081 36 Z" />
      </clipPath>
      <clipPath clipPathUnits="userSpaceOnUse" id="clipPath22">
        <path d="M268 0 L268 15 L412 15 L412 0 Z" />
      </clipPath>
      <clipPath clipPathUnits="userSpaceOnUse" id="clipPath23">
        <path d="M422 62 L422 77 L437 77 L437 62 Z" />
      </clipPath>
      <clipPath clipPathUnits="userSpaceOnUse" id="clipPath24">
        <path d="M600 122 L600 152 L687 152 L687 122 Z" />
      </clipPath>
      <clipPath clipPathUnits="userSpaceOnUse" id="clipPath25">
        <path d="M772 228 L772 258 L832 258 L832 228 Z" />
      </clipPath>
      <clipPath clipPathUnits="userSpaceOnUse" id="clipPath26">
        <path d="M772 308 L772 338 L832 338 L832 308 Z" />
      </clipPath>
      <clipPath clipPathUnits="userSpaceOnUse" id="clipPath27">
        <path d="M772 428 L772 458 L832 458 L832 428 Z" />
      </clipPath>
      <clipPath clipPathUnits="userSpaceOnUse" id="clipPath28">
        <path d="M940 402 L940 483 L1061 483 L1061 402 Z" />
      </clipPath>
      <clipPath clipPathUnits="userSpaceOnUse" id="clipPath29">
        <path d="M762 548 L762 578 L844 578 L844 548 Z" />
      </clipPath>
      <clipPath clipPathUnits="userSpaceOnUse" id="clipPath30">
        <path d="M992 554 L992 572 L1010 572 L1010 554 Z" />
      </clipPath>
      <clipPath clipPathUnits="userSpaceOnUse" id="clipPath31">
        <path d="M600 402 L600 463 L701 463 L701 402 Z" />
      </clipPath>
      <clipPath clipPathUnits="userSpaceOnUse" id="clipPath32">
        <path d="M642 502 L642 520 L660 520 L660 502 Z" />
      </clipPath>
      <clipPath clipPathUnits="userSpaceOnUse" id="clipPath33">
        <path d="M480 548 L480 578 L540 578 L540 548 Z" />
      </clipPath>
      <clipPath clipPathUnits="userSpaceOnUse" id="clipPath34">
        <path d="M480 702 L480 732 L540 732 L540 702 Z" />
      </clipPath>
      <clipPath clipPathUnits="userSpaceOnUse" id="clipPath35">
        <path d="M642 708 L642 726 L660 726 L660 708 Z" />
      </clipPath>
      <clipPath clipPathUnits="userSpaceOnUse" id="clipPath36">
        <path d="M621 308 L621 338 L681 338 L681 308 Z" />
      </clipPath>
      <clipPath clipPathUnits="userSpaceOnUse" id="clipPath37">
        <path d="M0 0 L0 15 L77 15 L77 0 Z" />
      </clipPath>
      <clipPath clipPathUnits="userSpaceOnUse" id="clipPath38">
        <path d="M0 0 L0 15 L85 15 L85 0 Z" />
      </clipPath>
      <clipPath clipPathUnits="userSpaceOnUse" id="clipPath39">
        <path d="M0 0 L0 15 L203 15 L203 0 Z" />
      </clipPath>
      <clipPath clipPathUnits="userSpaceOnUse" id="clipPath40">
        <path d="M0 0 L0 15 L82 15 L82 0 Z" />
      </clipPath>
      <clipPath clipPathUnits="userSpaceOnUse" id="clipPath41">
        <path d="M5 0 L5 45 L106 45 L106 0 Z" />
      </clipPath>
      <clipPath clipPathUnits="userSpaceOnUse" id="clipPath42">
        <path d="M0 0 L0 15 L72 15 L72 0 Z" />
      </clipPath>
      <clipPath clipPathUnits="userSpaceOnUse" id="clipPath43">
        <path d="M995 557 L995 569 L1007 569 L1007 557 Z" />
      </clipPath>
      <clipPath clipPathUnits="userSpaceOnUse" id="clipPath44">
        <path d="M1 0 L1 30 L89 30 L89 0 Z" />
      </clipPath>
      <clipPath clipPathUnits="userSpaceOnUse" id="clipPath45">
        <path d="M645 505 L645 517 L657 517 L657 505 Z" />
      </clipPath>
      <clipPath clipPathUnits="userSpaceOnUse" id="clipPath46">
        <path d="M0 0 L0 15 L187 15 L187 0 Z" />
      </clipPath>
      <clipPath clipPathUnits="userSpaceOnUse" id="clipPath47">
        <path d="M0 0 L0 15 L132 15 L132 0 Z" />
      </clipPath>
      <clipPath clipPathUnits="userSpaceOnUse" id="clipPath48">
        <path d="M645 711 L645 723 L657 723 L657 711 Z" />
      </clipPath>
      <clipPath clipPathUnits="userSpaceOnUse" id="clipPath49">
        <path d="M85 109 L85 120 L96 120 L96 109 Z" />
      </clipPath>
      <clipPath clipPathUnits="userSpaceOnUse" id="clipPath50">
        <path d="M589 130 L589 141 L600 141 L600 130 Z" />
      </clipPath>
      <clipPath clipPathUnits="userSpaceOnUse" id="clipPath51">
        <path d="M801 217 L801 228 L812 228 L812 217 Z" />
      </clipPath>
      <clipPath clipPathUnits="userSpaceOnUse" id="clipPath52">
        <path d="M796 294 L796 305 L807 305 L807 294 Z" />
      </clipPath>
      <clipPath clipPathUnits="userSpaceOnUse" id="clipPath53">
        <path d="M0 0 L0 15 L22 15 L22 0 Z" />
      </clipPath>
      <clipPath clipPathUnits="userSpaceOnUse" id="clipPath54">
        <path d="M796 414 L796 425 L807 425 L807 414 Z" />
      </clipPath>
      <clipPath clipPathUnits="userSpaceOnUse" id="clipPath55">
        <path d="M0 0 L0 15 L123 15 L123 0 Z" />
      </clipPath>
      <clipPath clipPathUnits="userSpaceOnUse" id="clipPath56">
        <path d="M929 436 L929 447 L940 447 L940 436 Z" />
      </clipPath>
      <clipPath clipPathUnits="userSpaceOnUse" id="clipPath57">
        <path d="M796 534 L796 545 L807 545 L807 534 Z" />
      </clipPath>
      <clipPath clipPathUnits="userSpaceOnUse" id="clipPath58">
        <path d="M0 0 L0 15 L38 15 L38 0 Z" />
      </clipPath>
      <clipPath clipPathUnits="userSpaceOnUse" id="clipPath59">
        <path d="M981 556 L981 567 L992 567 L992 556 Z" />
      </clipPath>
      <clipPath clipPathUnits="userSpaceOnUse" id="clipPath60">
        <path d="M995 541 L995 552 L1006 552 L1006 541 Z" />
      </clipPath>
      <clipPath clipPathUnits="userSpaceOnUse" id="clipPath61">
        <path d="M681 315 L681 326 L692 326 L692 315 Z" />
      </clipPath>
      <clipPath clipPathUnits="userSpaceOnUse" id="clipPath62">
        <path d="M0 0 L0 15 L51 15 L51 0 Z" />
      </clipPath>
      <clipPath clipPathUnits="userSpaceOnUse" id="clipPath63">
        <path d="M645 489 L645 500 L656 500 L656 489 Z" />
      </clipPath>
      <clipPath clipPathUnits="userSpaceOnUse" id="clipPath64">
        <path d="M505 535 L505 546 L516 546 L516 535 Z" />
      </clipPath>
      <clipPath clipPathUnits="userSpaceOnUse" id="clipPath65">
        <path d="M504 688 L504 699 L515 699 L515 688 Z" />
      </clipPath>
      <clipPath clipPathUnits="userSpaceOnUse" id="clipPath66">
        <path d="M631 710 L631 721 L642 721 L642 710 Z" />
      </clipPath>
      <clipPath clipPathUnits="userSpaceOnUse" id="clipPath67">
        <path d="M84 152 L84 163 L95 163 L95 152 Z" />
      </clipPath>
      <clipPath clipPathUnits="userSpaceOnUse" id="clipPath68">
        <path d="M610 315 L610 326 L621 326 L621 315 Z" />
      </clipPath>
      <clipPath clipPathUnits="userSpaceOnUse" id="clipPath69">
        <path d="M644 389 L644 400 L655 400 L655 389 Z" />
      </clipPath>
      <clipPath clipPathUnits="userSpaceOnUse" id="clipPath70">
        <path d="M209 130 L209 141 L220 141 L220 130 Z" />
      </clipPath>
    </defs>
    <g style="fill:white; stroke:white;">
      <rect x="0" y="0" width="1506" style="clip-path:url(#clipPath1); stroke:none;" height="794" />
      <rect x="0" y="0" width="1505" style="clip-path:url(#clipPath1); fill:none; stroke:blue;" height="793" />
      <rect x="15" y="15" width="1486" style="clip-path:url(#clipPath2); stroke:none;" rx="4" ry="4" height="766" />
      <rect x="15" y="15" width="1485" style="clip-path:url(#clipPath2); fill:none; stroke:black;" rx="4" ry="4" height="765" />
      <text x="682" y="13" transform="translate(20,15)" style="font-size:13; clip-path:url(#clipPath3); fill:black; stroke:none;" xml:space="preserve">Spielzug machen</text>
      <rect x="40" y="36" width="286" style="clip-path:url(#clipPath4); stroke:none;" height="742" />
      <rect x="40" y="36" width="285" style="clip-path:url(#clipPath4); fill:none; stroke:black;" height="741" />
      <rect x="40" y="36" width="286" style="clip-path:url(#clipPath5); stroke:none;" height="15" />
      <rect x="40" y="36" width="285" style="clip-path:url(#clipPath5); fill:none; stroke:black;" height="14" />
      <text x="115" y="13" transform="translate(45,36)" style="font-size:13; clip-path:url(#clipPath6); fill:black; stroke:none;" xml:space="preserve">Spieler</text>
      <rect x="220" y="122" transform="translate(3,3)" width="80" style="clip-path:url(#clipPath7); fill:rgb(153,153,153); stroke:none;" rx="4" ry="4" height="30" />
      <rect x="220" y="122" transform="translate(3,3)" width="79" style="clip-path:url(#clipPath7); fill:none; stroke:rgb(153,153,153);" rx="4" ry="4" height="29" />
      <polygon points=" 60 136 89 122 119 136 89 151 60 136" transform="translate(3,3)" style="fill:rgb(153,153,153); clip-path:url(#clipPath8); stroke:none;" />
      <polygon points=" 60 136 89 122 119 136 89 151 60 136" transform="translate(3,3)" style="fill:none; clip-path:url(#clipPath8); stroke:rgb(153,153,153);" />
      <rect x="220" y="122" width="80" style="clip-path:url(#clipPath7); stroke:none;" rx="4" ry="4" height="30" />
      <rect x="220" y="122" width="79" style="clip-path:url(#clipPath7); fill:none; stroke:black;" rx="4" ry="4" height="29" />
      <text x="9" y="13" transform="translate(225,129)" style="font-size:13; clip-path:url(#clipPath9); fill:black; stroke:none;" xml:space="preserve">W端rfeln</text>
      <polygon style="clip-path:url(#clipPath8); stroke:none;" points=" 60 136 89 122 119 136 89 151 60 136" />
      <polygon style="fill:none; clip-path:url(#clipPath8); stroke:black;" points=" 60 136 89 122 119 136 89 151 60 136" />
      <text x="3" y="13" transform="translate(85,162)" style="font-size:13; clip-path:url(#clipPath10); fill:black; stroke:none;" xml:space="preserve"> </text>
      <rect x="40" y="762" width="16" style="clip-path:url(#clipPath11); fill:rgb(238,238,236); stroke:none;" height="16" />
      <polygon style="fill:rgb(16,16,16); clip-path:url(#clipPath12); stroke:none;" points=" 45 769 48 766 48 772" />
      <polygon style="fill:none; clip-path:url(#clipPath12); stroke:rgb(16,16,16);" points=" 45 769 48 766 48 772" />
      <line x1="55" x2="55" y1="777" style="clip-path:url(#clipPath13); fill:none; stroke:black;" y2="762" />
      <line x1="55" x2="40" y1="777" style="clip-path:url(#clipPath13); fill:none; stroke:black;" y2="777" />
      <line x1="54" x2="54" y1="776" style="clip-path:url(#clipPath13); fill:none; stroke:rgb(170,170,163);" y2="763" />
      <line x1="54" x2="41" y1="776" style="clip-path:url(#clipPath13); fill:none; stroke:rgb(170,170,163);" y2="776" />
      <line x1="40" x2="54" y1="762" style="clip-path:url(#clipPath13); fill:none; stroke:rgb(238,238,236);" y2="762" />
      <line x1="40" x2="40" y1="762" style="clip-path:url(#clipPath13); fill:none; stroke:rgb(238,238,236);" y2="776" />
      <line x1="41" x2="53" y1="763" style="clip-path:url(#clipPath13); fill:none;" y2="763" />
      <line x1="41" x2="41" y1="763" style="clip-path:url(#clipPath13); fill:none;" y2="775" />
      <rect x="310" y="762" width="16" style="clip-path:url(#clipPath14); fill:rgb(238,238,236); stroke:none;" height="16" />
      <polygon style="fill:rgb(16,16,16); clip-path:url(#clipPath15); stroke:none;" points=" 318 769 315 766 315 772" />
      <polygon style="fill:none; clip-path:url(#clipPath15); stroke:rgb(16,16,16);" points=" 318 769 315 766 315 772" />
      <line x1="325" x2="325" y1="777" style="clip-path:url(#clipPath16); fill:none; stroke:black;" y2="762" />
      <line x1="325" x2="310" y1="777" style="clip-path:url(#clipPath16); fill:none; stroke:black;" y2="777" />
      <line x1="324" x2="324" y1="776" style="clip-path:url(#clipPath16); fill:none; stroke:rgb(170,170,163);" y2="763" />
      <line x1="324" x2="311" y1="776" style="clip-path:url(#clipPath16); fill:none; stroke:rgb(170,170,163);" y2="776" />
      <line x1="310" x2="324" y1="762" style="clip-path:url(#clipPath16); fill:none; stroke:rgb(238,238,236);" y2="762" />
      <line x1="310" x2="310" y1="762" style="clip-path:url(#clipPath16); fill:none; stroke:rgb(238,238,236);" y2="776" />
      <line x1="311" x2="323" y1="763" style="clip-path:url(#clipPath16); fill:none;" y2="763" />
      <line x1="311" x2="311" y1="763" style="clip-path:url(#clipPath16); fill:none;" y2="775" />
      <rect x="283" y="762" width="27" style="clip-path:url(#clipPath17); fill:rgb(246,246,245); stroke:none;" height="16" />
      <rect x="56" y="762" width="227" style="clip-path:url(#clipPath18); fill:rgb(238,238,236); stroke:none;" height="16" />
      <line x1="282" x2="282" y1="777" style="clip-path:url(#clipPath19); fill:none; stroke:black;" y2="762" />
      <line x1="282" x2="56" y1="777" style="clip-path:url(#clipPath19); fill:none; stroke:black;" y2="777" />
      <line x1="281" x2="281" y1="776" style="clip-path:url(#clipPath19); fill:none; stroke:rgb(170,170,163);" y2="763" />
      <line x1="281" x2="57" y1="776" style="clip-path:url(#clipPath19); fill:none; stroke:rgb(170,170,163);" y2="776" />
      <line x1="56" x2="281" y1="762" style="clip-path:url(#clipPath19); fill:none; stroke:rgb(238,238,236);" y2="762" />
      <line x1="56" x2="56" y1="762" style="clip-path:url(#clipPath19); fill:none; stroke:rgb(238,238,236);" y2="776" />
      <line x1="57" x2="280" y1="763" style="clip-path:url(#clipPath19); fill:none;" y2="763" />
      <line x1="57" x2="57" y1="763" style="clip-path:url(#clipPath19); fill:none;" y2="775" />
      <rect x="391" y="36" width="690" style="clip-path:url(#clipPath20); stroke:none;" height="742" />
      <rect x="391" y="36" width="689" style="clip-path:url(#clipPath20); fill:none; stroke:black;" height="741" />
      <rect x="391" y="36" width="690" style="clip-path:url(#clipPath21); stroke:none;" height="15" />
      <rect x="391" y="36" width="689" style="clip-path:url(#clipPath21); fill:none; stroke:black;" height="14" />
      <text x="268" y="13" transform="translate(396,36)" style="font-size:13; clip-path:url(#clipPath22); fill:black; stroke:none;" xml:space="preserve">Path of Enlightenment</text>
      <circle transform="translate(3,3)" style="clip-path:url(#clipPath23); fill:rgb(153,153,153); stroke:none;" r="7" cx="429" cy="69" />
      <circle transform="translate(3,3)" style="clip-path:url(#clipPath23); fill:none; stroke:rgb(153,153,153);" r="7" cx="429" cy="69" />
      <rect x="600" y="122" transform="translate(3,3)" width="87" style="clip-path:url(#clipPath24); fill:rgb(153,153,153); stroke:none;" rx="4" ry="4" height="30" />
      <rect x="600" y="122" transform="translate(3,3)" width="86" style="clip-path:url(#clipPath24); fill:none; stroke:rgb(153,153,153);" rx="4" ry="4" height="29" />
      <polygon points=" 772 242 801 228 831 242 801 257 772 242" transform="translate(3,3)" style="fill:rgb(153,153,153); clip-path:url(#clipPath25); stroke:none;" />
      <polygon points=" 772 242 801 228 831 242 801 257 772 242" transform="translate(3,3)" style="fill:none; clip-path:url(#clipPath25); stroke:rgb(153,153,153);" />
      <polygon points=" 772 322 801 308 831 322 801 337 772 322" transform="translate(3,3)" style="fill:rgb(153,153,153); clip-path:url(#clipPath26); stroke:none;" />
      <polygon points=" 772 322 801 308 831 322 801 337 772 322" transform="translate(3,3)" style="fill:none; clip-path:url(#clipPath26); stroke:rgb(153,153,153);" />
      <polygon points=" 772 442 801 428 831 442 801 457 772 442" transform="translate(3,3)" style="fill:rgb(153,153,153); clip-path:url(#clipPath27); stroke:none;" />
      <polygon points=" 772 442 801 428 831 442 801 457 772 442" transform="translate(3,3)" style="fill:none; clip-path:url(#clipPath27); stroke:rgb(153,153,153);" />
      <rect x="940" y="402" transform="translate(3,3)" width="121" style="clip-path:url(#clipPath28); fill:rgb(153,153,153); stroke:none;" rx="4" ry="4" height="81" />
      <rect x="940" y="402" transform="translate(3,3)" width="120" style="clip-path:url(#clipPath28); fill:none; stroke:rgb(153,153,153);" rx="4" ry="4" height="80" />
      <rect x="762" y="548" transform="translate(3,3)" width="82" style="clip-path:url(#clipPath29); fill:rgb(153,153,153); stroke:none;" rx="4" ry="4" height="30" />
      <rect x="762" y="548" transform="translate(3,3)" width="81" style="clip-path:url(#clipPath29); fill:none; stroke:rgb(153,153,153);" rx="4" ry="4" height="29" />
      <circle transform="translate(3,3)" style="clip-path:url(#clipPath30); fill:rgb(153,153,153); stroke:none;" r="8.5" cx="1000.5" cy="562.5" />
      <circle transform="translate(3,3)" style="clip-path:url(#clipPath30); fill:none; stroke:rgb(153,153,153);" r="8.5" cx="1000.5" cy="562.5" />
      <rect x="600" y="402" transform="translate(3,3)" width="101" style="clip-path:url(#clipPath31); fill:rgb(153,153,153); stroke:none;" rx="4" ry="4" height="61" />
      <rect x="600" y="402" transform="translate(3,3)" width="100" style="clip-path:url(#clipPath31); fill:none; stroke:rgb(153,153,153);" rx="4" ry="4" height="60" />
      <circle transform="translate(3,3)" style="clip-path:url(#clipPath32); fill:rgb(153,153,153); stroke:none;" r="8.5" cx="650.5" cy="510.5" />
      <circle transform="translate(3,3)" style="clip-path:url(#clipPath32); fill:none; stroke:rgb(153,153,153);" r="8.5" cx="650.5" cy="510.5" />
      <polygon points=" 480 562 509 548 539 562 509 577 480 562" transform="translate(3,3)" style="fill:rgb(153,153,153); clip-path:url(#clipPath33); stroke:none;" />
      <polygon points=" 480 562 509 548 539 562 509 577 480 562" transform="translate(3,3)" style="fill:none; clip-path:url(#clipPath33); stroke:rgb(153,153,153);" />
      <polygon points=" 480 716 509 702 539 716 509 731 480 716" transform="translate(3,3)" style="fill:rgb(153,153,153); clip-path:url(#clipPath34); stroke:none;" />
      <polygon points=" 480 716 509 702 539 716 509 731 480 716" transform="translate(3,3)" style="fill:none; clip-path:url(#clipPath34); stroke:rgb(153,153,153);" />
      <circle transform="translate(3,3)" style="clip-path:url(#clipPath35); fill:rgb(153,153,153); stroke:none;" r="8.5" cx="650.5" cy="716.5" />
      <circle transform="translate(3,3)" style="clip-path:url(#clipPath35); fill:none; stroke:rgb(153,153,153);" r="8.5" cx="650.5" cy="716.5" />
      <polygon points=" 621 322 650 308 680 322 650 337 621 322" transform="translate(3,3)" style="fill:rgb(153,153,153); clip-path:url(#clipPath36); stroke:none;" />
      <polygon points=" 621 322 650 308 680 322 650 337 621 322" transform="translate(3,3)" style="fill:none; clip-path:url(#clipPath36); stroke:rgb(153,153,153);" />
      <circle style="clip-path:url(#clipPath23); fill:black; stroke:none;" r="7" cx="429" cy="69" />
      <circle style="clip-path:url(#clipPath23); fill:none; stroke:black;" r="7" cx="429" cy="69" />
      <rect x="600" y="122" width="87" style="clip-path:url(#clipPath24); stroke:none;" rx="4" ry="4" height="30" />
      <rect x="600" y="122" width="86" style="clip-path:url(#clipPath24); fill:none; stroke:black;" rx="4" ry="4" height="29" />
      <text x="0" y="13" transform="translate(605,129)" style="font-size:13; clip-path:url(#clipPath37); fill:black; stroke:none;" xml:space="preserve">Wurf pr端fen</text>
      <polygon style="clip-path:url(#clipPath25); stroke:none;" points=" 772 242 801 228 831 242 801 257 772 242" />
      <polygon style="fill:none; clip-path:url(#clipPath25); stroke:black;" points=" 772 242 801 228 831 242 801 257 772 242" />
      <text x="0" y="13" transform="translate(840,244)" style="font-size:13; clip-path:url(#clipPath38); fill:black; stroke:none;" xml:space="preserve">6 gew端rfelt ?</text>
      <polygon style="clip-path:url(#clipPath26); stroke:none;" points=" 772 322 801 308 831 322 801 337 772 322" />
      <polygon style="fill:none; clip-path:url(#clipPath26); stroke:black;" points=" 772 322 801 308 831 322 801 337 772 322" />
      <text x="0" y="13" transform="translate(840,316)" style="font-size:13; clip-path:url(#clipPath39); fill:black; stroke:none;" xml:space="preserve">Wissensstreiter auf Heimatfeld</text>
      <polygon style="clip-path:url(#clipPath27); stroke:none;" points=" 772 442 801 428 831 442 801 457 772 442" />
      <polygon style="fill:none; clip-path:url(#clipPath27); stroke:black;" points=" 772 442 801 428 831 442 801 457 772 442" />
      <text x="0" y="13" transform="translate(761,468)" style="font-size:13; clip-path:url(#clipPath40); fill:black; stroke:none;" xml:space="preserve">Startfeld frei</text>
      <rect x="940" y="402" width="121" style="clip-path:url(#clipPath28); stroke:none;" rx="4" ry="4" height="81" />
      <rect x="940" y="402" width="120" style="clip-path:url(#clipPath28); fill:none; stroke:black;" rx="4" ry="4" height="80" />
      <text x="34" y="13" transform="translate(945,420)" style="font-size:13; clip-path:url(#clipPath41); fill:black; stroke:none;" xml:space="preserve">Bringe</text>
      <text x="5" y="28" transform="translate(945,420)" style="font-size:13; clip-path:url(#clipPath41); fill:black; stroke:none;" xml:space="preserve">Wissensstreiter</text>
      <text x="9" y="43" transform="translate(945,420)" style="font-size:13; clip-path:url(#clipPath41); fill:black; stroke:none;" xml:space="preserve">auf's Startfeld</text>
      <rect x="762" y="548" width="82" style="clip-path:url(#clipPath29); stroke:none;" rx="4" ry="4" height="30" />
      <rect x="762" y="548" width="81" style="clip-path:url(#clipPath29); fill:none; stroke:black;" rx="4" ry="4" height="29" />
      <text x="0" y="13" transform="translate(767,555)" style="font-size:13; clip-path:url(#clipPath42); fill:black; stroke:none;" xml:space="preserve">Fragerunde</text>
      <circle style="clip-path:url(#clipPath30); stroke:none;" r="8.5" cx="1000.5" cy="562.5" />
      <circle style="clip-path:url(#clipPath30); fill:none; stroke:black;" r="8.5" cx="1000.5" cy="562.5" />
      <circle style="clip-path:url(#clipPath43); fill:black; stroke:none;" r="5.5" cx="1000.5" cy="562.5" />
      <rect x="600" y="402" width="101" style="clip-path:url(#clipPath31); fill:rgb(173,216,230); stroke:none;" rx="4" ry="4" height="61" />
      <rect x="600" y="402" width="100" style="clip-path:url(#clipPath31); fill:none; stroke:black;" rx="4" ry="4" height="60" />
      <text x="1" y="13" transform="translate(605,417)" style="font-size:13; clip-path:url(#clipPath44); fill:blue; stroke:none;" xml:space="preserve">Wissensstreit</text>
      <text x="5" y="28" transform="translate(605,417)" style="font-size:13; clip-path:url(#clipPath44); fill:blue; stroke:none;" xml:space="preserve">er versetzen</text>
      <circle style="clip-path:url(#clipPath32); stroke:none;" r="8.5" cx="650.5" cy="510.5" />
      <circle style="clip-path:url(#clipPath32); fill:none; stroke:black;" r="8.5" cx="650.5" cy="510.5" />
      <circle style="clip-path:url(#clipPath45); fill:black; stroke:none;" r="5.5" cx="650.5" cy="510.5" />
      <polygon style="clip-path:url(#clipPath33); stroke:none;" points=" 480 562 509 548 539 562 509 577 480 562" />
      <polygon style="fill:none; clip-path:url(#clipPath33); stroke:black;" points=" 480 562 509 548 539 562 509 577 480 562" />
      <text x="0" y="13" transform="translate(417,588)" style="font-size:13; clip-path:url(#clipPath46); fill:black; stroke:none;" xml:space="preserve">Wissensstreiter auf Spielfeld</text>
      <polygon style="clip-path:url(#clipPath34); stroke:none;" points=" 480 716 509 702 539 716 509 731 480 716" />
      <polygon style="fill:none; clip-path:url(#clipPath34); stroke:black;" points=" 480 716 509 702 539 716 509 731 480 716" />
      <text x="0" y="13" transform="translate(444,742)" style="font-size:13; clip-path:url(#clipPath47); fill:black; stroke:none;" xml:space="preserve">Bereits 3x gew端rfelt</text>
      <circle style="clip-path:url(#clipPath35); stroke:none;" r="8.5" cx="650.5" cy="716.5" />
      <circle style="clip-path:url(#clipPath35); fill:none; stroke:black;" r="8.5" cx="650.5" cy="716.5" />
      <circle style="clip-path:url(#clipPath48); fill:black; stroke:none;" r="5.5" cx="650.5" cy="716.5" />
      <polygon style="clip-path:url(#clipPath36); stroke:none;" points=" 621 322 650 308 680 322 650 337 621 322" />
      <polygon style="fill:none; clip-path:url(#clipPath36); stroke:black;" points=" 621 322 650 308 680 322 650 337 621 322" />
      <text x="3" y="13" transform="translate(646,348)" style="font-size:13; clip-path:url(#clipPath10); fill:black; stroke:none;" xml:space="preserve"> </text>
      <path d="M425 60 L90 60 L90 120" style="fill:none; clip-path:url(#clipPath1); stroke:rgb(0,0,127);" />
      <polygon style="fill:rgb(0,0,127); clip-path:url(#clipPath49); stroke:none;" points=" 90 119 95 109 90 119 85 109 90 119" />
      <polygon style="fill:none; clip-path:url(#clipPath49); stroke:rgb(0,0,127);" points=" 90 119 95 109 90 119 85 109 90 119" />
      <path d="M425 60 L90 60 L90 120" style="fill:none; clip-path:url(#clipPath1); stroke:rgb(0,0,127);" />
      <polygon style="fill:rgb(0,0,127); clip-path:url(#clipPath49); stroke:none;" points=" 90 119 95 109 90 119 85 109 90 119" />
      <polygon style="fill:none; clip-path:url(#clipPath49); stroke:rgb(0,0,127);" points=" 90 119 95 109 90 119 85 109 90 119" />
      <path d="M300 135 L600 135" style="fill:none; clip-path:url(#clipPath1); stroke:rgb(0,0,127);" />
      <polygon style="fill:rgb(0,0,127); clip-path:url(#clipPath50); stroke:none;" points=" 599 135 589 130 599 135 589 140 599 135" />
      <polygon style="fill:none; clip-path:url(#clipPath50); stroke:rgb(0,0,127);" points=" 599 135 589 130 599 135 589 140 599 135" />
      <path d="M300 135 L600 135" style="fill:none; clip-path:url(#clipPath1); stroke:rgb(0,0,127);" />
      <polygon style="fill:rgb(0,0,127); clip-path:url(#clipPath50); stroke:none;" points=" 599 135 589 130 599 135 589 140 599 135" />
      <polygon style="fill:none; clip-path:url(#clipPath50); stroke:rgb(0,0,127);" points=" 599 135 589 130 599 135 589 140 599 135" />
      <path d="M687 135 L800 135 L808 229" style="fill:none; clip-path:url(#clipPath1); stroke:rgb(0,0,127);" />
      <polygon style="fill:rgb(0,0,127); clip-path:url(#clipPath51); stroke:none;" points=" 807 227 811 217 807 227 801 217 807 227" />
      <polygon style="fill:none; clip-path:url(#clipPath51); stroke:rgb(0,0,127);" points=" 807 227 811 217 807 227 801 217 807 227" />
      <path d="M687 135 L800 135 L808 229" style="fill:none; clip-path:url(#clipPath1); stroke:rgb(0,0,127);" />
      <polygon style="fill:rgb(0,0,127); clip-path:url(#clipPath51); stroke:none;" points=" 807 227 811 217 807 227 801 217 807 227" />
      <polygon style="fill:none; clip-path:url(#clipPath51); stroke:rgb(0,0,127);" points=" 807 227 811 217 807 227 801 217 807 227" />
      <path d="M801 257 L802 306" style="fill:none; clip-path:url(#clipPath1); stroke:rgb(0,0,127);" />
      <polygon style="fill:rgb(0,0,127); clip-path:url(#clipPath52); stroke:none;" points=" 801 304 806 294 801 304 796 294 801 304" />
      <polygon style="fill:none; clip-path:url(#clipPath52); stroke:rgb(0,0,127);" points=" 801 304 806 294 801 304 796 294 801 304" />
      <text x="0" y="13" transform="translate(822,268)" style="font-size:13; clip-path:url(#clipPath53); fill:black; stroke:none;" xml:space="preserve">[ja]</text>
      <path d="M801 257 L802 306" style="fill:none; clip-path:url(#clipPath1); stroke:rgb(0,0,127);" />
      <polygon style="fill:rgb(0,0,127); clip-path:url(#clipPath52); stroke:none;" points=" 801 304 806 294 801 304 796 294 801 304" />
      <polygon style="fill:none; clip-path:url(#clipPath52); stroke:rgb(0,0,127);" points=" 801 304 806 294 801 304 796 294 801 304" />
      <text x="0" y="13" transform="translate(822,268)" style="font-size:13; clip-path:url(#clipPath53); fill:black; stroke:none;" xml:space="preserve">[ja]</text>
      <path d="M801 337 L802 426" style="fill:none; clip-path:url(#clipPath1); stroke:rgb(0,0,127);" />
      <polygon style="fill:rgb(0,0,127); clip-path:url(#clipPath54); stroke:none;" points=" 801 424 806 414 801 424 796 414 801 424" />
      <polygon style="fill:none; clip-path:url(#clipPath54); stroke:rgb(0,0,127);" points=" 801 424 806 414 801 424 796 414 801 424" />
      <text x="0" y="13" transform="translate(822,368)" style="font-size:13; clip-path:url(#clipPath55); fill:black; stroke:none;" xml:space="preserve">[mindestens einer]</text>
      <path d="M801 337 L802 426" style="fill:none; clip-path:url(#clipPath1); stroke:rgb(0,0,127);" />
      <polygon style="fill:rgb(0,0,127); clip-path:url(#clipPath54); stroke:none;" points=" 801 424 806 414 801 424 796 414 801 424" />
      <polygon style="fill:none; clip-path:url(#clipPath54); stroke:rgb(0,0,127);" points=" 801 424 806 414 801 424 796 414 801 424" />
      <text x="0" y="13" transform="translate(822,368)" style="font-size:13; clip-path:url(#clipPath55); fill:black; stroke:none;" xml:space="preserve">[mindestens einer]</text>
      <path d="M831 441 L940 441" style="fill:none; clip-path:url(#clipPath1); stroke:rgb(0,0,127);" />
      <polygon style="fill:rgb(0,0,127); clip-path:url(#clipPath56); stroke:none;" points=" 939 441 929 436 939 441 929 446 939 441" />
      <polygon style="fill:none; clip-path:url(#clipPath56); stroke:rgb(0,0,127);" points=" 939 441 929 436 939 441 929 446 939 441" />
      <text x="0" y="13" transform="translate(843,446)" style="font-size:13; clip-path:url(#clipPath53); fill:black; stroke:none;" xml:space="preserve">[ja]</text>
      <path d="M831 441 L940 441" style="fill:none; clip-path:url(#clipPath1); stroke:rgb(0,0,127);" />
      <polygon style="fill:rgb(0,0,127); clip-path:url(#clipPath56); stroke:none;" points=" 939 441 929 436 939 441 929 446 939 441" />
      <polygon style="fill:none; clip-path:url(#clipPath56); stroke:rgb(0,0,127);" points=" 939 441 929 436 939 441 929 446 939 441" />
      <text x="0" y="13" transform="translate(843,446)" style="font-size:13; clip-path:url(#clipPath53); fill:black; stroke:none;" xml:space="preserve">[ja]</text>
      <path d="M801 457 L802 546" style="fill:none; clip-path:url(#clipPath1); stroke:rgb(0,0,127);" />
      <polygon style="fill:rgb(0,0,127); clip-path:url(#clipPath57); stroke:none;" points=" 801 544 806 534 801 544 796 534 801 544" />
      <polygon style="fill:none; clip-path:url(#clipPath57); stroke:rgb(0,0,127);" points=" 801 544 806 534 801 544 796 534 801 544" />
      <text x="0" y="13" transform="translate(822,488)" style="font-size:13; clip-path:url(#clipPath58); fill:black; stroke:none;" xml:space="preserve">[nein]</text>
      <path d="M801 457 L802 546" style="fill:none; clip-path:url(#clipPath1); stroke:rgb(0,0,127);" />
      <polygon style="fill:rgb(0,0,127); clip-path:url(#clipPath57); stroke:none;" points=" 801 544 806 534 801 544 796 534 801 544" />
      <polygon style="fill:none; clip-path:url(#clipPath57); stroke:rgb(0,0,127);" points=" 801 544 806 534 801 544 796 534 801 544" />
      <text x="0" y="13" transform="translate(822,488)" style="font-size:13; clip-path:url(#clipPath58); fill:black; stroke:none;" xml:space="preserve">[nein]</text>
      <path d="M842 561 L992 561" style="fill:none; clip-path:url(#clipPath1); stroke:rgb(0,0,127);" />
      <polygon style="fill:rgb(0,0,127); clip-path:url(#clipPath59); stroke:none;" points=" 991 561 981 556 991 561 981 566 991 561" />
      <polygon style="fill:none; clip-path:url(#clipPath59); stroke:rgb(0,0,127);" points=" 991 561 981 556 991 561 981 566 991 561" />
      <path d="M842 561 L992 561" style="fill:none; clip-path:url(#clipPath1); stroke:rgb(0,0,127);" />
      <polygon style="fill:rgb(0,0,127); clip-path:url(#clipPath59); stroke:none;" points=" 991 561 981 556 991 561 981 566 991 561" />
      <polygon style="fill:none; clip-path:url(#clipPath59); stroke:rgb(0,0,127);" points=" 991 561 981 556 991 561 981 566 991 561" />
      <path d="M1000 483 L1000 552" style="fill:none; clip-path:url(#clipPath1); stroke:rgb(0,0,127);" />
      <polygon style="fill:rgb(0,0,127); clip-path:url(#clipPath60); stroke:none;" points=" 1000 551 1005 541 1000 551 995 541 1000 551" />
      <polygon style="fill:none; clip-path:url(#clipPath60); stroke:rgb(0,0,127);" points=" 1000 551 1005 541 1000 551 995 541 1000 551" />
      <path d="M1000 483 L1000 552" style="fill:none; clip-path:url(#clipPath1); stroke:rgb(0,0,127);" />
      <polygon style="fill:rgb(0,0,127); clip-path:url(#clipPath60); stroke:none;" points=" 1000 551 1005 541 1000 551 995 541 1000 551" />
      <polygon style="fill:none; clip-path:url(#clipPath60); stroke:rgb(0,0,127);" points=" 1000 551 1005 541 1000 551 995 541 1000 551" />
      <path d="M773 320 L680 321" style="fill:none; clip-path:url(#clipPath1); stroke:rgb(0,0,127);" />
      <polygon style="fill:rgb(0,0,127); clip-path:url(#clipPath61); stroke:none;" points=" 681 320 691 325 681 320 691 315 681 320" />
      <polygon style="fill:none; clip-path:url(#clipPath61); stroke:rgb(0,0,127);" points=" 681 320 691 325 681 320 691 315 681 320" />
      <text x="0" y="13" transform="translate(710,325)" style="font-size:13; clip-path:url(#clipPath62); fill:black; stroke:none;" xml:space="preserve">[keiner]</text>
      <path d="M773 320 L680 321" style="fill:none; clip-path:url(#clipPath1); stroke:rgb(0,0,127);" />
      <polygon style="fill:rgb(0,0,127); clip-path:url(#clipPath61); stroke:none;" points=" 681 320 691 325 681 320 691 315 681 320" />
      <polygon style="fill:none; clip-path:url(#clipPath61); stroke:rgb(0,0,127);" points=" 681 320 691 325 681 320 691 315 681 320" />
      <text x="0" y="13" transform="translate(710,325)" style="font-size:13; clip-path:url(#clipPath62); fill:black; stroke:none;" xml:space="preserve">[keiner]</text>
      <path d="M650 463 L650 500" style="fill:none; clip-path:url(#clipPath1); stroke:rgb(0,0,127);" />
      <polygon style="fill:rgb(0,0,127); clip-path:url(#clipPath63); stroke:none;" points=" 650 499 655 489 650 499 645 489 650 499" />
      <polygon style="fill:none; clip-path:url(#clipPath63); stroke:rgb(0,0,127);" points=" 650 499 655 489 650 499 645 489 650 499" />
      <path d="M650 463 L650 500" style="fill:none; clip-path:url(#clipPath1); stroke:rgb(0,0,127);" />
      <polygon style="fill:rgb(0,0,127); clip-path:url(#clipPath63); stroke:none;" points=" 650 499 655 489 650 499 645 489 650 499" />
      <polygon style="fill:none; clip-path:url(#clipPath63); stroke:rgb(0,0,127);" points=" 650 499 655 489 650 499 645 489 650 499" />
      <path d="M774 240 L510 240 L510 546" style="fill:none; clip-path:url(#clipPath1); stroke:rgb(0,0,127);" />
      <polygon style="fill:rgb(0,0,127); clip-path:url(#clipPath64); stroke:none;" points=" 510 545 515 535 510 545 505 535 510 545" />
      <polygon style="fill:none; clip-path:url(#clipPath64); stroke:rgb(0,0,127);" points=" 510 545 515 535 510 545 505 535 510 545" />
      <text x="0" y="13" transform="translate(602,222)" style="font-size:13; clip-path:url(#clipPath58); fill:black; stroke:none;" xml:space="preserve">[nein]</text>
      <path d="M774 240 L510 240 L510 546" style="fill:none; clip-path:url(#clipPath1); stroke:rgb(0,0,127);" />
      <polygon style="fill:rgb(0,0,127); clip-path:url(#clipPath64); stroke:none;" points=" 510 545 515 535 510 545 505 535 510 545" />
      <polygon style="fill:none; clip-path:url(#clipPath64); stroke:rgb(0,0,127);" points=" 510 545 515 535 510 545 505 535 510 545" />
      <text x="0" y="13" transform="translate(602,222)" style="font-size:13; clip-path:url(#clipPath58); fill:black; stroke:none;" xml:space="preserve">[nein]</text>
      <path d="M509 577 L510 700" style="fill:none; clip-path:url(#clipPath1); stroke:rgb(0,0,127);" />
      <polygon style="fill:rgb(0,0,127); clip-path:url(#clipPath65); stroke:none;" points=" 509 698 514 688 509 698 504 688 509 698" />
      <polygon style="fill:none; clip-path:url(#clipPath65); stroke:rgb(0,0,127);" points=" 509 698 514 688 509 698 504 688 509 698" />
      <text x="0" y="13" transform="translate(522,642)" style="font-size:13; clip-path:url(#clipPath58); fill:black; stroke:none;" xml:space="preserve">[nein]</text>
      <path d="M509 577 L510 700" style="fill:none; clip-path:url(#clipPath1); stroke:rgb(0,0,127);" />
      <polygon style="fill:rgb(0,0,127); clip-path:url(#clipPath65); stroke:none;" points=" 509 698 514 688 509 698 504 688 509 698" />
      <polygon style="fill:none; clip-path:url(#clipPath65); stroke:rgb(0,0,127);" points=" 509 698 514 688 509 698 504 688 509 698" />
      <text x="0" y="13" transform="translate(522,642)" style="font-size:13; clip-path:url(#clipPath58); fill:black; stroke:none;" xml:space="preserve">[nein]</text>
      <path d="M539 715 L642 715" style="fill:none; clip-path:url(#clipPath1); stroke:rgb(0,0,127);" />
      <polygon style="fill:rgb(0,0,127); clip-path:url(#clipPath66); stroke:none;" points=" 641 715 631 710 641 715 631 720 641 715" />
      <polygon style="fill:none; clip-path:url(#clipPath66); stroke:rgb(0,0,127);" points=" 641 715 631 710 641 715 631 720 641 715" />
      <text x="0" y="13" transform="translate(551,720)" style="font-size:13; clip-path:url(#clipPath53); fill:black; stroke:none;" xml:space="preserve">[ja]</text>
      <path d="M539 715 L642 715" style="fill:none; clip-path:url(#clipPath1); stroke:rgb(0,0,127);" />
      <polygon style="fill:rgb(0,0,127); clip-path:url(#clipPath66); stroke:none;" points=" 641 715 631 710 641 715 631 720 641 715" />
      <polygon style="fill:none; clip-path:url(#clipPath66); stroke:rgb(0,0,127);" points=" 641 715 631 710 641 715 631 720 641 715" />
      <text x="0" y="13" transform="translate(551,720)" style="font-size:13; clip-path:url(#clipPath53); fill:black; stroke:none;" xml:space="preserve">[ja]</text>
      <path d="M490 720 L90 720 L89 151" style="fill:none; clip-path:url(#clipPath1); stroke:rgb(0,0,127);" />
      <polygon style="fill:rgb(0,0,127); clip-path:url(#clipPath67); stroke:none;" points=" 89 152 84 162 89 152 94 162 89 152" />
      <polygon style="fill:none; clip-path:url(#clipPath67); stroke:rgb(0,0,127);" points=" 89 152 84 162 89 152 94 162 89 152" />
      <text x="0" y="13" transform="translate(402,722)" style="font-size:13; clip-path:url(#clipPath58); fill:black; stroke:none;" xml:space="preserve">[nein]</text>
      <path d="M490 720 L90 720 L89 151" style="fill:none; clip-path:url(#clipPath1); stroke:rgb(0,0,127);" />
      <polygon style="fill:rgb(0,0,127); clip-path:url(#clipPath67); stroke:none;" points=" 89 152 84 162 89 152 94 162 89 152" />
      <polygon style="fill:none; clip-path:url(#clipPath67); stroke:rgb(0,0,127);" points=" 89 152 84 162 89 152 94 162 89 152" />
      <text x="0" y="13" transform="translate(402,722)" style="font-size:13; clip-path:url(#clipPath58); fill:black; stroke:none;" xml:space="preserve">[nein]</text>
      <path d="M539 560 L540 321 L622 320" style="fill:none; clip-path:url(#clipPath1); stroke:rgb(0,0,127);" />
      <polygon style="fill:rgb(0,0,127); clip-path:url(#clipPath68); stroke:none;" points=" 620 320 610 315 620 320 610 325 620 320" />
      <polygon style="fill:none; clip-path:url(#clipPath68); stroke:rgb(0,0,127);" points=" 620 320 610 315 620 320 610 325 620 320" />
      <text x="0" y="13" transform="translate(550,338)" style="font-size:13; clip-path:url(#clipPath53); fill:black; stroke:none;" xml:space="preserve">[ja]</text>
      <path d="M539 560 L540 321 L622 320" style="fill:none; clip-path:url(#clipPath1); stroke:rgb(0,0,127);" />
      <polygon style="fill:rgb(0,0,127); clip-path:url(#clipPath68); stroke:none;" points=" 620 320 610 315 620 320 610 325 620 320" />
      <polygon style="fill:none; clip-path:url(#clipPath68); stroke:rgb(0,0,127);" points=" 620 320 610 315 620 320 610 325 620 320" />
      <text x="0" y="13" transform="translate(550,338)" style="font-size:13; clip-path:url(#clipPath53); fill:black; stroke:none;" xml:space="preserve">[ja]</text>
      <path d="M650 337 L650 400" style="fill:none; clip-path:url(#clipPath1); stroke:rgb(0,0,127);" />
      <polygon style="fill:rgb(0,0,127); clip-path:url(#clipPath69); stroke:none;" points=" 649 399 654 389 649 399 644 389 649 399" />
      <polygon style="fill:none; clip-path:url(#clipPath69); stroke:rgb(0,0,127);" points=" 649 399 654 389 649 399 644 389 649 399" />
      <path d="M650 337 L650 400" style="fill:none; clip-path:url(#clipPath1); stroke:rgb(0,0,127);" />
      <polygon style="fill:rgb(0,0,127); clip-path:url(#clipPath69); stroke:none;" points=" 649 399 654 389 649 399 644 389 649 399" />
      <polygon style="fill:none; clip-path:url(#clipPath69); stroke:rgb(0,0,127);" points=" 649 399 654 389 649 399 644 389 649 399" />
      <path d="M119 135 L220 135" style="fill:none; clip-path:url(#clipPath1); stroke:rgb(0,0,127);" />
      <polygon style="fill:rgb(0,0,127); clip-path:url(#clipPath70); stroke:none;" points=" 219 135 209 130 219 135 209 140 219 135" />
      <polygon style="fill:none; clip-path:url(#clipPath70); stroke:rgb(0,0,127);" points=" 219 135 209 130 219 135 209 140 219 135" />
      <path d="M119 135 L220 135" style="fill:none; clip-path:url(#clipPath1); stroke:rgb(0,0,127);" />
      <polygon style="fill:rgb(0,0,127); clip-path:url(#clipPath70); stroke:none;" points=" 219 135 209 130 219 135 209 140 219 135" />
      <polygon style="fill:none; clip-path:url(#clipPath70); stroke:rgb(0,0,127);" points=" 219 135 209 130 219 135 209 140 219 135" />
    </g>
  </g>
</svg>
