<?xml version="1.0" encoding="UTF-8"?>

<!DOCTYPE svg PUBLIC '-//W3C//DTD SVG 1.0//EN' 'http://www.w3.org/TR/2001/REC-SVG-20010904/DTD/svg10.dtd'>
<svg style="fill-opacity:1; color-rendering:auto; color-interpolation:auto; text-rendering:auto; stroke:black; stroke-linecap:square; stroke-miterlimit:10; shape-rendering:auto; stroke-opacity:1; fill:black; stroke-dasharray:none; font-weight:normal; stroke-width:1; font-family:&apos;Dialog&apos;; font-style:normal; stroke-linejoin:miter; font-size:12; stroke-dashoffset:0; image-rendering:auto;" xmlns="http://www.w3.org/2000/svg" width="1764" xmlns:xlink="http://www.w3.org/1999/xlink" height="815">
  <!--Generated by Selena using Batik-->
  <defs id="genericDefs" />
  <g>
    <defs id="defs1">
      <clipPath clipPathUnits="userSpaceOnUse" id="clipPath1">
        <path d="M0 0 L12000 0 L12000 12000 L0 12000 L0 0 Z" />
      </clipPath>
      <clipPath clipPathUnits="userSpaceOnUse" id="clipPath2">
        <path d="M15 15 L15 801 L1241 801 L1241 15 Z" />
      </clipPath>
      <clipPath clipPathUnits="userSpaceOnUse" id="clipPath3">
        <path d="M552 0 L552 15 L663 15 L663 0 Z" />
      </clipPath>
      <clipPath clipPathUnits="userSpaceOnUse" id="clipPath4">
        <path d="M40 36 L40 798 L361 798 L361 36 Z" />
      </clipPath>
      <clipPath clipPathUnits="userSpaceOnUse" id="clipPath5">
        <path d="M40 36 L40 51 L361 51 L361 36 Z" />
      </clipPath>
      <clipPath clipPathUnits="userSpaceOnUse" id="clipPath6">
        <path d="M133 0 L133 15 L178 15 L178 0 Z" />
      </clipPath>
      <clipPath clipPathUnits="userSpaceOnUse" id="clipPath7">
        <path d="M220 122 L220 152 L323 152 L323 122 Z" />
      </clipPath>
      <clipPath clipPathUnits="userSpaceOnUse" id="clipPath8">
        <path d="M60 122 L60 152 L120 152 L120 122 Z" />
      </clipPath>
      <clipPath clipPathUnits="userSpaceOnUse" id="clipPath9">
        <path d="M0 0 L0 15 L93 15 L93 0 Z" />
      </clipPath>
      <clipPath clipPathUnits="userSpaceOnUse" id="clipPath10">
        <path d="M3 0 L3 15 L7 15 L7 0 Z" />
      </clipPath>
      <clipPath clipPathUnits="userSpaceOnUse" id="clipPath11">
        <path d="M391 36 L391 798 L1221 798 L1221 36 Z" />
      </clipPath>
      <clipPath clipPathUnits="userSpaceOnUse" id="clipPath12">
        <path d="M391 36 L391 51 L1221 51 L1221 36 Z" />
      </clipPath>
      <clipPath clipPathUnits="userSpaceOnUse" id="clipPath13">
        <path d="M338 0 L338 15 L482 15 L482 0 Z" />
      </clipPath>
      <clipPath clipPathUnits="userSpaceOnUse" id="clipPath14">
        <path d="M420 80 L420 95 L435 95 L435 80 Z" />
      </clipPath>
      <clipPath clipPathUnits="userSpaceOnUse" id="clipPath15">
        <path d="M600 122 L600 152 L775 152 L775 122 Z" />
      </clipPath>
      <clipPath clipPathUnits="userSpaceOnUse" id="clipPath16">
        <path d="M772 228 L772 258 L832 258 L832 228 Z" />
      </clipPath>
      <clipPath clipPathUnits="userSpaceOnUse" id="clipPath17">
        <path d="M772 308 L772 338 L832 338 L832 308 Z" />
      </clipPath>
      <clipPath clipPathUnits="userSpaceOnUse" id="clipPath18">
        <path d="M912 448 L912 478 L972 478 L972 448 Z" />
      </clipPath>
      <clipPath clipPathUnits="userSpaceOnUse" id="clipPath19">
        <path d="M1080 422 L1080 503 L1201 503 L1201 422 Z" />
      </clipPath>
      <clipPath clipPathUnits="userSpaceOnUse" id="clipPath20">
        <path d="M902 568 L902 598 L984 598 L984 568 Z" />
      </clipPath>
      <clipPath clipPathUnits="userSpaceOnUse" id="clipPath21">
        <path d="M1132 574 L1132 592 L1150 592 L1150 574 Z" />
      </clipPath>
      <clipPath clipPathUnits="userSpaceOnUse" id="clipPath22">
        <path d="M600 402 L600 463 L701 463 L701 402 Z" />
      </clipPath>
      <clipPath clipPathUnits="userSpaceOnUse" id="clipPath23">
        <path d="M642 502 L642 520 L660 520 L660 502 Z" />
      </clipPath>
      <clipPath clipPathUnits="userSpaceOnUse" id="clipPath24">
        <path d="M480 548 L480 578 L540 578 L540 548 Z" />
      </clipPath>
      <clipPath clipPathUnits="userSpaceOnUse" id="clipPath25">
        <path d="M480 702 L480 732 L540 732 L540 702 Z" />
      </clipPath>
      <clipPath clipPathUnits="userSpaceOnUse" id="clipPath26">
        <path d="M640 714 L640 732 L658 732 L658 714 Z" />
      </clipPath>
      <clipPath clipPathUnits="userSpaceOnUse" id="clipPath27">
        <path d="M621 308 L621 338 L681 338 L681 308 Z" />
      </clipPath>
      <clipPath clipPathUnits="userSpaceOnUse" id="clipPath28">
        <path d="M0 0 L0 15 L165 15 L165 0 Z" />
      </clipPath>
      <clipPath clipPathUnits="userSpaceOnUse" id="clipPath29">
        <path d="M0 0 L0 15 L159 15 L159 0 Z" />
      </clipPath>
      <clipPath clipPathUnits="userSpaceOnUse" id="clipPath30">
        <path d="M2 0 L2 30 L248 30 L248 0 Z" />
      </clipPath>
      <clipPath clipPathUnits="userSpaceOnUse" id="clipPath31">
        <path d="M0 0 L0 30 L112 30 L112 0 Z" />
      </clipPath>
      <clipPath clipPathUnits="userSpaceOnUse" id="clipPath32">
        <path d="M5 0 L5 45 L106 45 L106 0 Z" />
      </clipPath>
      <clipPath clipPathUnits="userSpaceOnUse" id="clipPath33">
        <path d="M0 0 L0 15 L72 15 L72 0 Z" />
      </clipPath>
      <clipPath clipPathUnits="userSpaceOnUse" id="clipPath34">
        <path d="M1135 577 L1135 589 L1147 589 L1147 577 Z" />
      </clipPath>
      <clipPath clipPathUnits="userSpaceOnUse" id="clipPath35">
        <path d="M1 0 L1 30 L89 30 L89 0 Z" />
      </clipPath>
      <clipPath clipPathUnits="userSpaceOnUse" id="clipPath36">
        <path d="M645 505 L645 517 L657 517 L657 505 Z" />
      </clipPath>
      <clipPath clipPathUnits="userSpaceOnUse" id="clipPath37">
        <path d="M2 0 L2 45 L119 45 L119 0 Z" />
      </clipPath>
      <clipPath clipPathUnits="userSpaceOnUse" id="clipPath38">
        <path d="M17 0 L17 30 L233 30 L233 0 Z" />
      </clipPath>
      <clipPath clipPathUnits="userSpaceOnUse" id="clipPath39">
        <path d="M643 717 L643 729 L655 729 L655 717 Z" />
      </clipPath>
      <clipPath clipPathUnits="userSpaceOnUse" id="clipPath40">
        <path d="M85 111 L85 122 L96 122 L96 111 Z" />
      </clipPath>
      <clipPath clipPathUnits="userSpaceOnUse" id="clipPath41">
        <path d="M589 130 L589 141 L600 141 L600 130 Z" />
      </clipPath>
      <clipPath clipPathUnits="userSpaceOnUse" id="clipPath42">
        <path d="M795 216 L795 227 L806 227 L806 216 Z" />
      </clipPath>
      <clipPath clipPathUnits="userSpaceOnUse" id="clipPath43">
        <path d="M796 294 L796 305 L807 305 L807 294 Z" />
      </clipPath>
      <clipPath clipPathUnits="userSpaceOnUse" id="clipPath44">
        <path d="M0 0 L0 15 L22 15 L22 0 Z" />
      </clipPath>
      <clipPath clipPathUnits="userSpaceOnUse" id="clipPath45">
        <path d="M937 437 L937 448 L948 448 L948 437 Z" />
      </clipPath>
      <clipPath clipPathUnits="userSpaceOnUse" id="clipPath46">
        <path d="M1069 456 L1069 467 L1080 467 L1080 456 Z" />
      </clipPath>
      <clipPath clipPathUnits="userSpaceOnUse" id="clipPath47">
        <path d="M936 554 L936 565 L947 565 L947 554 Z" />
      </clipPath>
      <clipPath clipPathUnits="userSpaceOnUse" id="clipPath48">
        <path d="M0 0 L0 15 L38 15 L38 0 Z" />
      </clipPath>
      <clipPath clipPathUnits="userSpaceOnUse" id="clipPath49">
        <path d="M1121 576 L1121 587 L1132 587 L1132 576 Z" />
      </clipPath>
      <clipPath clipPathUnits="userSpaceOnUse" id="clipPath50">
        <path d="M1135 561 L1135 572 L1146 572 L1146 561 Z" />
      </clipPath>
      <clipPath clipPathUnits="userSpaceOnUse" id="clipPath51">
        <path d="M681 315 L681 326 L692 326 L692 315 Z" />
      </clipPath>
      <clipPath clipPathUnits="userSpaceOnUse" id="clipPath52">
        <path d="M645 489 L645 500 L656 500 L656 489 Z" />
      </clipPath>
      <clipPath clipPathUnits="userSpaceOnUse" id="clipPath53">
        <path d="M505 535 L505 546 L516 546 L516 535 Z" />
      </clipPath>
      <clipPath clipPathUnits="userSpaceOnUse" id="clipPath54">
        <path d="M504 688 L504 699 L515 699 L515 688 Z" />
      </clipPath>
      <clipPath clipPathUnits="userSpaceOnUse" id="clipPath55">
        <path d="M629 718 L629 729 L640 729 L640 718 Z" />
      </clipPath>
      <clipPath clipPathUnits="userSpaceOnUse" id="clipPath56">
        <path d="M84 152 L84 163 L95 163 L95 152 Z" />
      </clipPath>
      <clipPath clipPathUnits="userSpaceOnUse" id="clipPath57">
        <path d="M610 317 L610 328 L621 328 L621 317 Z" />
      </clipPath>
      <clipPath clipPathUnits="userSpaceOnUse" id="clipPath58">
        <path d="M644 389 L644 400 L655 400 L655 389 Z" />
      </clipPath>
      <clipPath clipPathUnits="userSpaceOnUse" id="clipPath59">
        <path d="M209 130 L209 141 L220 141 L220 130 Z" />
      </clipPath>
    </defs>
    <g style="fill:white; stroke:white;">
      <rect x="0" y="0" width="1764" style="clip-path:url(#clipPath1); stroke:none;" height="815" />
      <rect x="0" y="0" width="1763" style="clip-path:url(#clipPath1); fill:none; stroke:blue;" height="814" />
      <rect x="15" y="15" width="1226" style="clip-path:url(#clipPath2); stroke:none;" rx="4" ry="4" height="786" />
      <rect x="15" y="15" width="1225" style="clip-path:url(#clipPath2); fill:none; stroke:black;" rx="4" ry="4" height="785" />
      <text x="552" y="13" transform="translate(20,15)" style="font-size:13; clip-path:url(#clipPath3); fill:black; stroke:none;" xml:space="preserve">Spielzug machen</text>
      <rect x="40" y="36" width="321" style="clip-path:url(#clipPath4); stroke:none;" height="762" />
      <rect x="40" y="36" width="320" style="clip-path:url(#clipPath4); fill:none; stroke:black;" height="761" />
      <rect x="40" y="36" width="321" style="clip-path:url(#clipPath5); stroke:none;" height="15" />
      <rect x="40" y="36" width="320" style="clip-path:url(#clipPath5); fill:none; stroke:black;" height="14" />
      <text x="133" y="13" transform="translate(45,36)" style="font-size:13; clip-path:url(#clipPath6); fill:black; stroke:none;" xml:space="preserve">Spieler</text>
      <rect x="220" y="122" transform="translate(3,3)" width="103" style="clip-path:url(#clipPath7); fill:rgb(153,153,153); stroke:none;" rx="4" ry="4" height="30" />
      <rect x="220" y="122" transform="translate(3,3)" width="102" style="clip-path:url(#clipPath7); fill:none; stroke:rgb(153,153,153);" rx="4" ry="4" height="29" />
      <polygon points=" 60 136 89 122 119 136 89 151 60 136" transform="translate(3,3)" style="fill:rgb(153,153,153); clip-path:url(#clipPath8); stroke:none;" />
      <polygon points=" 60 136 89 122 119 136 89 151 60 136" transform="translate(3,3)" style="fill:none; clip-path:url(#clipPath8); stroke:rgb(153,153,153);" />
      <rect x="220" y="122" width="103" style="clip-path:url(#clipPath7); stroke:none;" rx="4" ry="4" height="30" />
      <rect x="220" y="122" width="102" style="clip-path:url(#clipPath7); fill:none; stroke:black;" rx="4" ry="4" height="29" />
      <text x="0" y="13" transform="translate(225,129)" style="font-size:13; clip-path:url(#clipPath9); fill:black; stroke:none;" xml:space="preserve">Wurf initiieren</text>
      <polygon style="clip-path:url(#clipPath8); stroke:none;" points=" 60 136 89 122 119 136 89 151 60 136" />
      <polygon style="fill:none; clip-path:url(#clipPath8); stroke:black;" points=" 60 136 89 122 119 136 89 151 60 136" />
      <text x="3" y="13" transform="translate(85,162)" style="font-size:13; clip-path:url(#clipPath10); fill:black; stroke:none;" xml:space="preserve"> </text>
      <rect x="391" y="36" width="830" style="clip-path:url(#clipPath11); stroke:none;" height="762" />
      <rect x="391" y="36" width="829" style="clip-path:url(#clipPath11); fill:none; stroke:black;" height="761" />
      <rect x="391" y="36" width="830" style="clip-path:url(#clipPath12); stroke:none;" height="15" />
      <rect x="391" y="36" width="829" style="clip-path:url(#clipPath12); fill:none; stroke:black;" height="14" />
      <text x="338" y="13" transform="translate(396,36)" style="font-size:13; clip-path:url(#clipPath13); fill:black; stroke:none;" xml:space="preserve">Path of Enlightenment</text>
      <circle transform="translate(3,3)" style="clip-path:url(#clipPath14); fill:rgb(153,153,153); stroke:none;" r="7" cx="427" cy="87" />
      <circle transform="translate(3,3)" style="clip-path:url(#clipPath14); fill:none; stroke:rgb(153,153,153);" r="7" cx="427" cy="87" />
      <rect x="600" y="122" transform="translate(3,3)" width="175" style="clip-path:url(#clipPath15); fill:rgb(153,153,153); stroke:none;" rx="4" ry="4" height="30" />
      <rect x="600" y="122" transform="translate(3,3)" width="174" style="clip-path:url(#clipPath15); fill:none; stroke:rgb(153,153,153);" rx="4" ry="4" height="29" />
      <polygon points=" 772 242 801 228 831 242 801 257 772 242" transform="translate(3,3)" style="fill:rgb(153,153,153); clip-path:url(#clipPath16); stroke:none;" />
      <polygon points=" 772 242 801 228 831 242 801 257 772 242" transform="translate(3,3)" style="fill:none; clip-path:url(#clipPath16); stroke:rgb(153,153,153);" />
      <polygon points=" 772 322 801 308 831 322 801 337 772 322" transform="translate(3,3)" style="fill:rgb(153,153,153); clip-path:url(#clipPath17); stroke:none;" />
      <polygon points=" 772 322 801 308 831 322 801 337 772 322" transform="translate(3,3)" style="fill:none; clip-path:url(#clipPath17); stroke:rgb(153,153,153);" />
      <polygon points=" 912 462 941 448 971 462 941 477 912 462" transform="translate(3,3)" style="fill:rgb(153,153,153); clip-path:url(#clipPath18); stroke:none;" />
      <polygon points=" 912 462 941 448 971 462 941 477 912 462" transform="translate(3,3)" style="fill:none; clip-path:url(#clipPath18); stroke:rgb(153,153,153);" />
      <rect x="1080" y="422" transform="translate(3,3)" width="121" style="clip-path:url(#clipPath19); fill:rgb(153,153,153); stroke:none;" rx="4" ry="4" height="81" />
      <rect x="1080" y="422" transform="translate(3,3)" width="120" style="clip-path:url(#clipPath19); fill:none; stroke:rgb(153,153,153);" rx="4" ry="4" height="80" />
      <rect x="902" y="568" transform="translate(3,3)" width="82" style="clip-path:url(#clipPath20); fill:rgb(153,153,153); stroke:none;" rx="4" ry="4" height="30" />
      <rect x="902" y="568" transform="translate(3,3)" width="81" style="clip-path:url(#clipPath20); fill:none; stroke:rgb(153,153,153);" rx="4" ry="4" height="29" />
      <circle transform="translate(3,3)" style="clip-path:url(#clipPath21); fill:rgb(153,153,153); stroke:none;" r="8.5" cx="1140.5" cy="582.5" />
      <circle transform="translate(3,3)" style="clip-path:url(#clipPath21); fill:none; stroke:rgb(153,153,153);" r="8.5" cx="1140.5" cy="582.5" />
      <rect x="600" y="402" transform="translate(3,3)" width="101" style="clip-path:url(#clipPath22); fill:rgb(153,153,153); stroke:none;" rx="4" ry="4" height="61" />
      <rect x="600" y="402" transform="translate(3,3)" width="100" style="clip-path:url(#clipPath22); fill:none; stroke:rgb(153,153,153);" rx="4" ry="4" height="60" />
      <circle transform="translate(3,3)" style="clip-path:url(#clipPath23); fill:rgb(153,153,153); stroke:none;" r="8.5" cx="650.5" cy="510.5" />
      <circle transform="translate(3,3)" style="clip-path:url(#clipPath23); fill:none; stroke:rgb(153,153,153);" r="8.5" cx="650.5" cy="510.5" />
      <polygon points=" 480 562 509 548 539 562 509 577 480 562" transform="translate(3,3)" style="fill:rgb(153,153,153); clip-path:url(#clipPath24); stroke:none;" />
      <polygon points=" 480 562 509 548 539 562 509 577 480 562" transform="translate(3,3)" style="fill:none; clip-path:url(#clipPath24); stroke:rgb(153,153,153);" />
      <polygon points=" 480 716 509 702 539 716 509 731 480 716" transform="translate(3,3)" style="fill:rgb(153,153,153); clip-path:url(#clipPath25); stroke:none;" />
      <polygon points=" 480 716 509 702 539 716 509 731 480 716" transform="translate(3,3)" style="fill:none; clip-path:url(#clipPath25); stroke:rgb(153,153,153);" />
      <circle transform="translate(3,3)" style="clip-path:url(#clipPath26); fill:rgb(153,153,153); stroke:none;" r="8.5" cx="648.5" cy="722.5" />
      <circle transform="translate(3,3)" style="clip-path:url(#clipPath26); fill:none; stroke:rgb(153,153,153);" r="8.5" cx="648.5" cy="722.5" />
      <polygon points=" 621 322 650 308 680 322 650 337 621 322" transform="translate(3,3)" style="fill:rgb(153,153,153); clip-path:url(#clipPath27); stroke:none;" />
      <polygon points=" 621 322 650 308 680 322 650 337 621 322" transform="translate(3,3)" style="fill:none; clip-path:url(#clipPath27); stroke:rgb(153,153,153);" />
      <circle style="clip-path:url(#clipPath14); fill:black; stroke:none;" r="7" cx="427" cy="87" />
      <circle style="clip-path:url(#clipPath14); fill:none; stroke:black;" r="7" cx="427" cy="87" />
      <rect x="600" y="122" width="175" style="clip-path:url(#clipPath15); stroke:none;" rx="4" ry="4" height="30" />
      <rect x="600" y="122" width="174" style="clip-path:url(#clipPath15); fill:none; stroke:black;" rx="4" ry="4" height="29" />
      <text x="0" y="13" transform="translate(605,129)" style="font-size:13; clip-path:url(#clipPath28); fill:black; stroke:none;" xml:space="preserve">Wurfergebnis bestimmen</text>
      <polygon style="clip-path:url(#clipPath16); stroke:none;" points=" 772 242 801 228 831 242 801 257 772 242" />
      <polygon style="fill:none; clip-path:url(#clipPath16); stroke:black;" points=" 772 242 801 228 831 242 801 257 772 242" />
      <text x="0" y="13" transform="translate(840,235)" style="font-size:13; clip-path:url(#clipPath29); fill:black; stroke:none;" xml:space="preserve">Wurde eine 6 gewürfelt?</text>
      <polygon style="clip-path:url(#clipPath17); stroke:none;" points=" 772 322 801 308 831 322 801 337 772 322" />
      <polygon style="fill:none; clip-path:url(#clipPath17); stroke:black;" points=" 772 322 801 308 831 322 801 337 772 322" />
      <text x="2" y="13" transform="translate(831,308)" style="font-size:13; clip-path:url(#clipPath30); fill:black; stroke:none;" xml:space="preserve">Befindet sich min. ein Wissensstreiter</text>
      <text x="8" y="28" transform="translate(831,308)" style="font-size:13; clip-path:url(#clipPath30); fill:black; stroke:none;" xml:space="preserve">auf einem Heimatfeld des Spielers?</text>
      <polygon style="clip-path:url(#clipPath18); stroke:none;" points=" 912 462 941 448 971 462 941 477 912 462" />
      <polygon style="fill:none; clip-path:url(#clipPath18); stroke:black;" points=" 912 462 941 448 971 462 941 477 912 462" />
      <text x="5" y="13" transform="translate(800,448)" style="font-size:13; clip-path:url(#clipPath31); fill:black; stroke:none;" xml:space="preserve">Ist das Startfeld</text>
      <text x="0" y="28" transform="translate(800,448)" style="font-size:13; clip-path:url(#clipPath31); fill:black; stroke:none;" xml:space="preserve">des Spielers frei?</text>
      <rect x="1080" y="422" width="121" style="clip-path:url(#clipPath19); stroke:none;" rx="4" ry="4" height="81" />
      <rect x="1080" y="422" width="120" style="clip-path:url(#clipPath19); fill:none; stroke:black;" rx="4" ry="4" height="80" />
      <text x="34" y="13" transform="translate(1085,440)" style="font-size:13; clip-path:url(#clipPath32); fill:black; stroke:none;" xml:space="preserve">Bringe</text>
      <text x="5" y="28" transform="translate(1085,440)" style="font-size:13; clip-path:url(#clipPath32); fill:black; stroke:none;" xml:space="preserve">Wissensstreiter</text>
      <text x="9" y="43" transform="translate(1085,440)" style="font-size:13; clip-path:url(#clipPath32); fill:black; stroke:none;" xml:space="preserve">auf's Startfeld</text>
      <rect x="902" y="568" width="82" style="clip-path:url(#clipPath20); fill:rgb(173,216,230); stroke:none;" rx="4" ry="4" height="30" />
      <rect x="902" y="568" width="81" style="clip-path:url(#clipPath20); fill:none; stroke:black;" rx="4" ry="4" height="29" />
      <text x="0" y="13" transform="translate(907,575)" style="font-size:13; clip-path:url(#clipPath33); fill:blue; stroke:none;" xml:space="preserve">Fragerunde</text>
      <circle style="clip-path:url(#clipPath21); stroke:none;" r="8.5" cx="1140.5" cy="582.5" />
      <circle style="clip-path:url(#clipPath21); fill:none; stroke:black;" r="8.5" cx="1140.5" cy="582.5" />
      <circle style="clip-path:url(#clipPath34); fill:black; stroke:none;" r="5.5" cx="1140.5" cy="582.5" />
      <rect x="600" y="402" width="101" style="clip-path:url(#clipPath22); fill:rgb(173,216,230); stroke:none;" rx="4" ry="4" height="61" />
      <rect x="600" y="402" width="100" style="clip-path:url(#clipPath22); fill:none; stroke:black;" rx="4" ry="4" height="60" />
      <text x="1" y="13" transform="translate(605,417)" style="font-size:13; clip-path:url(#clipPath35); fill:blue; stroke:none;" xml:space="preserve">Wissensstreit</text>
      <text x="5" y="28" transform="translate(605,417)" style="font-size:13; clip-path:url(#clipPath35); fill:blue; stroke:none;" xml:space="preserve">er versetzen</text>
      <circle style="clip-path:url(#clipPath23); stroke:none;" r="8.5" cx="650.5" cy="510.5" />
      <circle style="clip-path:url(#clipPath23); fill:none; stroke:black;" r="8.5" cx="650.5" cy="510.5" />
      <circle style="clip-path:url(#clipPath36); fill:black; stroke:none;" r="5.5" cx="650.5" cy="510.5" />
      <polygon style="clip-path:url(#clipPath24); stroke:none;" points=" 480 562 509 548 539 562 509 577 480 562" />
      <polygon style="fill:none; clip-path:url(#clipPath24); stroke:black;" points=" 480 562 509 548 539 562 509 577 480 562" />
      <text x="2" y="13" transform="translate(520,580)" style="font-size:13; clip-path:url(#clipPath37); fill:black; stroke:none;" xml:space="preserve">Befindet sich min.</text>
      <text x="10" y="28" transform="translate(520,580)" style="font-size:13; clip-path:url(#clipPath37); fill:black; stroke:none;" xml:space="preserve">Wissensstreiter</text>
      <text x="13" y="43" transform="translate(520,580)" style="font-size:13; clip-path:url(#clipPath37); fill:black; stroke:none;" xml:space="preserve">auf dem Pfad?</text>
      <polygon style="clip-path:url(#clipPath25); stroke:none;" points=" 480 716 509 702 539 716 509 731 480 716" />
      <polygon style="fill:none; clip-path:url(#clipPath25); stroke:black;" points=" 480 716 509 702 539 716 509 731 480 716" />
      <text x="17" y="13" transform="translate(385,742)" style="font-size:13; clip-path:url(#clipPath38); fill:black; stroke:none;" xml:space="preserve">Hat der Spieler 3x hintereinander</text>
      <text x="90" y="28" transform="translate(385,742)" style="font-size:13; clip-path:url(#clipPath38); fill:black; stroke:none;" xml:space="preserve">gewürfelt?</text>
      <circle style="clip-path:url(#clipPath26); stroke:none;" r="8.5" cx="648.5" cy="722.5" />
      <circle style="clip-path:url(#clipPath26); fill:none; stroke:black;" r="8.5" cx="648.5" cy="722.5" />
      <circle style="clip-path:url(#clipPath39); fill:black; stroke:none;" r="5.5" cx="648.5" cy="722.5" />
      <polygon style="clip-path:url(#clipPath27); stroke:none;" points=" 621 322 650 308 680 322 650 337 621 322" />
      <polygon style="fill:none; clip-path:url(#clipPath27); stroke:black;" points=" 621 322 650 308 680 322 650 337 621 322" />
      <text x="3" y="13" transform="translate(646,348)" style="font-size:13; clip-path:url(#clipPath10); fill:black; stroke:none;" xml:space="preserve"> </text>
      <path d="M423 80 L90 80 L90 122" style="fill:none; clip-path:url(#clipPath1); stroke:rgb(0,0,127);" />
      <polygon style="fill:rgb(0,0,127); clip-path:url(#clipPath40); stroke:none;" points=" 90 121 95 111 90 121 85 111 90 121" />
      <polygon style="fill:none; clip-path:url(#clipPath40); stroke:rgb(0,0,127);" points=" 90 121 95 111 90 121 85 111 90 121" />
      <path d="M423 80 L90 80 L90 122" style="fill:none; clip-path:url(#clipPath1); stroke:rgb(0,0,127);" />
      <polygon style="fill:rgb(0,0,127); clip-path:url(#clipPath40); stroke:none;" points=" 90 121 95 111 90 121 85 111 90 121" />
      <polygon style="fill:none; clip-path:url(#clipPath40); stroke:rgb(0,0,127);" points=" 90 121 95 111 90 121 85 111 90 121" />
      <path d="M323 135 L600 135" style="fill:none; clip-path:url(#clipPath1); stroke:rgb(0,0,127);" />
      <polygon style="fill:rgb(0,0,127); clip-path:url(#clipPath41); stroke:none;" points=" 599 135 589 130 599 135 589 140 599 135" />
      <polygon style="fill:none; clip-path:url(#clipPath41); stroke:rgb(0,0,127);" points=" 599 135 589 130 599 135 589 140 599 135" />
      <path d="M323 135 L600 135" style="fill:none; clip-path:url(#clipPath1); stroke:rgb(0,0,127);" />
      <polygon style="fill:rgb(0,0,127); clip-path:url(#clipPath41); stroke:none;" points=" 599 135 589 130 599 135 589 140 599 135" />
      <polygon style="fill:none; clip-path:url(#clipPath41); stroke:rgb(0,0,127);" points=" 599 135 589 130 599 135 589 140 599 135" />
      <path d="M775 137 L800 137 L801 228" style="fill:none; clip-path:url(#clipPath1); stroke:rgb(0,0,127);" />
      <polygon style="fill:rgb(0,0,127); clip-path:url(#clipPath42); stroke:none;" points=" 800 226 805 216 800 226 795 216 800 226" />
      <polygon style="fill:none; clip-path:url(#clipPath42); stroke:rgb(0,0,127);" points=" 800 226 805 216 800 226 795 216 800 226" />
      <path d="M775 137 L800 137 L801 228" style="fill:none; clip-path:url(#clipPath1); stroke:rgb(0,0,127);" />
      <polygon style="fill:rgb(0,0,127); clip-path:url(#clipPath42); stroke:none;" points=" 800 226 805 216 800 226 795 216 800 226" />
      <polygon style="fill:none; clip-path:url(#clipPath42); stroke:rgb(0,0,127);" points=" 800 226 805 216 800 226 795 216 800 226" />
      <path d="M801 257 L802 306" style="fill:none; clip-path:url(#clipPath1); stroke:rgb(0,0,127);" />
      <polygon style="fill:rgb(0,0,127); clip-path:url(#clipPath43); stroke:none;" points=" 801 304 806 294 801 304 796 294 801 304" />
      <polygon style="fill:none; clip-path:url(#clipPath43); stroke:rgb(0,0,127);" points=" 801 304 806 294 801 304 796 294 801 304" />
      <text x="0" y="13" transform="translate(822,282)" style="font-size:13; clip-path:url(#clipPath44); fill:black; stroke:none;" xml:space="preserve">[ja]</text>
      <path d="M801 257 L802 306" style="fill:none; clip-path:url(#clipPath1); stroke:rgb(0,0,127);" />
      <polygon style="fill:rgb(0,0,127); clip-path:url(#clipPath43); stroke:none;" points=" 801 304 806 294 801 304 796 294 801 304" />
      <polygon style="fill:none; clip-path:url(#clipPath43); stroke:rgb(0,0,127);" points=" 801 304 806 294 801 304 796 294 801 304" />
      <text x="0" y="13" transform="translate(822,282)" style="font-size:13; clip-path:url(#clipPath44); fill:black; stroke:none;" xml:space="preserve">[ja]</text>
      <path d="M801 337 L802 420 L942 420 L942 448" style="fill:none; clip-path:url(#clipPath1); stroke:rgb(0,0,127);" />
      <polygon style="fill:rgb(0,0,127); clip-path:url(#clipPath45); stroke:none;" points=" 942 447 947 437 942 447 937 437 942 447" />
      <polygon style="fill:none; clip-path:url(#clipPath45); stroke:rgb(0,0,127);" points=" 942 447 947 437 942 447 937 437 942 447" />
      <text x="0" y="13" transform="translate(822,402)" style="font-size:13; clip-path:url(#clipPath44); fill:black; stroke:none;" xml:space="preserve">[ja]</text>
      <path d="M801 337 L802 420 L942 420 L942 448" style="fill:none; clip-path:url(#clipPath1); stroke:rgb(0,0,127);" />
      <polygon style="fill:rgb(0,0,127); clip-path:url(#clipPath45); stroke:none;" points=" 942 447 947 437 942 447 937 437 942 447" />
      <polygon style="fill:none; clip-path:url(#clipPath45); stroke:rgb(0,0,127);" points=" 942 447 947 437 942 447 937 437 942 447" />
      <text x="0" y="13" transform="translate(822,402)" style="font-size:13; clip-path:url(#clipPath44); fill:black; stroke:none;" xml:space="preserve">[ja]</text>
      <path d="M971 461 L1080 461" style="fill:none; clip-path:url(#clipPath1); stroke:rgb(0,0,127);" />
      <polygon style="fill:rgb(0,0,127); clip-path:url(#clipPath46); stroke:none;" points=" 1079 461 1069 456 1079 461 1069 466 1079 461" />
      <polygon style="fill:none; clip-path:url(#clipPath46); stroke:rgb(0,0,127);" points=" 1079 461 1069 456 1079 461 1069 466 1079 461" />
      <text x="0" y="13" transform="translate(983,466)" style="font-size:13; clip-path:url(#clipPath44); fill:black; stroke:none;" xml:space="preserve">[ja]</text>
      <path d="M971 461 L1080 461" style="fill:none; clip-path:url(#clipPath1); stroke:rgb(0,0,127);" />
      <polygon style="fill:rgb(0,0,127); clip-path:url(#clipPath46); stroke:none;" points=" 1079 461 1069 456 1079 461 1069 466 1079 461" />
      <polygon style="fill:none; clip-path:url(#clipPath46); stroke:rgb(0,0,127);" points=" 1079 461 1069 456 1079 461 1069 466 1079 461" />
      <text x="0" y="13" transform="translate(983,466)" style="font-size:13; clip-path:url(#clipPath44); fill:black; stroke:none;" xml:space="preserve">[ja]</text>
      <path d="M941 477 L942 566" style="fill:none; clip-path:url(#clipPath1); stroke:rgb(0,0,127);" />
      <polygon style="fill:rgb(0,0,127); clip-path:url(#clipPath47); stroke:none;" points=" 941 564 946 554 941 564 936 554 941 564" />
      <polygon style="fill:none; clip-path:url(#clipPath47); stroke:rgb(0,0,127);" points=" 941 564 946 554 941 564 936 554 941 564" />
      <text x="0" y="13" transform="translate(942,522)" style="font-size:13; clip-path:url(#clipPath48); fill:black; stroke:none;" xml:space="preserve">[nein]</text>
      <path d="M941 477 L942 566" style="fill:none; clip-path:url(#clipPath1); stroke:rgb(0,0,127);" />
      <polygon style="fill:rgb(0,0,127); clip-path:url(#clipPath47); stroke:none;" points=" 941 564 946 554 941 564 936 554 941 564" />
      <polygon style="fill:none; clip-path:url(#clipPath47); stroke:rgb(0,0,127);" points=" 941 564 946 554 941 564 936 554 941 564" />
      <text x="0" y="13" transform="translate(942,522)" style="font-size:13; clip-path:url(#clipPath48); fill:black; stroke:none;" xml:space="preserve">[nein]</text>
      <path d="M982 581 L1132 581" style="fill:none; clip-path:url(#clipPath1); stroke:rgb(0,0,127);" />
      <polygon style="fill:rgb(0,0,127); clip-path:url(#clipPath49); stroke:none;" points=" 1131 581 1121 576 1131 581 1121 586 1131 581" />
      <polygon style="fill:none; clip-path:url(#clipPath49); stroke:rgb(0,0,127);" points=" 1131 581 1121 576 1131 581 1121 586 1131 581" />
      <path d="M982 581 L1132 581" style="fill:none; clip-path:url(#clipPath1); stroke:rgb(0,0,127);" />
      <polygon style="fill:rgb(0,0,127); clip-path:url(#clipPath49); stroke:none;" points=" 1131 581 1121 576 1131 581 1121 586 1131 581" />
      <polygon style="fill:none; clip-path:url(#clipPath49); stroke:rgb(0,0,127);" points=" 1131 581 1121 576 1131 581 1121 586 1131 581" />
      <path d="M1140 503 L1140 572" style="fill:none; clip-path:url(#clipPath1); stroke:rgb(0,0,127);" />
      <polygon style="fill:rgb(0,0,127); clip-path:url(#clipPath50); stroke:none;" points=" 1140 571 1145 561 1140 571 1135 561 1140 571" />
      <polygon style="fill:none; clip-path:url(#clipPath50); stroke:rgb(0,0,127);" points=" 1140 571 1145 561 1140 571 1135 561 1140 571" />
      <path d="M1140 503 L1140 572" style="fill:none; clip-path:url(#clipPath1); stroke:rgb(0,0,127);" />
      <polygon style="fill:rgb(0,0,127); clip-path:url(#clipPath50); stroke:none;" points=" 1140 571 1145 561 1140 571 1135 561 1140 571" />
      <polygon style="fill:none; clip-path:url(#clipPath50); stroke:rgb(0,0,127);" points=" 1140 571 1145 561 1140 571 1135 561 1140 571" />
      <path d="M773 320 L680 321" style="fill:none; clip-path:url(#clipPath1); stroke:rgb(0,0,127);" />
      <polygon style="fill:rgb(0,0,127); clip-path:url(#clipPath51); stroke:none;" points=" 681 320 691 325 681 320 691 315 681 320" />
      <polygon style="fill:none; clip-path:url(#clipPath51); stroke:rgb(0,0,127);" points=" 681 320 691 325 681 320 691 315 681 320" />
      <text x="0" y="13" transform="translate(723,325)" style="font-size:13; clip-path:url(#clipPath48); fill:black; stroke:none;" xml:space="preserve">[nein]</text>
      <path d="M773 320 L680 321" style="fill:none; clip-path:url(#clipPath1); stroke:rgb(0,0,127);" />
      <polygon style="fill:rgb(0,0,127); clip-path:url(#clipPath51); stroke:none;" points=" 681 320 691 325 681 320 691 315 681 320" />
      <polygon style="fill:none; clip-path:url(#clipPath51); stroke:rgb(0,0,127);" points=" 681 320 691 325 681 320 691 315 681 320" />
      <text x="0" y="13" transform="translate(723,325)" style="font-size:13; clip-path:url(#clipPath48); fill:black; stroke:none;" xml:space="preserve">[nein]</text>
      <path d="M650 463 L650 500" style="fill:none; clip-path:url(#clipPath1); stroke:rgb(0,0,127);" />
      <polygon style="fill:rgb(0,0,127); clip-path:url(#clipPath52); stroke:none;" points=" 650 499 655 489 650 499 645 489 650 499" />
      <polygon style="fill:none; clip-path:url(#clipPath52); stroke:rgb(0,0,127);" points=" 650 499 655 489 650 499 645 489 650 499" />
      <path d="M650 463 L650 500" style="fill:none; clip-path:url(#clipPath1); stroke:rgb(0,0,127);" />
      <polygon style="fill:rgb(0,0,127); clip-path:url(#clipPath52); stroke:none;" points=" 650 499 655 489 650 499 645 489 650 499" />
      <polygon style="fill:none; clip-path:url(#clipPath52); stroke:rgb(0,0,127);" points=" 650 499 655 489 650 499 645 489 650 499" />
      <path d="M774 240 L510 240 L510 546" style="fill:none; clip-path:url(#clipPath1); stroke:rgb(0,0,127);" />
      <polygon style="fill:rgb(0,0,127); clip-path:url(#clipPath53); stroke:none;" points=" 510 545 515 535 510 545 505 535 510 545" />
      <polygon style="fill:none; clip-path:url(#clipPath53); stroke:rgb(0,0,127);" points=" 510 545 515 535 510 545 505 535 510 545" />
      <text x="0" y="13" transform="translate(602,222)" style="font-size:13; clip-path:url(#clipPath48); fill:black; stroke:none;" xml:space="preserve">[nein]</text>
      <path d="M774 240 L510 240 L510 546" style="fill:none; clip-path:url(#clipPath1); stroke:rgb(0,0,127);" />
      <polygon style="fill:rgb(0,0,127); clip-path:url(#clipPath53); stroke:none;" points=" 510 545 515 535 510 545 505 535 510 545" />
      <polygon style="fill:none; clip-path:url(#clipPath53); stroke:rgb(0,0,127);" points=" 510 545 515 535 510 545 505 535 510 545" />
      <text x="0" y="13" transform="translate(602,222)" style="font-size:13; clip-path:url(#clipPath48); fill:black; stroke:none;" xml:space="preserve">[nein]</text>
      <path d="M509 577 L510 700" style="fill:none; clip-path:url(#clipPath1); stroke:rgb(0,0,127);" />
      <polygon style="fill:rgb(0,0,127); clip-path:url(#clipPath54); stroke:none;" points=" 509 698 514 688 509 698 504 688 509 698" />
      <polygon style="fill:none; clip-path:url(#clipPath54); stroke:rgb(0,0,127);" points=" 509 698 514 688 509 698 504 688 509 698" />
      <text x="0" y="13" transform="translate(522,662)" style="font-size:13; clip-path:url(#clipPath48); fill:black; stroke:none;" xml:space="preserve">[nein]</text>
      <path d="M509 577 L510 700" style="fill:none; clip-path:url(#clipPath1); stroke:rgb(0,0,127);" />
      <polygon style="fill:rgb(0,0,127); clip-path:url(#clipPath54); stroke:none;" points=" 509 698 514 688 509 698 504 688 509 698" />
      <polygon style="fill:none; clip-path:url(#clipPath54); stroke:rgb(0,0,127);" points=" 509 698 514 688 509 698 504 688 509 698" />
      <text x="0" y="13" transform="translate(522,662)" style="font-size:13; clip-path:url(#clipPath48); fill:black; stroke:none;" xml:space="preserve">[nein]</text>
      <path d="M528 723 L640 723" style="fill:none; clip-path:url(#clipPath1); stroke:rgb(0,0,127);" />
      <polygon style="fill:rgb(0,0,127); clip-path:url(#clipPath55); stroke:none;" points=" 639 723 629 718 639 723 629 728 639 723" />
      <polygon style="fill:none; clip-path:url(#clipPath55); stroke:rgb(0,0,127);" points=" 639 723 629 718 639 723 629 728 639 723" />
      <text x="0" y="13" transform="translate(582,702)" style="font-size:13; clip-path:url(#clipPath44); fill:black; stroke:none;" xml:space="preserve">[ja]</text>
      <path d="M528 723 L640 723" style="fill:none; clip-path:url(#clipPath1); stroke:rgb(0,0,127);" />
      <polygon style="fill:rgb(0,0,127); clip-path:url(#clipPath55); stroke:none;" points=" 639 723 629 718 639 723 629 728 639 723" />
      <polygon style="fill:none; clip-path:url(#clipPath55); stroke:rgb(0,0,127);" points=" 639 723 629 718 639 723 629 728 639 723" />
      <text x="0" y="13" transform="translate(582,702)" style="font-size:13; clip-path:url(#clipPath44); fill:black; stroke:none;" xml:space="preserve">[ja]</text>
      <path d="M490 720 L90 720 L89 151" style="fill:none; clip-path:url(#clipPath1); stroke:rgb(0,0,127);" />
      <polygon style="fill:rgb(0,0,127); clip-path:url(#clipPath56); stroke:none;" points=" 89 152 84 162 89 152 94 162 89 152" />
      <polygon style="fill:none; clip-path:url(#clipPath56); stroke:rgb(0,0,127);" points=" 89 152 84 162 89 152 94 162 89 152" />
      <text x="0" y="13" transform="translate(402,702)" style="font-size:13; clip-path:url(#clipPath48); fill:black; stroke:none;" xml:space="preserve">[nein]</text>
      <path d="M490 720 L90 720 L89 151" style="fill:none; clip-path:url(#clipPath1); stroke:rgb(0,0,127);" />
      <polygon style="fill:rgb(0,0,127); clip-path:url(#clipPath56); stroke:none;" points=" 89 152 84 162 89 152 94 162 89 152" />
      <polygon style="fill:none; clip-path:url(#clipPath56); stroke:rgb(0,0,127);" points=" 89 152 84 162 89 152 94 162 89 152" />
      <text x="0" y="13" transform="translate(402,702)" style="font-size:13; clip-path:url(#clipPath48); fill:black; stroke:none;" xml:space="preserve">[nein]</text>
      <path d="M539 563 L560 563 L560 323 L622 322" style="fill:none; clip-path:url(#clipPath1); stroke:rgb(0,0,127);" />
      <polygon style="fill:rgb(0,0,127); clip-path:url(#clipPath57); stroke:none;" points=" 620 322 610 317 620 322 610 327 620 322" />
      <polygon style="fill:none; clip-path:url(#clipPath57); stroke:rgb(0,0,127);" points=" 620 322 610 317 620 322 610 327 620 322" />
      <text x="0" y="13" transform="translate(562,342)" style="font-size:13; clip-path:url(#clipPath44); fill:black; stroke:none;" xml:space="preserve">[ja]</text>
      <path d="M539 563 L560 563 L560 323 L622 322" style="fill:none; clip-path:url(#clipPath1); stroke:rgb(0,0,127);" />
      <polygon style="fill:rgb(0,0,127); clip-path:url(#clipPath57); stroke:none;" points=" 620 322 610 317 620 322 610 327 620 322" />
      <polygon style="fill:none; clip-path:url(#clipPath57); stroke:rgb(0,0,127);" points=" 620 322 610 317 620 322 610 327 620 322" />
      <text x="0" y="13" transform="translate(562,342)" style="font-size:13; clip-path:url(#clipPath44); fill:black; stroke:none;" xml:space="preserve">[ja]</text>
      <path d="M650 337 L650 400" style="fill:none; clip-path:url(#clipPath1); stroke:rgb(0,0,127);" />
      <polygon style="fill:rgb(0,0,127); clip-path:url(#clipPath58); stroke:none;" points=" 649 399 654 389 649 399 644 389 649 399" />
      <polygon style="fill:none; clip-path:url(#clipPath58); stroke:rgb(0,0,127);" points=" 649 399 654 389 649 399 644 389 649 399" />
      <path d="M650 337 L650 400" style="fill:none; clip-path:url(#clipPath1); stroke:rgb(0,0,127);" />
      <polygon style="fill:rgb(0,0,127); clip-path:url(#clipPath58); stroke:none;" points=" 649 399 654 389 649 399 644 389 649 399" />
      <polygon style="fill:none; clip-path:url(#clipPath58); stroke:rgb(0,0,127);" points=" 649 399 654 389 649 399 644 389 649 399" />
      <path d="M119 135 L220 135" style="fill:none; clip-path:url(#clipPath1); stroke:rgb(0,0,127);" />
      <polygon style="fill:rgb(0,0,127); clip-path:url(#clipPath59); stroke:none;" points=" 219 135 209 130 219 135 209 140 219 135" />
      <polygon style="fill:none; clip-path:url(#clipPath59); stroke:rgb(0,0,127);" points=" 219 135 209 130 219 135 209 140 219 135" />
      <path d="M119 135 L220 135" style="fill:none; clip-path:url(#clipPath1); stroke:rgb(0,0,127);" />
      <polygon style="fill:rgb(0,0,127); clip-path:url(#clipPath59); stroke:none;" points=" 219 135 209 130 219 135 209 140 219 135" />
      <polygon style="fill:none; clip-path:url(#clipPath59); stroke:rgb(0,0,127);" points=" 219 135 209 130 219 135 209 140 219 135" />
    </g>
  </g>
</svg>
