<?xml version="1.0" encoding="UTF-8"?>

<!DOCTYPE svg PUBLIC '-//W3C//DTD SVG 1.0//EN' 'http://www.w3.org/TR/2001/REC-SVG-20010904/DTD/svg10.dtd'>
<svg style="fill-opacity:1; color-rendering:auto; color-interpolation:auto; text-rendering:auto; stroke:black; stroke-linecap:square; stroke-miterlimit:10; shape-rendering:auto; stroke-opacity:1; fill:black; stroke-dasharray:none; font-weight:normal; stroke-width:1; font-family:&apos;Dialog&apos;; font-style:normal; stroke-linejoin:miter; font-size:12; stroke-dashoffset:0; image-rendering:auto;" xmlns="http://www.w3.org/2000/svg" width="1323" xmlns:xlink="http://www.w3.org/1999/xlink" height="854">
  <!--Generated by Selena using Batik-->
  <defs id="genericDefs" />
  <g>
    <defs id="defs1">
      <clipPath clipPathUnits="userSpaceOnUse" id="clipPath1">
        <path d="M0 0 L12000 0 L12000 12000 L0 12000 L0 0 Z" />
      </clipPath>
      <clipPath clipPathUnits="userSpaceOnUse" id="clipPath2">
        <path d="M195 35 L195 841 L1081 841 L1081 35 Z" />
      </clipPath>
      <clipPath clipPathUnits="userSpaceOnUse" id="clipPath3">
        <path d="M361 0 L361 15 L514 15 L514 0 Z" />
      </clipPath>
      <clipPath clipPathUnits="userSpaceOnUse" id="clipPath4">
        <path d="M220 56 L220 838 L459 838 L459 56 Z" />
      </clipPath>
      <clipPath clipPathUnits="userSpaceOnUse" id="clipPath5">
        <path d="M220 56 L220 71 L459 71 L459 56 Z" />
      </clipPath>
      <clipPath clipPathUnits="userSpaceOnUse" id="clipPath6">
        <path d="M92 0 L92 15 L137 15 L137 0 Z" />
      </clipPath>
      <clipPath clipPathUnits="userSpaceOnUse" id="clipPath7">
        <path d="M240 100 L240 130 L320 130 L320 100 Z" />
      </clipPath>
      <clipPath clipPathUnits="userSpaceOnUse" id="clipPath8">
        <path d="M380 100 L380 130 L440 130 L440 100 Z" />
      </clipPath>
      <clipPath clipPathUnits="userSpaceOnUse" id="clipPath9">
        <path d="M9 0 L9 15 L60 15 L60 0 Z" />
      </clipPath>
      <clipPath clipPathUnits="userSpaceOnUse" id="clipPath10">
        <path d="M3 0 L3 15 L7 15 L7 0 Z" />
      </clipPath>
      <clipPath clipPathUnits="userSpaceOnUse" id="clipPath11">
        <path d="M480 56 L480 838 L1061 838 L1061 56 Z" />
      </clipPath>
      <clipPath clipPathUnits="userSpaceOnUse" id="clipPath12">
        <path d="M480 56 L480 71 L1061 71 L1061 56 Z" />
      </clipPath>
      <clipPath clipPathUnits="userSpaceOnUse" id="clipPath13">
        <path d="M195 0 L195 15 L375 15 L375 0 Z" />
      </clipPath>
      <clipPath clipPathUnits="userSpaceOnUse" id="clipPath14">
        <path d="M980 120 L980 135 L995 135 L995 120 Z" />
      </clipPath>
      <clipPath clipPathUnits="userSpaceOnUse" id="clipPath15">
        <path d="M580 96 L580 160 L701 160 L701 96 Z" />
      </clipPath>
      <clipPath clipPathUnits="userSpaceOnUse" id="clipPath16">
        <path d="M740 300 L740 361 L861 361 L861 300 Z" />
      </clipPath>
      <clipPath clipPathUnits="userSpaceOnUse" id="clipPath17">
        <path d="M740 400 L740 481 L861 481 L861 400 Z" />
      </clipPath>
      <clipPath clipPathUnits="userSpaceOnUse" id="clipPath18">
        <path d="M740 519 L740 560 L861 560 L861 519 Z" />
      </clipPath>
      <clipPath clipPathUnits="userSpaceOnUse" id="clipPath19">
        <path d="M870 760 L870 821 L981 821 L981 760 Z" />
      </clipPath>
      <clipPath clipPathUnits="userSpaceOnUse" id="clipPath20">
        <path d="M1030 782 L1030 800 L1048 800 L1048 782 Z" />
      </clipPath>
      <clipPath clipPathUnits="userSpaceOnUse" id="clipPath21">
        <path d="M580 180 L580 265 L701 265 L701 180 Z" />
      </clipPath>
      <clipPath clipPathUnits="userSpaceOnUse" id="clipPath22">
        <path d="M771 580 L771 610 L831 610 L831 580 Z" />
      </clipPath>
      <clipPath clipPathUnits="userSpaceOnUse" id="clipPath23">
        <path d="M771 640 L771 670 L831 670 L831 640 Z" />
      </clipPath>
      <clipPath clipPathUnits="userSpaceOnUse" id="clipPath24">
        <path d="M771 720 L771 750 L831 750 L831 720 Z" />
      </clipPath>
      <clipPath clipPathUnits="userSpaceOnUse" id="clipPath25">
        <path d="M896 113 L896 143 L956 143 L956 113 Z" />
      </clipPath>
      <clipPath clipPathUnits="userSpaceOnUse" id="clipPath26">
        <path d="M500 420 L500 450 L560 450 L560 420 Z" />
      </clipPath>
      <clipPath clipPathUnits="userSpaceOnUse" id="clipPath27">
        <path d="M19 0 L19 45 L92 45 L92 0 Z" />
      </clipPath>
      <clipPath clipPathUnits="userSpaceOnUse" id="clipPath28">
        <path d="M18 0 L18 45 L92 45 L92 0 Z" />
      </clipPath>
      <clipPath clipPathUnits="userSpaceOnUse" id="clipPath29">
        <path d="M21 0 L21 60 L90 60 L90 0 Z" />
      </clipPath>
      <clipPath clipPathUnits="userSpaceOnUse" id="clipPath30">
        <path d="M0 0 L0 30 L111 30 L111 0 Z" />
      </clipPath>
      <clipPath clipPathUnits="userSpaceOnUse" id="clipPath31">
        <path d="M13 0 L13 30 L88 30 L88 0 Z" />
      </clipPath>
      <clipPath clipPathUnits="userSpaceOnUse" id="clipPath32">
        <path d="M1033 785 L1033 797 L1045 797 L1045 785 Z" />
      </clipPath>
      <clipPath clipPathUnits="userSpaceOnUse" id="clipPath33">
        <path d="M5 0 L5 60 L106 60 L106 0 Z" />
      </clipPath>
      <clipPath clipPathUnits="userSpaceOnUse" id="clipPath34">
        <path d="M4 0 L4 30 L197 30 L197 0 Z" />
      </clipPath>
      <clipPath clipPathUnits="userSpaceOnUse" id="clipPath35">
        <path d="M0 0 L0 15 L194 15 L194 0 Z" />
      </clipPath>
      <clipPath clipPathUnits="userSpaceOnUse" id="clipPath36">
        <path d="M2 0 L2 30 L119 30 L119 0 Z" />
      </clipPath>
      <clipPath clipPathUnits="userSpaceOnUse" id="clipPath37">
        <path d="M1019 786 L1019 797 L1030 797 L1030 786 Z" />
      </clipPath>
      <clipPath clipPathUnits="userSpaceOnUse" id="clipPath38">
        <path d="M792 389 L792 400 L803 400 L803 389 Z" />
      </clipPath>
      <clipPath clipPathUnits="userSpaceOnUse" id="clipPath39">
        <path d="M794 508 L794 519 L805 519 L805 508 Z" />
      </clipPath>
      <clipPath clipPathUnits="userSpaceOnUse" id="clipPath40">
        <path d="M439 110 L439 121 L450 121 L450 110 Z" />
      </clipPath>
      <clipPath clipPathUnits="userSpaceOnUse" id="clipPath41">
        <path d="M404 130 L404 141 L415 141 L415 130 Z" />
      </clipPath>
      <clipPath clipPathUnits="userSpaceOnUse" id="clipPath42">
        <path d="M321 109 L321 120 L332 120 L332 109 Z" />
      </clipPath>
      <clipPath clipPathUnits="userSpaceOnUse" id="clipPath43">
        <path d="M859 785 L859 796 L870 796 L870 785 Z" />
      </clipPath>
      <clipPath clipPathUnits="userSpaceOnUse" id="clipPath44">
        <path d="M0 0 L0 15 L22 15 L22 0 Z" />
      </clipPath>
      <clipPath clipPathUnits="userSpaceOnUse" id="clipPath45">
        <path d="M955 123 L955 134 L966 134 L966 123 Z" />
      </clipPath>
      <clipPath clipPathUnits="userSpaceOnUse" id="clipPath46">
        <path d="M702 122 L702 133 L713 133 L713 122 Z" />
      </clipPath>
      <clipPath clipPathUnits="userSpaceOnUse" id="clipPath47">
        <path d="M935 135 L935 146 L946 146 L946 135 Z" />
      </clipPath>
      <clipPath clipPathUnits="userSpaceOnUse" id="clipPath48">
        <path d="M0 0 L0 15 L38 15 L38 0 Z" />
      </clipPath>
      <clipPath clipPathUnits="userSpaceOnUse" id="clipPath49">
        <path d="M701 194 L701 205 L712 205 L712 194 Z" />
      </clipPath>
      <clipPath clipPathUnits="userSpaceOnUse" id="clipPath50">
        <path d="M795 569 L795 580 L806 580 L806 569 Z" />
      </clipPath>
      <clipPath clipPathUnits="userSpaceOnUse" id="clipPath51">
        <path d="M799 629 L799 640 L810 640 L810 629 Z" />
      </clipPath>
      <clipPath clipPathUnits="userSpaceOnUse" id="clipPath52">
        <path d="M795 708 L795 719 L806 719 L806 708 Z" />
      </clipPath>
      <clipPath clipPathUnits="userSpaceOnUse" id="clipPath53">
        <path d="M729 325 L729 336 L740 336 L740 325 Z" />
      </clipPath>
      <clipPath clipPathUnits="userSpaceOnUse" id="clipPath54">
        <path d="M0 0 L0 15 L125 15 L125 0 Z" />
      </clipPath>
      <clipPath clipPathUnits="userSpaceOnUse" id="clipPath55">
        <path d="M729 535 L729 546 L740 546 L740 535 Z" />
      </clipPath>
      <clipPath clipPathUnits="userSpaceOnUse" id="clipPath56">
        <path d="M0 0 L0 15 L171 15 L171 0 Z" />
      </clipPath>
      <clipPath clipPathUnits="userSpaceOnUse" id="clipPath57">
        <path d="M770 595 L770 606 L781 606 L781 595 Z" />
      </clipPath>
      <clipPath clipPathUnits="userSpaceOnUse" id="clipPath58">
        <path d="M489 429 L489 440 L500 440 L500 429 Z" />
      </clipPath>
    </defs>
    <g style="fill:white; stroke:white;">
      <rect x="0" y="0" width="1323" style="clip-path:url(#clipPath1); stroke:none;" height="854" />
      <rect x="0" y="0" width="1322" style="clip-path:url(#clipPath1); fill:none; stroke:blue;" height="853" />
      <rect x="195" y="35" width="886" style="clip-path:url(#clipPath2); stroke:none;" rx="4" ry="4" height="806" />
      <rect x="195" y="35" width="885" style="clip-path:url(#clipPath2); fill:none; stroke:black;" rx="4" ry="4" height="805" />
      <text x="361" y="13" transform="translate(200,35)" style="font-size:13; clip-path:url(#clipPath3); fill:black; stroke:none;" xml:space="preserve">Startspieler bestimmen</text>
      <rect x="220" y="56" width="239" style="clip-path:url(#clipPath4); stroke:none;" height="782" />
      <rect x="220" y="56" width="238" style="clip-path:url(#clipPath4); fill:none; stroke:black;" height="781" />
      <rect x="220" y="56" width="239" style="clip-path:url(#clipPath5); stroke:none;" height="15" />
      <rect x="220" y="56" width="238" style="clip-path:url(#clipPath5); fill:none; stroke:black;" height="14" />
      <text x="92" y="13" transform="translate(225,56)" style="font-size:13; clip-path:url(#clipPath6); fill:black; stroke:none;" xml:space="preserve">Spieler</text>
      <rect x="240" y="100" transform="translate(3,3)" width="80" style="clip-path:url(#clipPath7); fill:rgb(153,153,153); stroke:none;" rx="4" ry="4" height="30" />
      <rect x="240" y="100" transform="translate(3,3)" width="79" style="clip-path:url(#clipPath7); fill:none; stroke:rgb(153,153,153);" rx="4" ry="4" height="29" />
      <polygon points=" 380 114 409 100 439 114 409 129 380 114" transform="translate(3,3)" style="fill:rgb(153,153,153); clip-path:url(#clipPath8); stroke:none;" />
      <polygon points=" 380 114 409 100 439 114 409 129 380 114" transform="translate(3,3)" style="fill:none; clip-path:url(#clipPath8); stroke:rgb(153,153,153);" />
      <rect x="240" y="100" width="80" style="clip-path:url(#clipPath7); stroke:none;" rx="4" ry="4" height="30" />
      <rect x="240" y="100" width="79" style="clip-path:url(#clipPath7); fill:none; stroke:black;" rx="4" ry="4" height="29" />
      <text x="9" y="13" transform="translate(245,107)" style="font-size:13; clip-path:url(#clipPath9); fill:black; stroke:none;" xml:space="preserve">Würfeln</text>
      <polygon style="clip-path:url(#clipPath8); stroke:none;" points=" 380 114 409 100 439 114 409 129 380 114" />
      <polygon style="fill:none; clip-path:url(#clipPath8); stroke:black;" points=" 380 114 409 100 439 114 409 129 380 114" />
      <text x="3" y="13" transform="translate(405,140)" style="font-size:13; clip-path:url(#clipPath10); fill:black; stroke:none;" xml:space="preserve"> </text>
      <rect x="480" y="56" width="581" style="clip-path:url(#clipPath11); stroke:none;" height="782" />
      <rect x="480" y="56" width="580" style="clip-path:url(#clipPath11); fill:none; stroke:black;" height="781" />
      <rect x="480" y="56" width="581" style="clip-path:url(#clipPath12); stroke:none;" height="15" />
      <rect x="480" y="56" width="580" style="clip-path:url(#clipPath12); fill:none; stroke:black;" height="14" />
      <text x="195" y="13" transform="translate(485,56)" style="font-size:13; clip-path:url(#clipPath13); fill:black; stroke:none;" xml:space="preserve">Path of Enlightenment Spiel</text>
      <circle transform="translate(3,3)" style="clip-path:url(#clipPath14); fill:rgb(153,153,153); stroke:none;" r="7" cx="987" cy="127" />
      <circle transform="translate(3,3)" style="clip-path:url(#clipPath14); fill:none; stroke:rgb(153,153,153);" r="7" cx="987" cy="127" />
      <rect x="580" y="96" transform="translate(3,3)" width="121" style="clip-path:url(#clipPath15); fill:rgb(153,153,153); stroke:none;" rx="4" ry="4" height="64" />
      <rect x="580" y="96" transform="translate(3,3)" width="120" style="clip-path:url(#clipPath15); fill:none; stroke:rgb(153,153,153);" rx="4" ry="4" height="63" />
      <rect x="740" y="300" transform="translate(3,3)" width="121" style="clip-path:url(#clipPath16); fill:rgb(153,153,153); stroke:none;" rx="4" ry="4" height="61" />
      <rect x="740" y="300" transform="translate(3,3)" width="120" style="clip-path:url(#clipPath16); fill:none; stroke:rgb(153,153,153);" rx="4" ry="4" height="60" />
      <rect x="740" y="400" transform="translate(3,3)" width="121" style="clip-path:url(#clipPath17); fill:rgb(153,153,153); stroke:none;" rx="4" ry="4" height="81" />
      <rect x="740" y="400" transform="translate(3,3)" width="120" style="clip-path:url(#clipPath17); fill:none; stroke:rgb(153,153,153);" rx="4" ry="4" height="80" />
      <rect x="740" y="519" transform="translate(3,3)" width="121" style="clip-path:url(#clipPath18); fill:rgb(153,153,153); stroke:none;" rx="4" ry="4" height="41" />
      <rect x="740" y="519" transform="translate(3,3)" width="120" style="clip-path:url(#clipPath18); fill:none; stroke:rgb(153,153,153);" rx="4" ry="4" height="40" />
      <rect x="870" y="760" transform="translate(3,3)" width="111" style="clip-path:url(#clipPath19); fill:rgb(153,153,153); stroke:none;" rx="4" ry="4" height="61" />
      <rect x="870" y="760" transform="translate(3,3)" width="110" style="clip-path:url(#clipPath19); fill:none; stroke:rgb(153,153,153);" rx="4" ry="4" height="60" />
      <circle transform="translate(3,3)" style="clip-path:url(#clipPath20); fill:rgb(153,153,153); stroke:none;" r="8.5" cx="1038.5" cy="790.5" />
      <circle transform="translate(3,3)" style="clip-path:url(#clipPath20); fill:none; stroke:rgb(153,153,153);" r="8.5" cx="1038.5" cy="790.5" />
      <rect x="580" y="180" transform="translate(3,3)" width="121" style="clip-path:url(#clipPath21); fill:rgb(153,153,153); stroke:none;" rx="4" ry="4" height="85" />
      <rect x="580" y="180" transform="translate(3,3)" width="120" style="clip-path:url(#clipPath21); fill:none; stroke:rgb(153,153,153);" rx="4" ry="4" height="84" />
      <polygon points=" 771 594 800 580 830 594 800 609 771 594" transform="translate(3,3)" style="fill:rgb(153,153,153); clip-path:url(#clipPath22); stroke:none;" />
      <polygon points=" 771 594 800 580 830 594 800 609 771 594" transform="translate(3,3)" style="fill:none; clip-path:url(#clipPath22); stroke:rgb(153,153,153);" />
      <polygon points=" 771 654 800 640 830 654 800 669 771 654" transform="translate(3,3)" style="fill:rgb(153,153,153); clip-path:url(#clipPath23); stroke:none;" />
      <polygon points=" 771 654 800 640 830 654 800 669 771 654" transform="translate(3,3)" style="fill:none; clip-path:url(#clipPath23); stroke:rgb(153,153,153);" />
      <polygon points=" 771 734 800 720 830 734 800 749 771 734" transform="translate(3,3)" style="fill:rgb(153,153,153); clip-path:url(#clipPath24); stroke:none;" />
      <polygon points=" 771 734 800 720 830 734 800 749 771 734" transform="translate(3,3)" style="fill:none; clip-path:url(#clipPath24); stroke:rgb(153,153,153);" />
      <polygon points=" 896 127 925 113 955 127 925 142 896 127" transform="translate(3,3)" style="fill:rgb(153,153,153); clip-path:url(#clipPath25); stroke:none;" />
      <polygon points=" 896 127 925 113 955 127 925 142 896 127" transform="translate(3,3)" style="fill:none; clip-path:url(#clipPath25); stroke:rgb(153,153,153);" />
      <polygon points=" 500 434 529 420 559 434 529 449 500 434" transform="translate(3,3)" style="fill:rgb(153,153,153); clip-path:url(#clipPath26); stroke:none;" />
      <polygon points=" 500 434 529 420 559 434 529 449 500 434" transform="translate(3,3)" style="fill:none; clip-path:url(#clipPath26); stroke:rgb(153,153,153);" />
      <circle style="clip-path:url(#clipPath14); fill:black; stroke:none;" r="7" cx="987" cy="127" />
      <circle style="clip-path:url(#clipPath14); fill:none; stroke:black;" r="7" cx="987" cy="127" />
      <rect x="580" y="96" width="121" style="clip-path:url(#clipPath15); stroke:none;" rx="4" ry="4" height="64" />
      <rect x="580" y="96" width="120" style="clip-path:url(#clipPath15); fill:none; stroke:black;" rx="4" ry="4" height="63" />
      <text x="19" y="13" transform="translate(585,105)" style="font-size:13; clip-path:url(#clipPath27); fill:black; stroke:none;" xml:space="preserve">Spieler aus</text>
      <text x="19" y="28" transform="translate(585,105)" style="font-size:13; clip-path:url(#clipPath27); fill:black; stroke:none;" xml:space="preserve">Spielerliste</text>
      <text x="20" y="43" transform="translate(585,105)" style="font-size:13; clip-path:url(#clipPath27); fill:black; stroke:none;" xml:space="preserve">auswählen</text>
      <rect x="740" y="300" width="121" style="clip-path:url(#clipPath16); stroke:none;" rx="4" ry="4" height="61" />
      <rect x="740" y="300" width="120" style="clip-path:url(#clipPath16); fill:none; stroke:black;" rx="4" ry="4" height="60" />
      <text x="34" y="13" transform="translate(745,308)" style="font-size:13; clip-path:url(#clipPath28); fill:black; stroke:none;" xml:space="preserve">Neuen</text>
      <text x="18" y="28" transform="translate(745,308)" style="font-size:13; clip-path:url(#clipPath28); fill:black; stroke:none;" xml:space="preserve">Höchstwert</text>
      <text x="30" y="43" transform="translate(745,308)" style="font-size:13; clip-path:url(#clipPath28); fill:black; stroke:none;" xml:space="preserve">merken</text>
      <rect x="740" y="400" width="121" style="clip-path:url(#clipPath17); stroke:none;" rx="4" ry="4" height="81" />
      <rect x="740" y="400" width="120" style="clip-path:url(#clipPath17); fill:none; stroke:black;" rx="4" ry="4" height="80" />
      <text x="21" y="13" transform="translate(745,410)" style="font-size:13; clip-path:url(#clipPath29); fill:black; stroke:none;" xml:space="preserve">Alle bisher</text>
      <text x="24" y="28" transform="translate(745,410)" style="font-size:13; clip-path:url(#clipPath29); fill:black; stroke:none;" xml:space="preserve">gemerkte</text>
      <text x="33" y="43" transform="translate(745,410)" style="font-size:13; clip-path:url(#clipPath29); fill:black; stroke:none;" xml:space="preserve">Spieler</text>
      <text x="22" y="58" transform="translate(745,410)" style="font-size:13; clip-path:url(#clipPath29); fill:black; stroke:none;" xml:space="preserve">vergessen</text>
      <rect x="740" y="519" width="121" style="clip-path:url(#clipPath18); stroke:none;" rx="4" ry="4" height="41" />
      <rect x="740" y="519" width="120" style="clip-path:url(#clipPath18); fill:none; stroke:black;" rx="4" ry="4" height="40" />
      <text x="0" y="13" transform="translate(745,524)" style="font-size:13; clip-path:url(#clipPath30); fill:black; stroke:none;" xml:space="preserve">Aktuellen Spieler</text>
      <text x="30" y="28" transform="translate(745,524)" style="font-size:13; clip-path:url(#clipPath30); fill:black; stroke:none;" xml:space="preserve">merken</text>
      <rect x="870" y="760" width="111" style="clip-path:url(#clipPath19); stroke:none;" rx="4" ry="4" height="61" />
      <rect x="870" y="760" width="110" style="clip-path:url(#clipPath19); fill:none; stroke:black;" rx="4" ry="4" height="60" />
      <text x="13" y="13" transform="translate(875,775)" style="font-size:13; clip-path:url(#clipPath31); fill:black; stroke:none;" xml:space="preserve">Startspieler</text>
      <text x="20" y="28" transform="translate(875,775)" style="font-size:13; clip-path:url(#clipPath31); fill:black; stroke:none;" xml:space="preserve">festlegen</text>
      <circle style="clip-path:url(#clipPath20); stroke:none;" r="8.5" cx="1038.5" cy="790.5" />
      <circle style="clip-path:url(#clipPath20); fill:none; stroke:black;" r="8.5" cx="1038.5" cy="790.5" />
      <circle style="clip-path:url(#clipPath32); fill:black; stroke:none;" r="5.5" cx="1038.5" cy="790.5" />
      <rect x="580" y="180" width="121" style="clip-path:url(#clipPath21); stroke:none;" rx="4" ry="4" height="85" />
      <rect x="580" y="180" width="120" style="clip-path:url(#clipPath21); fill:none; stroke:black;" rx="4" ry="4" height="84" />
      <text x="5" y="13" transform="translate(585,192)" style="font-size:13; clip-path:url(#clipPath33); fill:black; stroke:none;" xml:space="preserve">Spieler von den</text>
      <text x="20" y="28" transform="translate(585,192)" style="font-size:13; clip-path:url(#clipPath33); fill:black; stroke:none;" xml:space="preserve">gemerkten</text>
      <text x="29" y="43" transform="translate(585,192)" style="font-size:13; clip-path:url(#clipPath33); fill:black; stroke:none;" xml:space="preserve">Spielern</text>
      <text x="20" y="58" transform="translate(585,192)" style="font-size:13; clip-path:url(#clipPath33); fill:black; stroke:none;" xml:space="preserve">auswählen</text>
      <polygon style="clip-path:url(#clipPath22); stroke:none;" points=" 771 594 800 580 830 594 800 609 771 594" />
      <polygon style="fill:none; clip-path:url(#clipPath22); stroke:black;" points=" 771 594 800 580 830 594 800 609 771 594" />
      <text x="3" y="13" transform="translate(796,620)" style="font-size:13; clip-path:url(#clipPath10); fill:black; stroke:none;" xml:space="preserve"> </text>
      <polygon style="clip-path:url(#clipPath23); stroke:none;" points=" 771 654 800 640 830 654 800 669 771 654" />
      <polygon style="fill:none; clip-path:url(#clipPath23); stroke:black;" points=" 771 654 800 640 830 654 800 669 771 654" />
      <text x="4" y="13" transform="translate(570,640)" style="font-size:13; clip-path:url(#clipPath34); fill:black; stroke:none;" xml:space="preserve">Haben alle Spieler min. 1 mal</text>
      <text x="66" y="28" transform="translate(570,640)" style="font-size:13; clip-path:url(#clipPath34); fill:black; stroke:none;" xml:space="preserve">gewürfelt?</text>
      <polygon style="clip-path:url(#clipPath24); stroke:none;" points=" 771 734 800 720 830 734 800 749 771 734" />
      <polygon style="fill:none; clip-path:url(#clipPath24); stroke:black;" points=" 771 734 800 720 830 734 800 749 771 734" />
      <text x="0" y="13" transform="translate(570,727)" style="font-size:13; clip-path:url(#clipPath35); fill:black; stroke:none;" xml:space="preserve">Wurde nur 1 Spieler gemerkt?</text>
      <polygon style="clip-path:url(#clipPath25); stroke:none;" points=" 896 127 925 113 955 127 925 142 896 127" />
      <polygon style="fill:none; clip-path:url(#clipPath25); stroke:black;" points=" 896 127 925 113 955 127 925 142 896 127" />
      <text x="3" y="13" transform="translate(921,153)" style="font-size:13; clip-path:url(#clipPath10); fill:black; stroke:none;" xml:space="preserve"> </text>
      <polygon style="clip-path:url(#clipPath26); stroke:none;" points=" 500 434 529 420 559 434 529 449 500 434" />
      <polygon style="fill:none; clip-path:url(#clipPath26); stroke:black;" points=" 500 434 529 420 559 434 529 449 500 434" />
      <text x="2" y="13" transform="translate(559,418)" style="font-size:13; clip-path:url(#clipPath36); fill:black; stroke:none;" xml:space="preserve">Neuer Höchstwert</text>
      <text x="26" y="28" transform="translate(559,418)" style="font-size:13; clip-path:url(#clipPath36); fill:black; stroke:none;" xml:space="preserve">gewürfelt?</text>
      <path d="M981 791 L1030 791" style="fill:none; clip-path:url(#clipPath1); stroke:rgb(0,0,127);" />
      <polygon style="fill:rgb(0,0,127); clip-path:url(#clipPath37); stroke:none;" points=" 1029 791 1019 786 1029 791 1019 796 1029 791" />
      <polygon style="fill:none; clip-path:url(#clipPath37); stroke:rgb(0,0,127);" points=" 1029 791 1019 786 1029 791 1019 796 1029 791" />
      <path d="M981 791 L1030 791" style="fill:none; clip-path:url(#clipPath1); stroke:rgb(0,0,127);" />
      <polygon style="fill:rgb(0,0,127); clip-path:url(#clipPath37); stroke:none;" points=" 1029 791 1019 786 1029 791 1019 796 1029 791" />
      <polygon style="fill:none; clip-path:url(#clipPath37); stroke:rgb(0,0,127);" points=" 1029 791 1019 786 1029 791 1019 796 1029 791" />
      <path d="M797 361 L797 400" style="fill:none; clip-path:url(#clipPath1); stroke:rgb(0,0,127);" />
      <polygon style="fill:rgb(0,0,127); clip-path:url(#clipPath38); stroke:none;" points=" 797 399 802 389 797 399 792 389 797 399" />
      <polygon style="fill:none; clip-path:url(#clipPath38); stroke:rgb(0,0,127);" points=" 797 399 802 389 797 399 792 389 797 399" />
      <path d="M797 361 L797 400" style="fill:none; clip-path:url(#clipPath1); stroke:rgb(0,0,127);" />
      <polygon style="fill:rgb(0,0,127); clip-path:url(#clipPath38); stroke:none;" points=" 797 399 802 389 797 399 792 389 797 399" />
      <polygon style="fill:none; clip-path:url(#clipPath38); stroke:rgb(0,0,127);" points=" 797 399 802 389 797 399 792 389 797 399" />
      <path d="M799 481 L799 519" style="fill:none; clip-path:url(#clipPath1); stroke:rgb(0,0,127);" />
      <polygon style="fill:rgb(0,0,127); clip-path:url(#clipPath39); stroke:none;" points=" 799 518 804 508 799 518 794 508 799 518" />
      <polygon style="fill:none; clip-path:url(#clipPath39); stroke:rgb(0,0,127);" points=" 799 518 804 508 799 518 794 508 799 518" />
      <path d="M799 481 L799 519" style="fill:none; clip-path:url(#clipPath1); stroke:rgb(0,0,127);" />
      <polygon style="fill:rgb(0,0,127); clip-path:url(#clipPath39); stroke:none;" points=" 799 518 804 508 799 518 794 508 799 518" />
      <polygon style="fill:none; clip-path:url(#clipPath39); stroke:rgb(0,0,127);" points=" 799 518 804 508 799 518 794 508 799 518" />
      <path d="M580 115 L439 115" style="fill:none; clip-path:url(#clipPath1); stroke:rgb(0,0,127);" />
      <polygon style="fill:rgb(0,0,127); clip-path:url(#clipPath40); stroke:none;" points=" 439 115 449 120 439 115 449 110 439 115" />
      <polygon style="fill:none; clip-path:url(#clipPath40); stroke:rgb(0,0,127);" points=" 439 115 449 120 439 115 449 110 439 115" />
      <path d="M580 115 L439 115" style="fill:none; clip-path:url(#clipPath1); stroke:rgb(0,0,127);" />
      <polygon style="fill:rgb(0,0,127); clip-path:url(#clipPath40); stroke:none;" points=" 439 115 449 120 439 115 449 110 439 115" />
      <polygon style="fill:none; clip-path:url(#clipPath40); stroke:rgb(0,0,127);" points=" 439 115 449 120 439 115 449 110 439 115" />
      <path d="M580 220 L410 220 L409 129" style="fill:none; clip-path:url(#clipPath1); stroke:rgb(0,0,127);" />
      <polygon style="fill:rgb(0,0,127); clip-path:url(#clipPath41); stroke:none;" points=" 409 130 404 140 409 130 414 140 409 130" />
      <polygon style="fill:none; clip-path:url(#clipPath41); stroke:rgb(0,0,127);" points=" 409 130 404 140 409 130 414 140 409 130" />
      <path d="M580 220 L410 220 L409 129" style="fill:none; clip-path:url(#clipPath1); stroke:rgb(0,0,127);" />
      <polygon style="fill:rgb(0,0,127); clip-path:url(#clipPath41); stroke:none;" points=" 409 130 404 140 409 130 414 140 409 130" />
      <polygon style="fill:none; clip-path:url(#clipPath41); stroke:rgb(0,0,127);" points=" 409 130 404 140 409 130 414 140 409 130" />
      <path d="M381 114 L320 115" style="fill:none; clip-path:url(#clipPath1); stroke:rgb(0,0,127);" />
      <polygon style="fill:rgb(0,0,127); clip-path:url(#clipPath42); stroke:none;" points=" 321 114 331 119 321 114 331 109 321 114" />
      <polygon style="fill:none; clip-path:url(#clipPath42); stroke:rgb(0,0,127);" points=" 321 114 331 119 321 114 331 109 321 114" />
      <path d="M381 114 L320 115" style="fill:none; clip-path:url(#clipPath1); stroke:rgb(0,0,127);" />
      <polygon style="fill:rgb(0,0,127); clip-path:url(#clipPath42); stroke:none;" points=" 321 114 331 119 321 114 331 109 321 114" />
      <polygon style="fill:none; clip-path:url(#clipPath42); stroke:rgb(0,0,127);" points=" 321 114 331 119 321 114 331 109 321 114" />
      <path d="M800 749 L800 790 L870 790" style="fill:none; clip-path:url(#clipPath1); stroke:rgb(0,0,127);" />
      <polygon style="fill:rgb(0,0,127); clip-path:url(#clipPath43); stroke:none;" points=" 869 790 859 785 869 790 859 795 869 790" />
      <polygon style="fill:none; clip-path:url(#clipPath43); stroke:rgb(0,0,127);" points=" 869 790 859 785 869 790 859 795 869 790" />
      <text x="0" y="13" transform="translate(802,762)" style="font-size:13; clip-path:url(#clipPath44); fill:black; stroke:none;" xml:space="preserve">[ja]</text>
      <path d="M800 749 L800 790 L870 790" style="fill:none; clip-path:url(#clipPath1); stroke:rgb(0,0,127);" />
      <polygon style="fill:rgb(0,0,127); clip-path:url(#clipPath43); stroke:none;" points=" 869 790 859 785 869 790 859 795 869 790" />
      <polygon style="fill:none; clip-path:url(#clipPath43); stroke:rgb(0,0,127);" points=" 869 790 859 785 869 790 859 795 869 790" />
      <text x="0" y="13" transform="translate(802,762)" style="font-size:13; clip-path:url(#clipPath44); fill:black; stroke:none;" xml:space="preserve">[ja]</text>
      <path d="M980 128 L955 128" style="fill:none; clip-path:url(#clipPath1); stroke:rgb(0,0,127);" />
      <polygon style="fill:rgb(0,0,127); clip-path:url(#clipPath45); stroke:none;" points=" 955 128 965 133 955 128 965 123 955 128" />
      <polygon style="fill:none; clip-path:url(#clipPath45); stroke:rgb(0,0,127);" points=" 955 128 965 133 955 128 965 123 955 128" />
      <path d="M980 128 L955 128" style="fill:none; clip-path:url(#clipPath1); stroke:rgb(0,0,127);" />
      <polygon style="fill:rgb(0,0,127); clip-path:url(#clipPath45); stroke:none;" points=" 955 128 965 133 955 128 965 123 955 128" />
      <polygon style="fill:none; clip-path:url(#clipPath45); stroke:rgb(0,0,127);" points=" 955 128 965 133 955 128 965 123 955 128" />
      <path d="M897 127 L701 128" style="fill:none; clip-path:url(#clipPath1); stroke:rgb(0,0,127);" />
      <polygon style="fill:rgb(0,0,127); clip-path:url(#clipPath46); stroke:none;" points=" 702 127 712 132 702 127 712 122 702 127" />
      <polygon style="fill:none; clip-path:url(#clipPath46); stroke:rgb(0,0,127);" points=" 702 127 712 132 702 127 712 122 702 127" />
      <path d="M897 127 L701 128" style="fill:none; clip-path:url(#clipPath1); stroke:rgb(0,0,127);" />
      <polygon style="fill:rgb(0,0,127); clip-path:url(#clipPath46); stroke:none;" points=" 702 127 712 132 702 127 712 122 702 127" />
      <polygon style="fill:none; clip-path:url(#clipPath46); stroke:rgb(0,0,127);" points=" 702 127 712 132 702 127 712 122 702 127" />
      <path d="M830 655 L940 655 L940 135" style="fill:none; clip-path:url(#clipPath1); stroke:rgb(0,0,127);" />
      <polygon style="fill:rgb(0,0,127); clip-path:url(#clipPath47); stroke:none;" points=" 940 135 935 145 940 135 945 145 940 135" />
      <polygon style="fill:none; clip-path:url(#clipPath47); stroke:rgb(0,0,127);" points=" 940 135 935 145 940 135 945 145 940 135" />
      <text x="0" y="13" transform="translate(882,642)" style="font-size:13; clip-path:url(#clipPath48); fill:black; stroke:none;" xml:space="preserve">[nein]</text>
      <path d="M830 655 L940 655 L940 135" style="fill:none; clip-path:url(#clipPath1); stroke:rgb(0,0,127);" />
      <polygon style="fill:rgb(0,0,127); clip-path:url(#clipPath47); stroke:none;" points=" 940 135 935 145 940 135 945 145 940 135" />
      <polygon style="fill:none; clip-path:url(#clipPath47); stroke:rgb(0,0,127);" points=" 940 135 935 145 940 135 945 145 940 135" />
      <text x="0" y="13" transform="translate(882,642)" style="font-size:13; clip-path:url(#clipPath48); fill:black; stroke:none;" xml:space="preserve">[nein]</text>
      <path d="M830 735 L1020 735 L1020 200 L701 200" style="fill:none; clip-path:url(#clipPath1); stroke:rgb(0,0,127);" />
      <polygon style="fill:rgb(0,0,127); clip-path:url(#clipPath49); stroke:none;" points=" 701 199 711 204 701 199 711 194 701 199" />
      <polygon style="fill:none; clip-path:url(#clipPath49); stroke:rgb(0,0,127);" points=" 701 199 711 204 701 199 711 194 701 199" />
      <text x="0" y="13" transform="translate(882,722)" style="font-size:13; clip-path:url(#clipPath48); fill:black; stroke:none;" xml:space="preserve">[nein]</text>
      <path d="M830 735 L1020 735 L1020 200 L701 200" style="fill:none; clip-path:url(#clipPath1); stroke:rgb(0,0,127);" />
      <polygon style="fill:rgb(0,0,127); clip-path:url(#clipPath49); stroke:none;" points=" 701 199 711 204 701 199 711 194 701 199" />
      <polygon style="fill:none; clip-path:url(#clipPath49); stroke:rgb(0,0,127);" points=" 701 199 711 204 701 199 711 194 701 199" />
      <text x="0" y="13" transform="translate(882,722)" style="font-size:13; clip-path:url(#clipPath48); fill:black; stroke:none;" xml:space="preserve">[nein]</text>
      <path d="M800 560 L800 580" style="fill:none; clip-path:url(#clipPath1); stroke:rgb(0,0,127);" />
      <polygon style="fill:rgb(0,0,127); clip-path:url(#clipPath50); stroke:none;" points=" 800 579 805 569 800 579 795 569 800 579" />
      <polygon style="fill:none; clip-path:url(#clipPath50); stroke:rgb(0,0,127);" points=" 800 579 805 569 800 579 795 569 800 579" />
      <path d="M800 560 L800 580" style="fill:none; clip-path:url(#clipPath1); stroke:rgb(0,0,127);" />
      <polygon style="fill:rgb(0,0,127); clip-path:url(#clipPath50); stroke:none;" points=" 800 579 805 569 800 579 795 569 800 579" />
      <polygon style="fill:none; clip-path:url(#clipPath50); stroke:rgb(0,0,127);" points=" 800 579 805 569 800 579 795 569 800 579" />
      <path d="M805 608 L804 641" style="fill:none; clip-path:url(#clipPath1); stroke:rgb(0,0,127);" />
      <polygon style="fill:rgb(0,0,127); clip-path:url(#clipPath51); stroke:none;" points=" 804 639 809 629 804 639 799 629 804 639" />
      <polygon style="fill:none; clip-path:url(#clipPath51); stroke:rgb(0,0,127);" points=" 804 639 809 629 804 639 799 629 804 639" />
      <path d="M805 608 L804 641" style="fill:none; clip-path:url(#clipPath1); stroke:rgb(0,0,127);" />
      <polygon style="fill:rgb(0,0,127); clip-path:url(#clipPath51); stroke:none;" points=" 804 639 809 629 804 639 799 629 804 639" />
      <polygon style="fill:none; clip-path:url(#clipPath51); stroke:rgb(0,0,127);" points=" 804 639 809 629 804 639 799 629 804 639" />
      <path d="M800 669 L801 720" style="fill:none; clip-path:url(#clipPath1); stroke:rgb(0,0,127);" />
      <polygon style="fill:rgb(0,0,127); clip-path:url(#clipPath52); stroke:none;" points=" 800 718 805 708 800 718 795 708 800 718" />
      <polygon style="fill:none; clip-path:url(#clipPath52); stroke:rgb(0,0,127);" points=" 800 718 805 708 800 718 795 708 800 718" />
      <text x="0" y="13" transform="translate(802,682)" style="font-size:13; clip-path:url(#clipPath44); fill:black; stroke:none;" xml:space="preserve">[ja]</text>
      <path d="M800 669 L801 720" style="fill:none; clip-path:url(#clipPath1); stroke:rgb(0,0,127);" />
      <polygon style="fill:rgb(0,0,127); clip-path:url(#clipPath52); stroke:none;" points=" 800 718 805 708 800 718 795 708 800 718" />
      <polygon style="fill:none; clip-path:url(#clipPath52); stroke:rgb(0,0,127);" points=" 800 718 805 708 800 718 795 708 800 718" />
      <text x="0" y="13" transform="translate(802,682)" style="font-size:13; clip-path:url(#clipPath44); fill:black; stroke:none;" xml:space="preserve">[ja]</text>
      <path d="M539 424 L540 330 L740 330" style="fill:none; clip-path:url(#clipPath1); stroke:rgb(0,0,127);" />
      <polygon style="fill:rgb(0,0,127); clip-path:url(#clipPath53); stroke:none;" points=" 739 330 729 325 739 330 729 335 739 330" />
      <polygon style="fill:none; clip-path:url(#clipPath53); stroke:rgb(0,0,127);" points=" 739 330 729 325 739 330 729 335 739 330" />
      <text x="0" y="13" transform="translate(562,342)" style="font-size:13; clip-path:url(#clipPath54); fill:black; stroke:none;" xml:space="preserve">[neuer Höchstwert]</text>
      <path d="M539 424 L540 330 L740 330" style="fill:none; clip-path:url(#clipPath1); stroke:rgb(0,0,127);" />
      <polygon style="fill:rgb(0,0,127); clip-path:url(#clipPath53); stroke:none;" points=" 739 330 729 325 739 330 729 335 739 330" />
      <polygon style="fill:none; clip-path:url(#clipPath53); stroke:rgb(0,0,127);" points=" 739 330 729 325 739 330 729 335 739 330" />
      <text x="0" y="13" transform="translate(562,342)" style="font-size:13; clip-path:url(#clipPath54); fill:black; stroke:none;" xml:space="preserve">[neuer Höchstwert]</text>
      <path d="M540 444 L540 540 L740 540" style="fill:none; clip-path:url(#clipPath1); stroke:rgb(0,0,127);" />
      <polygon style="fill:rgb(0,0,127); clip-path:url(#clipPath55); stroke:none;" points=" 739 540 729 535 739 540 729 545 739 540" />
      <polygon style="fill:none; clip-path:url(#clipPath55); stroke:rgb(0,0,127);" points=" 739 540 729 535 739 540 729 545 739 540" />
      <text x="0" y="13" transform="translate(542,522)" style="font-size:13; clip-path:url(#clipPath56); fill:black; stroke:none;" xml:space="preserve">[= gemerkter Höchstwert]</text>
      <path d="M540 444 L540 540 L740 540" style="fill:none; clip-path:url(#clipPath1); stroke:rgb(0,0,127);" />
      <polygon style="fill:rgb(0,0,127); clip-path:url(#clipPath55); stroke:none;" points=" 739 540 729 535 739 540 729 545 739 540" />
      <polygon style="fill:none; clip-path:url(#clipPath55); stroke:rgb(0,0,127);" points=" 739 540 729 535 739 540 729 545 739 540" />
      <text x="0" y="13" transform="translate(542,522)" style="font-size:13; clip-path:url(#clipPath56); fill:black; stroke:none;" xml:space="preserve">[= gemerkter Höchstwert]</text>
      <path d="M529 449 L530 600 L781 600" style="fill:none; clip-path:url(#clipPath1); stroke:rgb(0,0,127);" />
      <polygon style="fill:rgb(0,0,127); clip-path:url(#clipPath57); stroke:none;" points=" 780 600 770 595 780 600 770 605 780 600" />
      <polygon style="fill:none; clip-path:url(#clipPath57); stroke:rgb(0,0,127);" points=" 780 600 770 595 780 600 770 605 780 600" />
      <text x="0" y="13" transform="translate(562,582)" style="font-size:13; clip-path:url(#clipPath56); fill:black; stroke:none;" xml:space="preserve">[&lt; gemerkter Höchstwert]</text>
      <path d="M529 449 L530 600 L781 600" style="fill:none; clip-path:url(#clipPath1); stroke:rgb(0,0,127);" />
      <polygon style="fill:rgb(0,0,127); clip-path:url(#clipPath57); stroke:none;" points=" 780 600 770 595 780 600 770 605 780 600" />
      <polygon style="fill:none; clip-path:url(#clipPath57); stroke:rgb(0,0,127);" points=" 780 600 770 595 780 600 770 605 780 600" />
      <text x="0" y="13" transform="translate(562,582)" style="font-size:13; clip-path:url(#clipPath56); fill:black; stroke:none;" xml:space="preserve">[&lt; gemerkter Höchstwert]</text>
      <path d="M280 130 L280 435 L501 434" style="fill:none; clip-path:url(#clipPath1); stroke:rgb(0,0,127);" />
      <polygon style="fill:rgb(0,0,127); clip-path:url(#clipPath58); stroke:none;" points=" 499 434 489 429 499 434 489 439 499 434" />
      <polygon style="fill:none; clip-path:url(#clipPath58); stroke:rgb(0,0,127);" points=" 499 434 489 429 499 434 489 439 499 434" />
      <path d="M280 130 L280 435 L501 434" style="fill:none; clip-path:url(#clipPath1); stroke:rgb(0,0,127);" />
      <polygon style="fill:rgb(0,0,127); clip-path:url(#clipPath58); stroke:none;" points=" 499 434 489 429 499 434 489 439 499 434" />
      <polygon style="fill:none; clip-path:url(#clipPath58); stroke:rgb(0,0,127);" points=" 499 434 489 429 499 434 489 439 499 434" />
    </g>
  </g>
</svg>
