<?xml version="1.0" encoding="UTF-8"?>

<!DOCTYPE svg PUBLIC '-//W3C//DTD SVG 1.0//EN' 'http://www.w3.org/TR/2001/REC-SVG-20010904/DTD/svg10.dtd'>
<svg style="fill-opacity:1; color-rendering:auto; color-interpolation:auto; text-rendering:auto; stroke:black; stroke-linecap:square; stroke-miterlimit:10; shape-rendering:auto; stroke-opacity:1; fill:black; stroke-dasharray:none; font-weight:normal; stroke-width:1; font-family:&apos;Dialog&apos;; font-style:normal; stroke-linejoin:miter; font-size:12; stroke-dashoffset:0; image-rendering:auto;" xmlns="http://www.w3.org/2000/svg" width="1323" xmlns:xlink="http://www.w3.org/1999/xlink" height="854">
  <!--Generated by Selena using Batik-->
  <defs id="genericDefs" />
  <g>
    <defs id="defs1">
      <clipPath clipPathUnits="userSpaceOnUse" id="clipPath1">
        <path d="M0 0 L12000 0 L12000 12000 L0 12000 L0 0 Z" />
      </clipPath>
      <clipPath clipPathUnits="userSpaceOnUse" id="clipPath2">
        <path d="M195 35 L195 841 L1181 841 L1181 35 Z" />
      </clipPath>
      <clipPath clipPathUnits="userSpaceOnUse" id="clipPath3">
        <path d="M411 0 L411 15 L564 15 L564 0 Z" />
      </clipPath>
      <clipPath clipPathUnits="userSpaceOnUse" id="clipPath4">
        <path d="M220 56 L220 838 L459 838 L459 56 Z" />
      </clipPath>
      <clipPath clipPathUnits="userSpaceOnUse" id="clipPath5">
        <path d="M220 56 L220 71 L459 71 L459 56 Z" />
      </clipPath>
      <clipPath clipPathUnits="userSpaceOnUse" id="clipPath6">
        <path d="M92 0 L92 15 L137 15 L137 0 Z" />
      </clipPath>
      <clipPath clipPathUnits="userSpaceOnUse" id="clipPath7">
        <path d="M240 100 L240 130 L343 130 L343 100 Z" />
      </clipPath>
      <clipPath clipPathUnits="userSpaceOnUse" id="clipPath8">
        <path d="M380 100 L380 130 L440 130 L440 100 Z" />
      </clipPath>
      <clipPath clipPathUnits="userSpaceOnUse" id="clipPath9">
        <path d="M0 0 L0 15 L93 15 L93 0 Z" />
      </clipPath>
      <clipPath clipPathUnits="userSpaceOnUse" id="clipPath10">
        <path d="M3 0 L3 15 L7 15 L7 0 Z" />
      </clipPath>
      <clipPath clipPathUnits="userSpaceOnUse" id="clipPath11">
        <path d="M480 56 L480 838 L1161 838 L1161 56 Z" />
      </clipPath>
      <clipPath clipPathUnits="userSpaceOnUse" id="clipPath12">
        <path d="M480 56 L480 71 L1161 71 L1161 56 Z" />
      </clipPath>
      <clipPath clipPathUnits="userSpaceOnUse" id="clipPath13">
        <path d="M245 0 L245 15 L425 15 L425 0 Z" />
      </clipPath>
      <clipPath clipPathUnits="userSpaceOnUse" id="clipPath14">
        <path d="M1080 120 L1080 135 L1095 135 L1095 120 Z" />
      </clipPath>
      <clipPath clipPathUnits="userSpaceOnUse" id="clipPath15">
        <path d="M680 96 L680 160 L801 160 L801 96 Z" />
      </clipPath>
      <clipPath clipPathUnits="userSpaceOnUse" id="clipPath16">
        <path d="M840 300 L840 361 L961 361 L961 300 Z" />
      </clipPath>
      <clipPath clipPathUnits="userSpaceOnUse" id="clipPath17">
        <path d="M840 400 L840 481 L961 481 L961 400 Z" />
      </clipPath>
      <clipPath clipPathUnits="userSpaceOnUse" id="clipPath18">
        <path d="M840 519 L840 560 L961 560 L961 519 Z" />
      </clipPath>
      <clipPath clipPathUnits="userSpaceOnUse" id="clipPath19">
        <path d="M970 760 L970 821 L1081 821 L1081 760 Z" />
      </clipPath>
      <clipPath clipPathUnits="userSpaceOnUse" id="clipPath20">
        <path d="M1130 782 L1130 800 L1148 800 L1148 782 Z" />
      </clipPath>
      <clipPath clipPathUnits="userSpaceOnUse" id="clipPath21">
        <path d="M680 180 L680 265 L801 265 L801 180 Z" />
      </clipPath>
      <clipPath clipPathUnits="userSpaceOnUse" id="clipPath22">
        <path d="M871 580 L871 610 L931 610 L931 580 Z" />
      </clipPath>
      <clipPath clipPathUnits="userSpaceOnUse" id="clipPath23">
        <path d="M871 640 L871 670 L931 670 L931 640 Z" />
      </clipPath>
      <clipPath clipPathUnits="userSpaceOnUse" id="clipPath24">
        <path d="M871 720 L871 750 L931 750 L931 720 Z" />
      </clipPath>
      <clipPath clipPathUnits="userSpaceOnUse" id="clipPath25">
        <path d="M996 113 L996 143 L1056 143 L1056 113 Z" />
      </clipPath>
      <clipPath clipPathUnits="userSpaceOnUse" id="clipPath26">
        <path d="M600 420 L600 450 L660 450 L660 420 Z" />
      </clipPath>
      <clipPath clipPathUnits="userSpaceOnUse" id="clipPath27">
        <path d="M500 320 L500 381 L601 381 L601 320 Z" />
      </clipPath>
      <clipPath clipPathUnits="userSpaceOnUse" id="clipPath28">
        <path d="M19 0 L19 45 L92 45 L92 0 Z" />
      </clipPath>
      <clipPath clipPathUnits="userSpaceOnUse" id="clipPath29">
        <path d="M18 0 L18 45 L92 45 L92 0 Z" />
      </clipPath>
      <clipPath clipPathUnits="userSpaceOnUse" id="clipPath30">
        <path d="M21 0 L21 60 L90 60 L90 0 Z" />
      </clipPath>
      <clipPath clipPathUnits="userSpaceOnUse" id="clipPath31">
        <path d="M0 0 L0 30 L111 30 L111 0 Z" />
      </clipPath>
      <clipPath clipPathUnits="userSpaceOnUse" id="clipPath32">
        <path d="M13 0 L13 30 L88 30 L88 0 Z" />
      </clipPath>
      <clipPath clipPathUnits="userSpaceOnUse" id="clipPath33">
        <path d="M1133 785 L1133 797 L1145 797 L1145 785 Z" />
      </clipPath>
      <clipPath clipPathUnits="userSpaceOnUse" id="clipPath34">
        <path d="M5 0 L5 60 L106 60 L106 0 Z" />
      </clipPath>
      <clipPath clipPathUnits="userSpaceOnUse" id="clipPath35">
        <path d="M4 0 L4 30 L197 30 L197 0 Z" />
      </clipPath>
      <clipPath clipPathUnits="userSpaceOnUse" id="clipPath36">
        <path d="M0 0 L0 15 L194 15 L194 0 Z" />
      </clipPath>
      <clipPath clipPathUnits="userSpaceOnUse" id="clipPath37">
        <path d="M2 0 L2 30 L119 30 L119 0 Z" />
      </clipPath>
      <clipPath clipPathUnits="userSpaceOnUse" id="clipPath38">
        <path d="M2 0 L2 30 L89 30 L89 0 Z" />
      </clipPath>
      <clipPath clipPathUnits="userSpaceOnUse" id="clipPath39">
        <path d="M1119 786 L1119 797 L1130 797 L1130 786 Z" />
      </clipPath>
      <clipPath clipPathUnits="userSpaceOnUse" id="clipPath40">
        <path d="M892 389 L892 400 L903 400 L903 389 Z" />
      </clipPath>
      <clipPath clipPathUnits="userSpaceOnUse" id="clipPath41">
        <path d="M894 508 L894 519 L905 519 L905 508 Z" />
      </clipPath>
      <clipPath clipPathUnits="userSpaceOnUse" id="clipPath42">
        <path d="M439 110 L439 121 L450 121 L450 110 Z" />
      </clipPath>
      <clipPath clipPathUnits="userSpaceOnUse" id="clipPath43">
        <path d="M404 130 L404 141 L415 141 L415 130 Z" />
      </clipPath>
      <clipPath clipPathUnits="userSpaceOnUse" id="clipPath44">
        <path d="M343 109 L343 120 L354 120 L354 109 Z" />
      </clipPath>
      <clipPath clipPathUnits="userSpaceOnUse" id="clipPath45">
        <path d="M959 785 L959 796 L970 796 L970 785 Z" />
      </clipPath>
      <clipPath clipPathUnits="userSpaceOnUse" id="clipPath46">
        <path d="M0 0 L0 15 L22 15 L22 0 Z" />
      </clipPath>
      <clipPath clipPathUnits="userSpaceOnUse" id="clipPath47">
        <path d="M1055 123 L1055 134 L1066 134 L1066 123 Z" />
      </clipPath>
      <clipPath clipPathUnits="userSpaceOnUse" id="clipPath48">
        <path d="M802 122 L802 133 L813 133 L813 122 Z" />
      </clipPath>
      <clipPath clipPathUnits="userSpaceOnUse" id="clipPath49">
        <path d="M1035 135 L1035 146 L1046 146 L1046 135 Z" />
      </clipPath>
      <clipPath clipPathUnits="userSpaceOnUse" id="clipPath50">
        <path d="M0 0 L0 15 L38 15 L38 0 Z" />
      </clipPath>
      <clipPath clipPathUnits="userSpaceOnUse" id="clipPath51">
        <path d="M801 194 L801 205 L812 205 L812 194 Z" />
      </clipPath>
      <clipPath clipPathUnits="userSpaceOnUse" id="clipPath52">
        <path d="M895 569 L895 580 L906 580 L906 569 Z" />
      </clipPath>
      <clipPath clipPathUnits="userSpaceOnUse" id="clipPath53">
        <path d="M899 629 L899 640 L910 640 L910 629 Z" />
      </clipPath>
      <clipPath clipPathUnits="userSpaceOnUse" id="clipPath54">
        <path d="M895 708 L895 719 L906 719 L906 708 Z" />
      </clipPath>
      <clipPath clipPathUnits="userSpaceOnUse" id="clipPath55">
        <path d="M829 325 L829 336 L840 336 L840 325 Z" />
      </clipPath>
      <clipPath clipPathUnits="userSpaceOnUse" id="clipPath56">
        <path d="M0 0 L0 15 L125 15 L125 0 Z" />
      </clipPath>
      <clipPath clipPathUnits="userSpaceOnUse" id="clipPath57">
        <path d="M829 535 L829 546 L840 546 L840 535 Z" />
      </clipPath>
      <clipPath clipPathUnits="userSpaceOnUse" id="clipPath58">
        <path d="M0 0 L0 15 L171 15 L171 0 Z" />
      </clipPath>
      <clipPath clipPathUnits="userSpaceOnUse" id="clipPath59">
        <path d="M870 595 L870 606 L881 606 L881 595 Z" />
      </clipPath>
      <clipPath clipPathUnits="userSpaceOnUse" id="clipPath60">
        <path d="M489 345 L489 356 L500 356 L500 345 Z" />
      </clipPath>
      <clipPath clipPathUnits="userSpaceOnUse" id="clipPath61">
        <path d="M589 429 L589 440 L600 440 L600 429 Z" />
      </clipPath>
    </defs>
    <g style="fill:white; stroke:white;">
      <rect x="0" y="0" width="1323" style="clip-path:url(#clipPath1); stroke:none;" height="854" />
      <rect x="0" y="0" width="1322" style="clip-path:url(#clipPath1); fill:none; stroke:blue;" height="853" />
      <rect x="195" y="35" width="986" style="clip-path:url(#clipPath2); stroke:none;" rx="4" ry="4" height="806" />
      <rect x="195" y="35" width="985" style="clip-path:url(#clipPath2); fill:none; stroke:black;" rx="4" ry="4" height="805" />
      <text x="411" y="13" transform="translate(200,35)" style="font-size:13; clip-path:url(#clipPath3); fill:black; stroke:none;" xml:space="preserve">Startspieler bestimmen</text>
      <rect x="220" y="56" width="239" style="clip-path:url(#clipPath4); stroke:none;" height="782" />
      <rect x="220" y="56" width="238" style="clip-path:url(#clipPath4); fill:none; stroke:black;" height="781" />
      <rect x="220" y="56" width="239" style="clip-path:url(#clipPath5); stroke:none;" height="15" />
      <rect x="220" y="56" width="238" style="clip-path:url(#clipPath5); fill:none; stroke:black;" height="14" />
      <text x="92" y="13" transform="translate(225,56)" style="font-size:13; clip-path:url(#clipPath6); fill:black; stroke:none;" xml:space="preserve">Spieler</text>
      <rect x="240" y="100" transform="translate(3,3)" width="103" style="clip-path:url(#clipPath7); fill:rgb(153,153,153); stroke:none;" rx="4" ry="4" height="30" />
      <rect x="240" y="100" transform="translate(3,3)" width="102" style="clip-path:url(#clipPath7); fill:none; stroke:rgb(153,153,153);" rx="4" ry="4" height="29" />
      <polygon points=" 380 114 409 100 439 114 409 129 380 114" transform="translate(3,3)" style="fill:rgb(153,153,153); clip-path:url(#clipPath8); stroke:none;" />
      <polygon points=" 380 114 409 100 439 114 409 129 380 114" transform="translate(3,3)" style="fill:none; clip-path:url(#clipPath8); stroke:rgb(153,153,153);" />
      <rect x="240" y="100" width="103" style="clip-path:url(#clipPath7); stroke:none;" rx="4" ry="4" height="30" />
      <rect x="240" y="100" width="102" style="clip-path:url(#clipPath7); fill:none; stroke:black;" rx="4" ry="4" height="29" />
      <text x="0" y="13" transform="translate(245,107)" style="font-size:13; clip-path:url(#clipPath9); fill:black; stroke:none;" xml:space="preserve">Wurf initiieren</text>
      <polygon style="clip-path:url(#clipPath8); stroke:none;" points=" 380 114 409 100 439 114 409 129 380 114" />
      <polygon style="fill:none; clip-path:url(#clipPath8); stroke:black;" points=" 380 114 409 100 439 114 409 129 380 114" />
      <text x="3" y="13" transform="translate(405,140)" style="font-size:13; clip-path:url(#clipPath10); fill:black; stroke:none;" xml:space="preserve"> </text>
      <rect x="480" y="56" width="681" style="clip-path:url(#clipPath11); stroke:none;" height="782" />
      <rect x="480" y="56" width="680" style="clip-path:url(#clipPath11); fill:none; stroke:black;" height="781" />
      <rect x="480" y="56" width="681" style="clip-path:url(#clipPath12); stroke:none;" height="15" />
      <rect x="480" y="56" width="680" style="clip-path:url(#clipPath12); fill:none; stroke:black;" height="14" />
      <text x="245" y="13" transform="translate(485,56)" style="font-size:13; clip-path:url(#clipPath13); fill:black; stroke:none;" xml:space="preserve">Path of Enlightenment Spiel</text>
      <circle transform="translate(3,3)" style="clip-path:url(#clipPath14); fill:rgb(153,153,153); stroke:none;" r="7" cx="1087" cy="127" />
      <circle transform="translate(3,3)" style="clip-path:url(#clipPath14); fill:none; stroke:rgb(153,153,153);" r="7" cx="1087" cy="127" />
      <rect x="680" y="96" transform="translate(3,3)" width="121" style="clip-path:url(#clipPath15); fill:rgb(153,153,153); stroke:none;" rx="4" ry="4" height="64" />
      <rect x="680" y="96" transform="translate(3,3)" width="120" style="clip-path:url(#clipPath15); fill:none; stroke:rgb(153,153,153);" rx="4" ry="4" height="63" />
      <rect x="840" y="300" transform="translate(3,3)" width="121" style="clip-path:url(#clipPath16); fill:rgb(153,153,153); stroke:none;" rx="4" ry="4" height="61" />
      <rect x="840" y="300" transform="translate(3,3)" width="120" style="clip-path:url(#clipPath16); fill:none; stroke:rgb(153,153,153);" rx="4" ry="4" height="60" />
      <rect x="840" y="400" transform="translate(3,3)" width="121" style="clip-path:url(#clipPath17); fill:rgb(153,153,153); stroke:none;" rx="4" ry="4" height="81" />
      <rect x="840" y="400" transform="translate(3,3)" width="120" style="clip-path:url(#clipPath17); fill:none; stroke:rgb(153,153,153);" rx="4" ry="4" height="80" />
      <rect x="840" y="519" transform="translate(3,3)" width="121" style="clip-path:url(#clipPath18); fill:rgb(153,153,153); stroke:none;" rx="4" ry="4" height="41" />
      <rect x="840" y="519" transform="translate(3,3)" width="120" style="clip-path:url(#clipPath18); fill:none; stroke:rgb(153,153,153);" rx="4" ry="4" height="40" />
      <rect x="970" y="760" transform="translate(3,3)" width="111" style="clip-path:url(#clipPath19); fill:rgb(153,153,153); stroke:none;" rx="4" ry="4" height="61" />
      <rect x="970" y="760" transform="translate(3,3)" width="110" style="clip-path:url(#clipPath19); fill:none; stroke:rgb(153,153,153);" rx="4" ry="4" height="60" />
      <circle transform="translate(3,3)" style="clip-path:url(#clipPath20); fill:rgb(153,153,153); stroke:none;" r="8.5" cx="1138.5" cy="790.5" />
      <circle transform="translate(3,3)" style="clip-path:url(#clipPath20); fill:none; stroke:rgb(153,153,153);" r="8.5" cx="1138.5" cy="790.5" />
      <rect x="680" y="180" transform="translate(3,3)" width="121" style="clip-path:url(#clipPath21); fill:rgb(153,153,153); stroke:none;" rx="4" ry="4" height="85" />
      <rect x="680" y="180" transform="translate(3,3)" width="120" style="clip-path:url(#clipPath21); fill:none; stroke:rgb(153,153,153);" rx="4" ry="4" height="84" />
      <polygon points=" 871 594 900 580 930 594 900 609 871 594" transform="translate(3,3)" style="fill:rgb(153,153,153); clip-path:url(#clipPath22); stroke:none;" />
      <polygon points=" 871 594 900 580 930 594 900 609 871 594" transform="translate(3,3)" style="fill:none; clip-path:url(#clipPath22); stroke:rgb(153,153,153);" />
      <polygon points=" 871 654 900 640 930 654 900 669 871 654" transform="translate(3,3)" style="fill:rgb(153,153,153); clip-path:url(#clipPath23); stroke:none;" />
      <polygon points=" 871 654 900 640 930 654 900 669 871 654" transform="translate(3,3)" style="fill:none; clip-path:url(#clipPath23); stroke:rgb(153,153,153);" />
      <polygon points=" 871 734 900 720 930 734 900 749 871 734" transform="translate(3,3)" style="fill:rgb(153,153,153); clip-path:url(#clipPath24); stroke:none;" />
      <polygon points=" 871 734 900 720 930 734 900 749 871 734" transform="translate(3,3)" style="fill:none; clip-path:url(#clipPath24); stroke:rgb(153,153,153);" />
      <polygon points=" 996 127 1025 113 1055 127 1025 142 996 127" transform="translate(3,3)" style="fill:rgb(153,153,153); clip-path:url(#clipPath25); stroke:none;" />
      <polygon points=" 996 127 1025 113 1055 127 1025 142 996 127" transform="translate(3,3)" style="fill:none; clip-path:url(#clipPath25); stroke:rgb(153,153,153);" />
      <polygon points=" 600 434 629 420 659 434 629 449 600 434" transform="translate(3,3)" style="fill:rgb(153,153,153); clip-path:url(#clipPath26); stroke:none;" />
      <polygon points=" 600 434 629 420 659 434 629 449 600 434" transform="translate(3,3)" style="fill:none; clip-path:url(#clipPath26); stroke:rgb(153,153,153);" />
      <rect x="500" y="320" transform="translate(3,3)" width="101" style="clip-path:url(#clipPath27); fill:rgb(153,153,153); stroke:none;" rx="4" ry="4" height="61" />
      <rect x="500" y="320" transform="translate(3,3)" width="100" style="clip-path:url(#clipPath27); fill:none; stroke:rgb(153,153,153);" rx="4" ry="4" height="60" />
      <circle style="clip-path:url(#clipPath14); fill:black; stroke:none;" r="7" cx="1087" cy="127" />
      <circle style="clip-path:url(#clipPath14); fill:none; stroke:black;" r="7" cx="1087" cy="127" />
      <rect x="680" y="96" width="121" style="clip-path:url(#clipPath15); stroke:none;" rx="4" ry="4" height="64" />
      <rect x="680" y="96" width="120" style="clip-path:url(#clipPath15); fill:none; stroke:black;" rx="4" ry="4" height="63" />
      <text x="19" y="13" transform="translate(685,105)" style="font-size:13; clip-path:url(#clipPath28); fill:black; stroke:none;" xml:space="preserve">Spieler aus</text>
      <text x="19" y="28" transform="translate(685,105)" style="font-size:13; clip-path:url(#clipPath28); fill:black; stroke:none;" xml:space="preserve">Spielerliste</text>
      <text x="20" y="43" transform="translate(685,105)" style="font-size:13; clip-path:url(#clipPath28); fill:black; stroke:none;" xml:space="preserve">auswählen</text>
      <rect x="840" y="300" width="121" style="clip-path:url(#clipPath16); stroke:none;" rx="4" ry="4" height="61" />
      <rect x="840" y="300" width="120" style="clip-path:url(#clipPath16); fill:none; stroke:black;" rx="4" ry="4" height="60" />
      <text x="34" y="13" transform="translate(845,308)" style="font-size:13; clip-path:url(#clipPath29); fill:black; stroke:none;" xml:space="preserve">Neuen</text>
      <text x="18" y="28" transform="translate(845,308)" style="font-size:13; clip-path:url(#clipPath29); fill:black; stroke:none;" xml:space="preserve">Höchstwert</text>
      <text x="30" y="43" transform="translate(845,308)" style="font-size:13; clip-path:url(#clipPath29); fill:black; stroke:none;" xml:space="preserve">merken</text>
      <rect x="840" y="400" width="121" style="clip-path:url(#clipPath17); stroke:none;" rx="4" ry="4" height="81" />
      <rect x="840" y="400" width="120" style="clip-path:url(#clipPath17); fill:none; stroke:black;" rx="4" ry="4" height="80" />
      <text x="21" y="13" transform="translate(845,410)" style="font-size:13; clip-path:url(#clipPath30); fill:black; stroke:none;" xml:space="preserve">Alle bisher</text>
      <text x="24" y="28" transform="translate(845,410)" style="font-size:13; clip-path:url(#clipPath30); fill:black; stroke:none;" xml:space="preserve">gemerkte</text>
      <text x="33" y="43" transform="translate(845,410)" style="font-size:13; clip-path:url(#clipPath30); fill:black; stroke:none;" xml:space="preserve">Spieler</text>
      <text x="22" y="58" transform="translate(845,410)" style="font-size:13; clip-path:url(#clipPath30); fill:black; stroke:none;" xml:space="preserve">vergessen</text>
      <rect x="840" y="519" width="121" style="clip-path:url(#clipPath18); stroke:none;" rx="4" ry="4" height="41" />
      <rect x="840" y="519" width="120" style="clip-path:url(#clipPath18); fill:none; stroke:black;" rx="4" ry="4" height="40" />
      <text x="0" y="13" transform="translate(845,524)" style="font-size:13; clip-path:url(#clipPath31); fill:black; stroke:none;" xml:space="preserve">Aktuellen Spieler</text>
      <text x="30" y="28" transform="translate(845,524)" style="font-size:13; clip-path:url(#clipPath31); fill:black; stroke:none;" xml:space="preserve">merken</text>
      <rect x="970" y="760" width="111" style="clip-path:url(#clipPath19); stroke:none;" rx="4" ry="4" height="61" />
      <rect x="970" y="760" width="110" style="clip-path:url(#clipPath19); fill:none; stroke:black;" rx="4" ry="4" height="60" />
      <text x="13" y="13" transform="translate(975,775)" style="font-size:13; clip-path:url(#clipPath32); fill:black; stroke:none;" xml:space="preserve">Startspieler</text>
      <text x="20" y="28" transform="translate(975,775)" style="font-size:13; clip-path:url(#clipPath32); fill:black; stroke:none;" xml:space="preserve">festlegen</text>
      <circle style="clip-path:url(#clipPath20); stroke:none;" r="8.5" cx="1138.5" cy="790.5" />
      <circle style="clip-path:url(#clipPath20); fill:none; stroke:black;" r="8.5" cx="1138.5" cy="790.5" />
      <circle style="clip-path:url(#clipPath33); fill:black; stroke:none;" r="5.5" cx="1138.5" cy="790.5" />
      <rect x="680" y="180" width="121" style="clip-path:url(#clipPath21); stroke:none;" rx="4" ry="4" height="85" />
      <rect x="680" y="180" width="120" style="clip-path:url(#clipPath21); fill:none; stroke:black;" rx="4" ry="4" height="84" />
      <text x="5" y="13" transform="translate(685,192)" style="font-size:13; clip-path:url(#clipPath34); fill:black; stroke:none;" xml:space="preserve">Spieler von den</text>
      <text x="20" y="28" transform="translate(685,192)" style="font-size:13; clip-path:url(#clipPath34); fill:black; stroke:none;" xml:space="preserve">gemerkten</text>
      <text x="29" y="43" transform="translate(685,192)" style="font-size:13; clip-path:url(#clipPath34); fill:black; stroke:none;" xml:space="preserve">Spielern</text>
      <text x="20" y="58" transform="translate(685,192)" style="font-size:13; clip-path:url(#clipPath34); fill:black; stroke:none;" xml:space="preserve">auswählen</text>
      <polygon style="clip-path:url(#clipPath22); stroke:none;" points=" 871 594 900 580 930 594 900 609 871 594" />
      <polygon style="fill:none; clip-path:url(#clipPath22); stroke:black;" points=" 871 594 900 580 930 594 900 609 871 594" />
      <text x="3" y="13" transform="translate(896,620)" style="font-size:13; clip-path:url(#clipPath10); fill:black; stroke:none;" xml:space="preserve"> </text>
      <polygon style="clip-path:url(#clipPath23); stroke:none;" points=" 871 654 900 640 930 654 900 669 871 654" />
      <polygon style="fill:none; clip-path:url(#clipPath23); stroke:black;" points=" 871 654 900 640 930 654 900 669 871 654" />
      <text x="4" y="13" transform="translate(670,640)" style="font-size:13; clip-path:url(#clipPath35); fill:black; stroke:none;" xml:space="preserve">Haben alle Spieler min. 1 mal</text>
      <text x="66" y="28" transform="translate(670,640)" style="font-size:13; clip-path:url(#clipPath35); fill:black; stroke:none;" xml:space="preserve">gewürfelt?</text>
      <polygon style="clip-path:url(#clipPath24); stroke:none;" points=" 871 734 900 720 930 734 900 749 871 734" />
      <polygon style="fill:none; clip-path:url(#clipPath24); stroke:black;" points=" 871 734 900 720 930 734 900 749 871 734" />
      <text x="0" y="13" transform="translate(670,727)" style="font-size:13; clip-path:url(#clipPath36); fill:black; stroke:none;" xml:space="preserve">Wurde nur 1 Spieler gemerkt?</text>
      <polygon style="clip-path:url(#clipPath25); stroke:none;" points=" 996 127 1025 113 1055 127 1025 142 996 127" />
      <polygon style="fill:none; clip-path:url(#clipPath25); stroke:black;" points=" 996 127 1025 113 1055 127 1025 142 996 127" />
      <text x="3" y="13" transform="translate(1021,153)" style="font-size:13; clip-path:url(#clipPath10); fill:black; stroke:none;" xml:space="preserve"> </text>
      <polygon style="clip-path:url(#clipPath26); stroke:none;" points=" 600 434 629 420 659 434 629 449 600 434" />
      <polygon style="fill:none; clip-path:url(#clipPath26); stroke:black;" points=" 600 434 629 420 659 434 629 449 600 434" />
      <text x="2" y="13" transform="translate(659,418)" style="font-size:13; clip-path:url(#clipPath37); fill:black; stroke:none;" xml:space="preserve">Neuer Höchstwert</text>
      <text x="26" y="28" transform="translate(659,418)" style="font-size:13; clip-path:url(#clipPath37); fill:black; stroke:none;" xml:space="preserve">gewürfelt?</text>
      <rect x="500" y="320" width="101" style="clip-path:url(#clipPath27); stroke:none;" rx="4" ry="4" height="61" />
      <rect x="500" y="320" width="100" style="clip-path:url(#clipPath27); fill:none; stroke:black;" rx="4" ry="4" height="60" />
      <text x="2" y="13" transform="translate(505,335)" style="font-size:13; clip-path:url(#clipPath38); fill:black; stroke:none;" xml:space="preserve">Wurfergebnis</text>
      <text x="8" y="28" transform="translate(505,335)" style="font-size:13; clip-path:url(#clipPath38); fill:black; stroke:none;" xml:space="preserve">bestimmen</text>
      <path d="M1081 791 L1130 791" style="fill:none; clip-path:url(#clipPath1); stroke:rgb(0,0,127);" />
      <polygon style="fill:rgb(0,0,127); clip-path:url(#clipPath39); stroke:none;" points=" 1129 791 1119 786 1129 791 1119 796 1129 791" />
      <polygon style="fill:none; clip-path:url(#clipPath39); stroke:rgb(0,0,127);" points=" 1129 791 1119 786 1129 791 1119 796 1129 791" />
      <path d="M1081 791 L1130 791" style="fill:none; clip-path:url(#clipPath1); stroke:rgb(0,0,127);" />
      <polygon style="fill:rgb(0,0,127); clip-path:url(#clipPath39); stroke:none;" points=" 1129 791 1119 786 1129 791 1119 796 1129 791" />
      <polygon style="fill:none; clip-path:url(#clipPath39); stroke:rgb(0,0,127);" points=" 1129 791 1119 786 1129 791 1119 796 1129 791" />
      <path d="M897 361 L897 400" style="fill:none; clip-path:url(#clipPath1); stroke:rgb(0,0,127);" />
      <polygon style="fill:rgb(0,0,127); clip-path:url(#clipPath40); stroke:none;" points=" 897 399 902 389 897 399 892 389 897 399" />
      <polygon style="fill:none; clip-path:url(#clipPath40); stroke:rgb(0,0,127);" points=" 897 399 902 389 897 399 892 389 897 399" />
      <path d="M897 361 L897 400" style="fill:none; clip-path:url(#clipPath1); stroke:rgb(0,0,127);" />
      <polygon style="fill:rgb(0,0,127); clip-path:url(#clipPath40); stroke:none;" points=" 897 399 902 389 897 399 892 389 897 399" />
      <polygon style="fill:none; clip-path:url(#clipPath40); stroke:rgb(0,0,127);" points=" 897 399 902 389 897 399 892 389 897 399" />
      <path d="M899 481 L899 519" style="fill:none; clip-path:url(#clipPath1); stroke:rgb(0,0,127);" />
      <polygon style="fill:rgb(0,0,127); clip-path:url(#clipPath41); stroke:none;" points=" 899 518 904 508 899 518 894 508 899 518" />
      <polygon style="fill:none; clip-path:url(#clipPath41); stroke:rgb(0,0,127);" points=" 899 518 904 508 899 518 894 508 899 518" />
      <path d="M899 481 L899 519" style="fill:none; clip-path:url(#clipPath1); stroke:rgb(0,0,127);" />
      <polygon style="fill:rgb(0,0,127); clip-path:url(#clipPath41); stroke:none;" points=" 899 518 904 508 899 518 894 508 899 518" />
      <polygon style="fill:none; clip-path:url(#clipPath41); stroke:rgb(0,0,127);" points=" 899 518 904 508 899 518 894 508 899 518" />
      <path d="M680 115 L439 115" style="fill:none; clip-path:url(#clipPath1); stroke:rgb(0,0,127);" />
      <polygon style="fill:rgb(0,0,127); clip-path:url(#clipPath42); stroke:none;" points=" 439 115 449 120 439 115 449 110 439 115" />
      <polygon style="fill:none; clip-path:url(#clipPath42); stroke:rgb(0,0,127);" points=" 439 115 449 120 439 115 449 110 439 115" />
      <path d="M680 115 L439 115" style="fill:none; clip-path:url(#clipPath1); stroke:rgb(0,0,127);" />
      <polygon style="fill:rgb(0,0,127); clip-path:url(#clipPath42); stroke:none;" points=" 439 115 449 120 439 115 449 110 439 115" />
      <polygon style="fill:none; clip-path:url(#clipPath42); stroke:rgb(0,0,127);" points=" 439 115 449 120 439 115 449 110 439 115" />
      <path d="M680 220 L410 220 L409 129" style="fill:none; clip-path:url(#clipPath1); stroke:rgb(0,0,127);" />
      <polygon style="fill:rgb(0,0,127); clip-path:url(#clipPath43); stroke:none;" points=" 409 130 404 140 409 130 414 140 409 130" />
      <polygon style="fill:none; clip-path:url(#clipPath43); stroke:rgb(0,0,127);" points=" 409 130 404 140 409 130 414 140 409 130" />
      <path d="M680 220 L410 220 L409 129" style="fill:none; clip-path:url(#clipPath1); stroke:rgb(0,0,127);" />
      <polygon style="fill:rgb(0,0,127); clip-path:url(#clipPath43); stroke:none;" points=" 409 130 404 140 409 130 414 140 409 130" />
      <polygon style="fill:none; clip-path:url(#clipPath43); stroke:rgb(0,0,127);" points=" 409 130 404 140 409 130 414 140 409 130" />
      <path d="M381 114 L343 114" style="fill:none; clip-path:url(#clipPath1); stroke:rgb(0,0,127);" />
      <polygon style="fill:rgb(0,0,127); clip-path:url(#clipPath44); stroke:none;" points=" 343 114 353 119 343 114 353 109 343 114" />
      <polygon style="fill:none; clip-path:url(#clipPath44); stroke:rgb(0,0,127);" points=" 343 114 353 119 343 114 353 109 343 114" />
      <path d="M381 114 L343 114" style="fill:none; clip-path:url(#clipPath1); stroke:rgb(0,0,127);" />
      <polygon style="fill:rgb(0,0,127); clip-path:url(#clipPath44); stroke:none;" points=" 343 114 353 119 343 114 353 109 343 114" />
      <polygon style="fill:none; clip-path:url(#clipPath44); stroke:rgb(0,0,127);" points=" 343 114 353 119 343 114 353 109 343 114" />
      <path d="M900 749 L900 790 L970 790" style="fill:none; clip-path:url(#clipPath1); stroke:rgb(0,0,127);" />
      <polygon style="fill:rgb(0,0,127); clip-path:url(#clipPath45); stroke:none;" points=" 969 790 959 785 969 790 959 795 969 790" />
      <polygon style="fill:none; clip-path:url(#clipPath45); stroke:rgb(0,0,127);" points=" 969 790 959 785 969 790 959 795 969 790" />
      <text x="0" y="13" transform="translate(902,762)" style="font-size:13; clip-path:url(#clipPath46); fill:black; stroke:none;" xml:space="preserve">[ja]</text>
      <path d="M900 749 L900 790 L970 790" style="fill:none; clip-path:url(#clipPath1); stroke:rgb(0,0,127);" />
      <polygon style="fill:rgb(0,0,127); clip-path:url(#clipPath45); stroke:none;" points=" 969 790 959 785 969 790 959 795 969 790" />
      <polygon style="fill:none; clip-path:url(#clipPath45); stroke:rgb(0,0,127);" points=" 969 790 959 785 969 790 959 795 969 790" />
      <text x="0" y="13" transform="translate(902,762)" style="font-size:13; clip-path:url(#clipPath46); fill:black; stroke:none;" xml:space="preserve">[ja]</text>
      <path d="M1080 128 L1055 128" style="fill:none; clip-path:url(#clipPath1); stroke:rgb(0,0,127);" />
      <polygon style="fill:rgb(0,0,127); clip-path:url(#clipPath47); stroke:none;" points=" 1055 128 1065 133 1055 128 1065 123 1055 128" />
      <polygon style="fill:none; clip-path:url(#clipPath47); stroke:rgb(0,0,127);" points=" 1055 128 1065 133 1055 128 1065 123 1055 128" />
      <path d="M1080 128 L1055 128" style="fill:none; clip-path:url(#clipPath1); stroke:rgb(0,0,127);" />
      <polygon style="fill:rgb(0,0,127); clip-path:url(#clipPath47); stroke:none;" points=" 1055 128 1065 133 1055 128 1065 123 1055 128" />
      <polygon style="fill:none; clip-path:url(#clipPath47); stroke:rgb(0,0,127);" points=" 1055 128 1065 133 1055 128 1065 123 1055 128" />
      <path d="M997 127 L801 128" style="fill:none; clip-path:url(#clipPath1); stroke:rgb(0,0,127);" />
      <polygon style="fill:rgb(0,0,127); clip-path:url(#clipPath48); stroke:none;" points=" 802 127 812 132 802 127 812 122 802 127" />
      <polygon style="fill:none; clip-path:url(#clipPath48); stroke:rgb(0,0,127);" points=" 802 127 812 132 802 127 812 122 802 127" />
      <path d="M997 127 L801 128" style="fill:none; clip-path:url(#clipPath1); stroke:rgb(0,0,127);" />
      <polygon style="fill:rgb(0,0,127); clip-path:url(#clipPath48); stroke:none;" points=" 802 127 812 132 802 127 812 122 802 127" />
      <polygon style="fill:none; clip-path:url(#clipPath48); stroke:rgb(0,0,127);" points=" 802 127 812 132 802 127 812 122 802 127" />
      <path d="M930 655 L1040 655 L1040 135" style="fill:none; clip-path:url(#clipPath1); stroke:rgb(0,0,127);" />
      <polygon style="fill:rgb(0,0,127); clip-path:url(#clipPath49); stroke:none;" points=" 1040 135 1035 145 1040 135 1045 145 1040 135" />
      <polygon style="fill:none; clip-path:url(#clipPath49); stroke:rgb(0,0,127);" points=" 1040 135 1035 145 1040 135 1045 145 1040 135" />
      <text x="0" y="13" transform="translate(982,642)" style="font-size:13; clip-path:url(#clipPath50); fill:black; stroke:none;" xml:space="preserve">[nein]</text>
      <path d="M930 655 L1040 655 L1040 135" style="fill:none; clip-path:url(#clipPath1); stroke:rgb(0,0,127);" />
      <polygon style="fill:rgb(0,0,127); clip-path:url(#clipPath49); stroke:none;" points=" 1040 135 1035 145 1040 135 1045 145 1040 135" />
      <polygon style="fill:none; clip-path:url(#clipPath49); stroke:rgb(0,0,127);" points=" 1040 135 1035 145 1040 135 1045 145 1040 135" />
      <text x="0" y="13" transform="translate(982,642)" style="font-size:13; clip-path:url(#clipPath50); fill:black; stroke:none;" xml:space="preserve">[nein]</text>
      <path d="M930 735 L1120 735 L1120 200 L801 200" style="fill:none; clip-path:url(#clipPath1); stroke:rgb(0,0,127);" />
      <polygon style="fill:rgb(0,0,127); clip-path:url(#clipPath51); stroke:none;" points=" 801 199 811 204 801 199 811 194 801 199" />
      <polygon style="fill:none; clip-path:url(#clipPath51); stroke:rgb(0,0,127);" points=" 801 199 811 204 801 199 811 194 801 199" />
      <text x="0" y="13" transform="translate(982,722)" style="font-size:13; clip-path:url(#clipPath50); fill:black; stroke:none;" xml:space="preserve">[nein]</text>
      <path d="M930 735 L1120 735 L1120 200 L801 200" style="fill:none; clip-path:url(#clipPath1); stroke:rgb(0,0,127);" />
      <polygon style="fill:rgb(0,0,127); clip-path:url(#clipPath51); stroke:none;" points=" 801 199 811 204 801 199 811 194 801 199" />
      <polygon style="fill:none; clip-path:url(#clipPath51); stroke:rgb(0,0,127);" points=" 801 199 811 204 801 199 811 194 801 199" />
      <text x="0" y="13" transform="translate(982,722)" style="font-size:13; clip-path:url(#clipPath50); fill:black; stroke:none;" xml:space="preserve">[nein]</text>
      <path d="M900 560 L900 580" style="fill:none; clip-path:url(#clipPath1); stroke:rgb(0,0,127);" />
      <polygon style="fill:rgb(0,0,127); clip-path:url(#clipPath52); stroke:none;" points=" 900 579 905 569 900 579 895 569 900 579" />
      <polygon style="fill:none; clip-path:url(#clipPath52); stroke:rgb(0,0,127);" points=" 900 579 905 569 900 579 895 569 900 579" />
      <path d="M900 560 L900 580" style="fill:none; clip-path:url(#clipPath1); stroke:rgb(0,0,127);" />
      <polygon style="fill:rgb(0,0,127); clip-path:url(#clipPath52); stroke:none;" points=" 900 579 905 569 900 579 895 569 900 579" />
      <polygon style="fill:none; clip-path:url(#clipPath52); stroke:rgb(0,0,127);" points=" 900 579 905 569 900 579 895 569 900 579" />
      <path d="M905 608 L904 641" style="fill:none; clip-path:url(#clipPath1); stroke:rgb(0,0,127);" />
      <polygon style="fill:rgb(0,0,127); clip-path:url(#clipPath53); stroke:none;" points=" 904 639 909 629 904 639 899 629 904 639" />
      <polygon style="fill:none; clip-path:url(#clipPath53); stroke:rgb(0,0,127);" points=" 904 639 909 629 904 639 899 629 904 639" />
      <path d="M905 608 L904 641" style="fill:none; clip-path:url(#clipPath1); stroke:rgb(0,0,127);" />
      <polygon style="fill:rgb(0,0,127); clip-path:url(#clipPath53); stroke:none;" points=" 904 639 909 629 904 639 899 629 904 639" />
      <polygon style="fill:none; clip-path:url(#clipPath53); stroke:rgb(0,0,127);" points=" 904 639 909 629 904 639 899 629 904 639" />
      <path d="M900 669 L901 720" style="fill:none; clip-path:url(#clipPath1); stroke:rgb(0,0,127);" />
      <polygon style="fill:rgb(0,0,127); clip-path:url(#clipPath54); stroke:none;" points=" 900 718 905 708 900 718 895 708 900 718" />
      <polygon style="fill:none; clip-path:url(#clipPath54); stroke:rgb(0,0,127);" points=" 900 718 905 708 900 718 895 708 900 718" />
      <text x="0" y="13" transform="translate(902,682)" style="font-size:13; clip-path:url(#clipPath46); fill:black; stroke:none;" xml:space="preserve">[ja]</text>
      <path d="M900 669 L901 720" style="fill:none; clip-path:url(#clipPath1); stroke:rgb(0,0,127);" />
      <polygon style="fill:rgb(0,0,127); clip-path:url(#clipPath54); stroke:none;" points=" 900 718 905 708 900 718 895 708 900 718" />
      <polygon style="fill:none; clip-path:url(#clipPath54); stroke:rgb(0,0,127);" points=" 900 718 905 708 900 718 895 708 900 718" />
      <text x="0" y="13" transform="translate(902,682)" style="font-size:13; clip-path:url(#clipPath46); fill:black; stroke:none;" xml:space="preserve">[ja]</text>
      <path d="M639 424 L640 330 L840 330" style="fill:none; clip-path:url(#clipPath1); stroke:rgb(0,0,127);" />
      <polygon style="fill:rgb(0,0,127); clip-path:url(#clipPath55); stroke:none;" points=" 839 330 829 325 839 330 829 335 839 330" />
      <polygon style="fill:none; clip-path:url(#clipPath55); stroke:rgb(0,0,127);" points=" 839 330 829 325 839 330 829 335 839 330" />
      <text x="0" y="13" transform="translate(662,342)" style="font-size:13; clip-path:url(#clipPath56); fill:black; stroke:none;" xml:space="preserve">[neuer Höchstwert]</text>
      <path d="M639 424 L640 330 L840 330" style="fill:none; clip-path:url(#clipPath1); stroke:rgb(0,0,127);" />
      <polygon style="fill:rgb(0,0,127); clip-path:url(#clipPath55); stroke:none;" points=" 839 330 829 325 839 330 829 335 839 330" />
      <polygon style="fill:none; clip-path:url(#clipPath55); stroke:rgb(0,0,127);" points=" 839 330 829 325 839 330 829 335 839 330" />
      <text x="0" y="13" transform="translate(662,342)" style="font-size:13; clip-path:url(#clipPath56); fill:black; stroke:none;" xml:space="preserve">[neuer Höchstwert]</text>
      <path d="M640 444 L640 540 L840 540" style="fill:none; clip-path:url(#clipPath1); stroke:rgb(0,0,127);" />
      <polygon style="fill:rgb(0,0,127); clip-path:url(#clipPath57); stroke:none;" points=" 839 540 829 535 839 540 829 545 839 540" />
      <polygon style="fill:none; clip-path:url(#clipPath57); stroke:rgb(0,0,127);" points=" 839 540 829 535 839 540 829 545 839 540" />
      <text x="0" y="13" transform="translate(642,522)" style="font-size:13; clip-path:url(#clipPath58); fill:black; stroke:none;" xml:space="preserve">[= gemerkter Höchstwert]</text>
      <path d="M640 444 L640 540 L840 540" style="fill:none; clip-path:url(#clipPath1); stroke:rgb(0,0,127);" />
      <polygon style="fill:rgb(0,0,127); clip-path:url(#clipPath57); stroke:none;" points=" 839 540 829 535 839 540 829 545 839 540" />
      <polygon style="fill:none; clip-path:url(#clipPath57); stroke:rgb(0,0,127);" points=" 839 540 829 535 839 540 829 545 839 540" />
      <text x="0" y="13" transform="translate(642,522)" style="font-size:13; clip-path:url(#clipPath58); fill:black; stroke:none;" xml:space="preserve">[= gemerkter Höchstwert]</text>
      <path d="M629 449 L630 600 L881 600" style="fill:none; clip-path:url(#clipPath1); stroke:rgb(0,0,127);" />
      <polygon style="fill:rgb(0,0,127); clip-path:url(#clipPath59); stroke:none;" points=" 880 600 870 595 880 600 870 605 880 600" />
      <polygon style="fill:none; clip-path:url(#clipPath59); stroke:rgb(0,0,127);" points=" 880 600 870 595 880 600 870 605 880 600" />
      <text x="0" y="13" transform="translate(662,582)" style="font-size:13; clip-path:url(#clipPath58); fill:black; stroke:none;" xml:space="preserve">[&lt; gemerkter Höchstwert]</text>
      <path d="M629 449 L630 600 L881 600" style="fill:none; clip-path:url(#clipPath1); stroke:rgb(0,0,127);" />
      <polygon style="fill:rgb(0,0,127); clip-path:url(#clipPath59); stroke:none;" points=" 880 600 870 595 880 600 870 605 880 600" />
      <polygon style="fill:none; clip-path:url(#clipPath59); stroke:rgb(0,0,127);" points=" 880 600 870 595 880 600 870 605 880 600" />
      <text x="0" y="13" transform="translate(662,582)" style="font-size:13; clip-path:url(#clipPath58); fill:black; stroke:none;" xml:space="preserve">[&lt; gemerkter Höchstwert]</text>
      <path d="M300 130 L300 350 L500 350" style="fill:none; clip-path:url(#clipPath1); stroke:rgb(0,0,127);" />
      <polygon style="fill:rgb(0,0,127); clip-path:url(#clipPath60); stroke:none;" points=" 499 350 489 345 499 350 489 355 499 350" />
      <polygon style="fill:none; clip-path:url(#clipPath60); stroke:rgb(0,0,127);" points=" 499 350 489 345 499 350 489 355 499 350" />
      <path d="M300 130 L300 350 L500 350" style="fill:none; clip-path:url(#clipPath1); stroke:rgb(0,0,127);" />
      <polygon style="fill:rgb(0,0,127); clip-path:url(#clipPath60); stroke:none;" points=" 499 350 489 345 499 350 489 355 499 350" />
      <polygon style="fill:none; clip-path:url(#clipPath60); stroke:rgb(0,0,127);" points=" 499 350 489 345 499 350 489 355 499 350" />
      <path d="M540 381 L540 435 L601 434" style="fill:none; clip-path:url(#clipPath1); stroke:rgb(0,0,127);" />
      <polygon style="fill:rgb(0,0,127); clip-path:url(#clipPath61); stroke:none;" points=" 599 434 589 429 599 434 589 439 599 434" />
      <polygon style="fill:none; clip-path:url(#clipPath61); stroke:rgb(0,0,127);" points=" 599 434 589 429 599 434 589 439 599 434" />
      <path d="M540 381 L540 435 L601 434" style="fill:none; clip-path:url(#clipPath1); stroke:rgb(0,0,127);" />
      <polygon style="fill:rgb(0,0,127); clip-path:url(#clipPath61); stroke:none;" points=" 599 434 589 429 599 434 589 439 599 434" />
      <polygon style="fill:none; clip-path:url(#clipPath61); stroke:rgb(0,0,127);" points=" 599 434 589 429 599 434 589 439 599 434" />
    </g>
  </g>
</svg>
