<?xml version="1.0" encoding="UTF-8"?>

<!DOCTYPE svg PUBLIC '-//W3C//DTD SVG 1.0//EN' 'http://www.w3.org/TR/2001/REC-SVG-20010904/DTD/svg10.dtd'>
<svg style="fill-opacity:1; color-rendering:auto; color-interpolation:auto; text-rendering:auto; stroke:black; stroke-linecap:square; stroke-miterlimit:10; shape-rendering:auto; stroke-opacity:1; fill:black; stroke-dasharray:none; font-weight:normal; stroke-width:1; font-family:&apos;Dialog&apos;; font-style:normal; stroke-linejoin:miter; font-size:12; stroke-dashoffset:0; image-rendering:auto;" xmlns="http://www.w3.org/2000/svg" width="1323" xmlns:xlink="http://www.w3.org/1999/xlink" height="501">
  <!--Generated by Selena using Batik-->
  <defs id="genericDefs" />
  <g>
    <defs id="defs1">
      <clipPath clipPathUnits="userSpaceOnUse" id="clipPath1">
        <path d="M0 0 L12000 0 L12000 12000 L0 12000 L0 0 Z" />
      </clipPath>
      <clipPath clipPathUnits="userSpaceOnUse" id="clipPath2">
        <path d="M15 15 L15 401 L741 401 L741 15 Z" />
      </clipPath>
      <clipPath clipPathUnits="userSpaceOnUse" id="clipPath3">
        <path d="M273 0 L273 15 L442 15 L442 0 Z" />
      </clipPath>
      <clipPath clipPathUnits="userSpaceOnUse" id="clipPath4">
        <path d="M520 36 L520 398 L722 398 L722 36 Z" />
      </clipPath>
      <clipPath clipPathUnits="userSpaceOnUse" id="clipPath5">
        <path d="M520 36 L520 51 L722 51 L722 36 Z" />
      </clipPath>
      <clipPath clipPathUnits="userSpaceOnUse" id="clipPath6">
        <path d="M73 0 L73 15 L118 15 L118 0 Z" />
      </clipPath>
      <clipPath clipPathUnits="userSpaceOnUse" id="clipPath7">
        <path d="M560 102 L560 143 L701 143 L701 102 Z" />
      </clipPath>
      <clipPath clipPathUnits="userSpaceOnUse" id="clipPath8">
        <path d="M18 0 L18 30 L112 30 L112 0 Z" />
      </clipPath>
      <clipPath clipPathUnits="userSpaceOnUse" id="clipPath9">
        <path d="M20 36 L20 398 L501 398 L501 36 Z" />
      </clipPath>
      <clipPath clipPathUnits="userSpaceOnUse" id="clipPath10">
        <path d="M20 36 L20 51 L501 51 L501 36 Z" />
      </clipPath>
      <clipPath clipPathUnits="userSpaceOnUse" id="clipPath11">
        <path d="M145 0 L145 15 L325 15 L325 0 Z" />
      </clipPath>
      <clipPath clipPathUnits="userSpaceOnUse" id="clipPath12">
        <path d="M179 182 L179 212 L239 212 L239 182 Z" />
      </clipPath>
      <clipPath clipPathUnits="userSpaceOnUse" id="clipPath13">
        <path d="M40 282 L40 312 L122 312 L122 282 Z" />
      </clipPath>
      <clipPath clipPathUnits="userSpaceOnUse" id="clipPath14">
        <path d="M71 339 L71 357 L89 357 L89 339 Z" />
      </clipPath>
      <clipPath clipPathUnits="userSpaceOnUse" id="clipPath15">
        <path d="M200 339 L200 357 L218 357 L218 339 Z" />
      </clipPath>
      <clipPath clipPathUnits="userSpaceOnUse" id="clipPath16">
        <path d="M60 82 L60 123 L260 123 L260 82 Z" />
      </clipPath>
      <clipPath clipPathUnits="userSpaceOnUse" id="clipPath17">
        <path d="M440 62 L440 77 L455 77 L455 62 Z" />
      </clipPath>
      <clipPath clipPathUnits="userSpaceOnUse" id="clipPath18">
        <path d="M340 299 L340 340 L481 340 L481 299 Z" />
      </clipPath>
      <clipPath clipPathUnits="userSpaceOnUse" id="clipPath19">
        <path d="M0 0 L0 15 L89 15 L89 0 Z" />
      </clipPath>
      <clipPath clipPathUnits="userSpaceOnUse" id="clipPath20">
        <path d="M0 0 L0 15 L72 15 L72 0 Z" />
      </clipPath>
      <clipPath clipPathUnits="userSpaceOnUse" id="clipPath21">
        <path d="M74 342 L74 354 L86 354 L86 342 Z" />
      </clipPath>
      <clipPath clipPathUnits="userSpaceOnUse" id="clipPath22">
        <path d="M203 342 L203 354 L215 354 L215 342 Z" />
      </clipPath>
      <clipPath clipPathUnits="userSpaceOnUse" id="clipPath23">
        <path d="M10 0 L10 15 L179 15 L179 0 Z" />
      </clipPath>
      <clipPath clipPathUnits="userSpaceOnUse" id="clipPath24">
        <path d="M15 0 L15 30 L116 30 L116 0 Z" />
      </clipPath>
      <clipPath clipPathUnits="userSpaceOnUse" id="clipPath25">
        <path d="M260 105 L260 116 L271 116 L271 105 Z" />
      </clipPath>
      <clipPath clipPathUnits="userSpaceOnUse" id="clipPath26">
        <path d="M655 89 L655 100 L666 100 L666 89 Z" />
      </clipPath>
      <clipPath clipPathUnits="userSpaceOnUse" id="clipPath27">
        <path d="M355 286 L355 297 L366 297 L366 286 Z" />
      </clipPath>
      <clipPath clipPathUnits="userSpaceOnUse" id="clipPath28">
        <path d="M0 0 L0 57 L101 57 L101 0 Z" />
      </clipPath>
      <clipPath clipPathUnits="userSpaceOnUse" id="clipPath29">
        <path d="M625 143 L625 154 L636 154 L636 143 Z" />
      </clipPath>
      <clipPath clipPathUnits="userSpaceOnUse" id="clipPath30">
        <path d="M203 326 L203 337 L214 337 L214 326 Z" />
      </clipPath>
      <clipPath clipPathUnits="userSpaceOnUse" id="clipPath31">
        <path d="M0 0 L0 15 L62 15 L62 0 Z" />
      </clipPath>
      <clipPath clipPathUnits="userSpaceOnUse" id="clipPath32">
        <path d="M204 169 L204 180 L215 180 L215 169 Z" />
      </clipPath>
      <clipPath clipPathUnits="userSpaceOnUse" id="clipPath33">
        <path d="M75 326 L75 337 L86 337 L86 326 Z" />
      </clipPath>
      <clipPath clipPathUnits="userSpaceOnUse" id="clipPath34">
        <path d="M55 269 L55 280 L66 280 L66 269 Z" />
      </clipPath>
      <clipPath clipPathUnits="userSpaceOnUse" id="clipPath35">
        <path d="M0 0 L0 60 L132 60 L132 0 Z" />
      </clipPath>
    </defs>
    <g style="fill:white; stroke:white;">
      <rect x="0" y="0" width="1323" style="clip-path:url(#clipPath1); stroke:none;" height="501" />
      <rect x="0" y="0" width="1322" style="clip-path:url(#clipPath1); fill:none; stroke:blue;" height="500" />
      <rect x="15" y="15" width="726" style="clip-path:url(#clipPath2); stroke:none;" rx="4" ry="4" height="386" />
      <rect x="15" y="15" width="725" style="clip-path:url(#clipPath2); fill:none; stroke:black;" rx="4" ry="4" height="385" />
      <text x="273" y="13" transform="translate(20,15)" style="font-size:13; clip-path:url(#clipPath3); fill:black; stroke:none;" xml:space="preserve">Wissensstreiter versetzen</text>
      <rect x="520" y="36" width="202" style="clip-path:url(#clipPath4); stroke:none;" height="362" />
      <rect x="520" y="36" width="201" style="clip-path:url(#clipPath4); fill:none; stroke:black;" height="361" />
      <rect x="520" y="36" width="202" style="clip-path:url(#clipPath5); stroke:none;" height="15" />
      <rect x="520" y="36" width="201" style="clip-path:url(#clipPath5); fill:none; stroke:black;" height="14" />
      <text x="73" y="13" transform="translate(525,36)" style="font-size:13; clip-path:url(#clipPath6); fill:black; stroke:none;" xml:space="preserve">Spieler</text>
      <rect x="560" y="102" transform="translate(3,3)" width="141" style="clip-path:url(#clipPath7); fill:rgb(153,153,153); stroke:none;" rx="4" ry="4" height="41" />
      <rect x="560" y="102" transform="translate(3,3)" width="140" style="clip-path:url(#clipPath7); fill:none; stroke:rgb(153,153,153);" rx="4" ry="4" height="40" />
      <rect x="560" y="102" width="141" style="clip-path:url(#clipPath7); stroke:none;" rx="4" ry="4" height="41" />
      <rect x="560" y="102" width="140" style="clip-path:url(#clipPath7); fill:none; stroke:black;" rx="4" ry="4" height="40" />
      <text x="18" y="13" transform="translate(565,107)" style="font-size:13; clip-path:url(#clipPath8); fill:black; stroke:none;" xml:space="preserve">Wissenstreiter</text>
      <text x="30" y="28" transform="translate(565,107)" style="font-size:13; clip-path:url(#clipPath8); fill:black; stroke:none;" xml:space="preserve">auswählen</text>
      <rect x="20" y="36" width="481" style="clip-path:url(#clipPath9); stroke:none;" height="362" />
      <rect x="20" y="36" width="480" style="clip-path:url(#clipPath9); fill:none; stroke:black;" height="361" />
      <rect x="20" y="36" width="481" style="clip-path:url(#clipPath10); stroke:none;" height="15" />
      <rect x="20" y="36" width="480" style="clip-path:url(#clipPath10); fill:none; stroke:black;" height="14" />
      <text x="145" y="13" transform="translate(25,36)" style="font-size:13; clip-path:url(#clipPath11); fill:black; stroke:none;" xml:space="preserve">Path of Enlightenment Spiel</text>
      <polygon points=" 179 196 208 182 238 196 208 211 179 196" transform="translate(3,3)" style="fill:rgb(153,153,153); clip-path:url(#clipPath12); stroke:none;" />
      <polygon points=" 179 196 208 182 238 196 208 211 179 196" transform="translate(3,3)" style="fill:none; clip-path:url(#clipPath12); stroke:rgb(153,153,153);" />
      <rect x="40" y="282" transform="translate(3,3)" width="82" style="clip-path:url(#clipPath13); fill:rgb(153,153,153); stroke:none;" rx="4" ry="4" height="30" />
      <rect x="40" y="282" transform="translate(3,3)" width="81" style="clip-path:url(#clipPath13); fill:none; stroke:rgb(153,153,153);" rx="4" ry="4" height="29" />
      <circle transform="translate(3,3)" style="clip-path:url(#clipPath14); fill:rgb(153,153,153); stroke:none;" r="8.5" cx="79.5" cy="347.5" />
      <circle transform="translate(3,3)" style="clip-path:url(#clipPath14); fill:none; stroke:rgb(153,153,153);" r="8.5" cx="79.5" cy="347.5" />
      <circle transform="translate(3,3)" style="clip-path:url(#clipPath15); fill:rgb(153,153,153); stroke:none;" r="8.5" cx="208.5" cy="347.5" />
      <circle transform="translate(3,3)" style="clip-path:url(#clipPath15); fill:none; stroke:rgb(153,153,153);" r="8.5" cx="208.5" cy="347.5" />
      <rect x="60" y="82" transform="translate(3,3)" width="200" style="clip-path:url(#clipPath16); fill:rgb(153,153,153); stroke:none;" rx="4" ry="4" height="41" />
      <rect x="60" y="82" transform="translate(3,3)" width="199" style="clip-path:url(#clipPath16); fill:none; stroke:rgb(153,153,153);" rx="4" ry="4" height="40" />
      <circle transform="translate(3,3)" style="clip-path:url(#clipPath17); fill:rgb(153,153,153); stroke:none;" r="7" cx="447" cy="69" />
      <circle transform="translate(3,3)" style="clip-path:url(#clipPath17); fill:none; stroke:rgb(153,153,153);" r="7" cx="447" cy="69" />
      <rect x="340" y="299" transform="translate(3,3)" width="141" style="clip-path:url(#clipPath18); fill:rgb(153,153,153); stroke:none;" rx="4" ry="4" height="41" />
      <rect x="340" y="299" transform="translate(3,3)" width="140" style="clip-path:url(#clipPath18); fill:none; stroke:rgb(153,153,153);" rx="4" ry="4" height="40" />
      <polygon style="clip-path:url(#clipPath12); stroke:none;" points=" 179 196 208 182 238 196 208 211 179 196" />
      <polygon style="fill:none; clip-path:url(#clipPath12); stroke:black;" points=" 179 196 208 182 238 196 208 211 179 196" />
      <text x="0" y="13" transform="translate(220,162)" style="font-size:13; clip-path:url(#clipPath19); fill:black; stroke:none;" xml:space="preserve">Zug zulässig?</text>
      <rect x="40" y="282" width="82" style="clip-path:url(#clipPath13); fill:rgb(173,216,230); stroke:none;" rx="4" ry="4" height="30" />
      <rect x="40" y="282" width="81" style="clip-path:url(#clipPath13); fill:none; stroke:black;" rx="4" ry="4" height="29" />
      <text x="0" y="13" transform="translate(45,289)" style="font-size:13; clip-path:url(#clipPath20); fill:blue; stroke:none;" xml:space="preserve">Fragerunde</text>
      <circle style="clip-path:url(#clipPath14); stroke:none;" r="8.5" cx="79.5" cy="347.5" />
      <circle style="clip-path:url(#clipPath14); fill:none; stroke:black;" r="8.5" cx="79.5" cy="347.5" />
      <circle style="clip-path:url(#clipPath21); fill:black; stroke:none;" r="5.5" cx="79.5" cy="347.5" />
      <circle style="clip-path:url(#clipPath15); stroke:none;" r="8.5" cx="208.5" cy="347.5" />
      <circle style="clip-path:url(#clipPath15); fill:none; stroke:black;" r="8.5" cx="208.5" cy="347.5" />
      <circle style="clip-path:url(#clipPath22); fill:black; stroke:none;" r="5.5" cx="208.5" cy="347.5" />
      <rect x="60" y="82" width="200" style="clip-path:url(#clipPath16); stroke:none;" rx="4" ry="4" height="41" />
      <rect x="60" y="82" width="199" style="clip-path:url(#clipPath16); fill:none; stroke:black;" rx="4" ry="4" height="40" />
      <text x="10" y="13" transform="translate(65,95)" style="font-size:13; clip-path:url(#clipPath23); fill:black; stroke:none;" xml:space="preserve">Wissensstreiter vorsetzen</text>
      <circle style="clip-path:url(#clipPath17); fill:black; stroke:none;" r="7" cx="447" cy="69" />
      <circle style="clip-path:url(#clipPath17); fill:none; stroke:black;" r="7" cx="447" cy="69" />
      <rect x="340" y="299" width="141" style="clip-path:url(#clipPath18); stroke:none;" rx="4" ry="4" height="41" />
      <rect x="340" y="299" width="140" style="clip-path:url(#clipPath18); fill:none; stroke:black;" rx="4" ry="4" height="40" />
      <text x="15" y="13" transform="translate(345,304)" style="font-size:13; clip-path:url(#clipPath24); fill:black; stroke:none;" xml:space="preserve">Wissensstreiter</text>
      <text x="22" y="28" transform="translate(345,304)" style="font-size:13; clip-path:url(#clipPath24); fill:black; stroke:none;" xml:space="preserve">zurücksetzen</text>
      <path d="M560 110 L260 110" style="fill:none; clip-path:url(#clipPath1); stroke:rgb(0,0,127);" />
      <polygon style="fill:rgb(0,0,127); clip-path:url(#clipPath25); stroke:none;" points=" 260 110 270 115 260 110 270 105 260 110" />
      <polygon style="fill:none; clip-path:url(#clipPath25); stroke:rgb(0,0,127);" points=" 260 110 270 115 260 110 270 105 260 110" />
      <path d="M560 110 L260 110" style="fill:none; clip-path:url(#clipPath1); stroke:rgb(0,0,127);" />
      <polygon style="fill:rgb(0,0,127); clip-path:url(#clipPath25); stroke:none;" points=" 260 110 270 115 260 110 270 105 260 110" />
      <polygon style="fill:none; clip-path:url(#clipPath25); stroke:rgb(0,0,127);" points=" 260 110 270 115 260 110 270 105 260 110" />
      <path d="M455 67 L660 67 L660 100" style="fill:none; clip-path:url(#clipPath1); stroke:rgb(0,0,127);" />
      <polygon style="fill:rgb(0,0,127); clip-path:url(#clipPath26); stroke:none;" points=" 660 99 665 89 660 99 655 89 660 99" />
      <polygon style="fill:none; clip-path:url(#clipPath26); stroke:rgb(0,0,127);" points=" 660 99 665 89 660 99 655 89 660 99" />
      <path d="M455 67 L660 67 L660 100" style="fill:none; clip-path:url(#clipPath1); stroke:rgb(0,0,127);" />
      <polygon style="fill:rgb(0,0,127); clip-path:url(#clipPath26); stroke:none;" points=" 660 99 665 89 660 99 655 89 660 99" />
      <polygon style="fill:none; clip-path:url(#clipPath26); stroke:rgb(0,0,127);" points=" 660 99 665 89 660 99 655 89 660 99" />
      <path d="M238 195 L360 195 L360 297" style="fill:none; clip-path:url(#clipPath1); stroke:rgb(0,0,127);" />
      <polygon style="fill:rgb(0,0,127); clip-path:url(#clipPath27); stroke:none;" points=" 360 296 365 286 360 296 355 286 360 296" />
      <polygon style="fill:none; clip-path:url(#clipPath27); stroke:rgb(0,0,127);" points=" 360 296 365 286 360 296 355 286 360 296" />
      <text x="0" y="13" transform="translate(362,202)" style="font-size:13; clip-path:url(#clipPath28); fill:black; stroke:none;" xml:space="preserve">[Feld durch</text>
      <text x="0" y="28" transform="translate(362,202)" style="font-size:13; clip-path:url(#clipPath28); fill:black; stroke:none;" xml:space="preserve">eigenen</text>
      <text x="0" y="43" transform="translate(362,202)" style="font-size:13; clip-path:url(#clipPath28); fill:black; stroke:none;" xml:space="preserve">Wissensstreiter</text>
      <text x="0" y="58" transform="translate(362,202)" style="font-size:13; clip-path:url(#clipPath28); fill:black; stroke:none;" xml:space="preserve">belegt]</text>
      <path d="M238 195 L360 195 L360 297" style="fill:none; clip-path:url(#clipPath1); stroke:rgb(0,0,127);" />
      <polygon style="fill:rgb(0,0,127); clip-path:url(#clipPath27); stroke:none;" points=" 360 296 365 286 360 296 355 286 360 296" />
      <polygon style="fill:none; clip-path:url(#clipPath27); stroke:rgb(0,0,127);" points=" 360 296 365 286 360 296 355 286 360 296" />
      <text x="0" y="13" transform="translate(362,202)" style="font-size:13; clip-path:url(#clipPath28); fill:black; stroke:none;" xml:space="preserve">[Feld durch</text>
      <text x="0" y="28" transform="translate(362,202)" style="font-size:13; clip-path:url(#clipPath28); fill:black; stroke:none;" xml:space="preserve">eigenen</text>
      <text x="0" y="43" transform="translate(362,202)" style="font-size:13; clip-path:url(#clipPath28); fill:black; stroke:none;" xml:space="preserve">Wissensstreiter</text>
      <text x="0" y="58" transform="translate(362,202)" style="font-size:13; clip-path:url(#clipPath28); fill:black; stroke:none;" xml:space="preserve">belegt]</text>
      <path d="M481 320 L630 320 L630 143" style="fill:none; clip-path:url(#clipPath1); stroke:rgb(0,0,127);" />
      <polygon style="fill:rgb(0,0,127); clip-path:url(#clipPath29); stroke:none;" points=" 630 143 625 153 630 143 635 153 630 143" />
      <polygon style="fill:none; clip-path:url(#clipPath29); stroke:rgb(0,0,127);" points=" 630 143 625 153 630 143 635 153 630 143" />
      <path d="M481 320 L630 320 L630 143" style="fill:none; clip-path:url(#clipPath1); stroke:rgb(0,0,127);" />
      <polygon style="fill:rgb(0,0,127); clip-path:url(#clipPath29); stroke:none;" points=" 630 143 625 153 630 143 635 153 630 143" />
      <polygon style="fill:none; clip-path:url(#clipPath29); stroke:rgb(0,0,127);" points=" 630 143 625 153 630 143 635 153 630 143" />
      <path d="M208 211 L209 220 L209 337" style="fill:none; clip-path:url(#clipPath1); stroke:rgb(0,0,127);" />
      <polygon style="fill:rgb(0,0,127); clip-path:url(#clipPath30); stroke:none;" points=" 208 336 213 326 208 336 203 326 208 336" />
      <polygon style="fill:none; clip-path:url(#clipPath30); stroke:rgb(0,0,127);" points=" 208 336 213 326 208 336 203 326 208 336" />
      <text x="0" y="13" transform="translate(222,302)" style="font-size:13; clip-path:url(#clipPath31); fill:black; stroke:none;" xml:space="preserve">[Feld frei]</text>
      <path d="M208 211 L209 220 L209 337" style="fill:none; clip-path:url(#clipPath1); stroke:rgb(0,0,127);" />
      <polygon style="fill:rgb(0,0,127); clip-path:url(#clipPath30); stroke:none;" points=" 208 336 213 326 208 336 203 326 208 336" />
      <polygon style="fill:none; clip-path:url(#clipPath30); stroke:rgb(0,0,127);" points=" 208 336 213 326 208 336 203 326 208 336" />
      <text x="0" y="13" transform="translate(222,302)" style="font-size:13; clip-path:url(#clipPath31); fill:black; stroke:none;" xml:space="preserve">[Feld frei]</text>
      <path d="M209 123 L209 180" style="fill:none; clip-path:url(#clipPath1); stroke:rgb(0,0,127);" />
      <polygon style="fill:rgb(0,0,127); clip-path:url(#clipPath32); stroke:none;" points=" 209 179 214 169 209 179 204 169 209 179" />
      <polygon style="fill:none; clip-path:url(#clipPath32); stroke:rgb(0,0,127);" points=" 209 179 214 169 209 179 204 169 209 179" />
      <path d="M209 123 L209 180" style="fill:none; clip-path:url(#clipPath1); stroke:rgb(0,0,127);" />
      <polygon style="fill:rgb(0,0,127); clip-path:url(#clipPath32); stroke:none;" points=" 209 179 214 169 209 179 204 169 209 179" />
      <polygon style="fill:none; clip-path:url(#clipPath32); stroke:rgb(0,0,127);" points=" 209 179 214 169 209 179 204 169 209 179" />
      <path d="M80 312 L80 337" style="fill:none; clip-path:url(#clipPath1); stroke:rgb(0,0,127);" />
      <polygon style="fill:rgb(0,0,127); clip-path:url(#clipPath33); stroke:none;" points=" 80 336 85 326 80 336 75 326 80 336" />
      <polygon style="fill:none; clip-path:url(#clipPath33); stroke:rgb(0,0,127);" points=" 80 336 85 326 80 336 75 326 80 336" />
      <path d="M80 312 L80 337" style="fill:none; clip-path:url(#clipPath1); stroke:rgb(0,0,127);" />
      <polygon style="fill:rgb(0,0,127); clip-path:url(#clipPath33); stroke:none;" points=" 80 336 85 326 80 336 75 326 80 336" />
      <polygon style="fill:none; clip-path:url(#clipPath33); stroke:rgb(0,0,127);" points=" 80 336 85 326 80 336 75 326 80 336" />
      <path d="M189 200 L60 200 L60 280" style="fill:none; clip-path:url(#clipPath1); stroke:rgb(0,0,127);" />
      <polygon style="fill:rgb(0,0,127); clip-path:url(#clipPath34); stroke:none;" points=" 60 279 65 269 60 279 55 269 60 279" />
      <polygon style="fill:none; clip-path:url(#clipPath34); stroke:rgb(0,0,127);" points=" 60 279 65 269 60 279 55 269 60 279" />
      <text x="0" y="13" transform="translate(62,202)" style="font-size:13; clip-path:url(#clipPath35); fill:black; stroke:none;" xml:space="preserve">[Feld durch</text>
      <text x="0" y="28" transform="translate(62,202)" style="font-size:13; clip-path:url(#clipPath35); fill:black; stroke:none;" xml:space="preserve">Wissensstreiter</text>
      <text x="0" y="43" transform="translate(62,202)" style="font-size:13; clip-path:url(#clipPath35); fill:black; stroke:none;" xml:space="preserve">eines Gegenspielers</text>
      <text x="0" y="58" transform="translate(62,202)" style="font-size:13; clip-path:url(#clipPath35); fill:black; stroke:none;" xml:space="preserve">belegt]</text>
      <path d="M189 200 L60 200 L60 280" style="fill:none; clip-path:url(#clipPath1); stroke:rgb(0,0,127);" />
      <polygon style="fill:rgb(0,0,127); clip-path:url(#clipPath34); stroke:none;" points=" 60 279 65 269 60 279 55 269 60 279" />
      <polygon style="fill:none; clip-path:url(#clipPath34); stroke:rgb(0,0,127);" points=" 60 279 65 269 60 279 55 269 60 279" />
      <text x="0" y="13" transform="translate(62,202)" style="font-size:13; clip-path:url(#clipPath35); fill:black; stroke:none;" xml:space="preserve">[Feld durch</text>
      <text x="0" y="28" transform="translate(62,202)" style="font-size:13; clip-path:url(#clipPath35); fill:black; stroke:none;" xml:space="preserve">Wissensstreiter</text>
      <text x="0" y="43" transform="translate(62,202)" style="font-size:13; clip-path:url(#clipPath35); fill:black; stroke:none;" xml:space="preserve">eines Gegenspielers</text>
      <text x="0" y="58" transform="translate(62,202)" style="font-size:13; clip-path:url(#clipPath35); fill:black; stroke:none;" xml:space="preserve">belegt]</text>
    </g>
  </g>
</svg>
