<?xml version="1.0" encoding="UTF-8"?>

<!DOCTYPE svg PUBLIC '-//W3C//DTD SVG 1.0//EN' 'http://www.w3.org/TR/2001/REC-SVG-20010904/DTD/svg10.dtd'>
<svg style="fill-opacity:1; color-rendering:auto; color-interpolation:auto; text-rendering:auto; stroke:black; stroke-linecap:square; stroke-miterlimit:10; shape-rendering:auto; stroke-opacity:1; fill:black; stroke-dasharray:none; font-weight:normal; stroke-width:1; font-family:&apos;Dialog&apos;; font-style:normal; stroke-linejoin:miter; font-size:12; stroke-dashoffset:0; image-rendering:auto;" xmlns="http://www.w3.org/2000/svg" width="1323" xmlns:xlink="http://www.w3.org/1999/xlink" height="501">
  <!--Generated by Selena using Batik-->
  <defs id="genericDefs" />
  <g>
    <defs id="defs1">
      <clipPath clipPathUnits="userSpaceOnUse" id="clipPath1">
        <path d="M0 0 L12000 0 L12000 12000 L0 12000 L0 0 Z" />
      </clipPath>
      <clipPath clipPathUnits="userSpaceOnUse" id="clipPath2">
        <path d="M35 15 L35 341 L721 341 L721 15 Z" />
      </clipPath>
      <clipPath clipPathUnits="userSpaceOnUse" id="clipPath3">
        <path d="M268 0 L268 15 L408 15 L408 0 Z" />
      </clipPath>
      <clipPath clipPathUnits="userSpaceOnUse" id="clipPath4">
        <path d="M40 36 L40 338 L441 338 L441 36 Z" />
      </clipPath>
      <clipPath clipPathUnits="userSpaceOnUse" id="clipPath5">
        <path d="M40 36 L40 51 L441 51 L441 36 Z" />
      </clipPath>
      <clipPath clipPathUnits="userSpaceOnUse" id="clipPath6">
        <path d="M105 0 L105 15 L285 15 L285 0 Z" />
      </clipPath>
      <clipPath clipPathUnits="userSpaceOnUse" id="clipPath7">
        <path d="M240 122 L240 152 L300 152 L300 122 Z" />
      </clipPath>
      <clipPath clipPathUnits="userSpaceOnUse" id="clipPath8">
        <path d="M160 69 L160 84 L175 84 L175 69 Z" />
      </clipPath>
      <clipPath clipPathUnits="userSpaceOnUse" id="clipPath9">
        <path d="M76 242 L76 272 L378 272 L378 242 Z" />
      </clipPath>
      <clipPath clipPathUnits="userSpaceOnUse" id="clipPath10">
        <path d="M141 302 L141 320 L159 320 L159 302 Z" />
      </clipPath>
      <clipPath clipPathUnits="userSpaceOnUse" id="clipPath11">
        <path d="M240 62 L240 92 L300 92 L300 62 Z" />
      </clipPath>
      <clipPath clipPathUnits="userSpaceOnUse" id="clipPath12">
        <path d="M7 0 L7 45 L153 45 L153 0 Z" />
      </clipPath>
      <clipPath clipPathUnits="userSpaceOnUse" id="clipPath13">
        <path d="M0 0 L0 15 L292 15 L292 0 Z" />
      </clipPath>
      <clipPath clipPathUnits="userSpaceOnUse" id="clipPath14">
        <path d="M144 305 L144 317 L156 317 L156 305 Z" />
      </clipPath>
      <clipPath clipPathUnits="userSpaceOnUse" id="clipPath15">
        <path d="M3 0 L3 15 L7 15 L7 0 Z" />
      </clipPath>
      <clipPath clipPathUnits="userSpaceOnUse" id="clipPath16">
        <path d="M460 36 L460 338 L701 338 L701 36 Z" />
      </clipPath>
      <clipPath clipPathUnits="userSpaceOnUse" id="clipPath17">
        <path d="M460 36 L460 51 L701 51 L701 36 Z" />
      </clipPath>
      <clipPath clipPathUnits="userSpaceOnUse" id="clipPath18">
        <path d="M93 0 L93 15 L138 15 L138 0 Z" />
      </clipPath>
      <clipPath clipPathUnits="userSpaceOnUse" id="clipPath19">
        <path d="M480 122 L480 181 L661 181 L661 122 Z" />
      </clipPath>
      <clipPath clipPathUnits="userSpaceOnUse" id="clipPath20">
        <path d="M2 0 L2 30 L168 30 L168 0 Z" />
      </clipPath>
      <clipPath clipPathUnits="userSpaceOnUse" id="clipPath21">
        <path d="M469 130 L469 141 L480 141 L480 130 Z" />
      </clipPath>
      <clipPath clipPathUnits="userSpaceOnUse" id="clipPath22">
        <path d="M0 0 L0 15 L22 15 L22 0 Z" />
      </clipPath>
      <clipPath clipPathUnits="userSpaceOnUse" id="clipPath23">
        <path d="M264 108 L264 119 L275 119 L275 108 Z" />
      </clipPath>
      <clipPath clipPathUnits="userSpaceOnUse" id="clipPath24">
        <path d="M235 67 L235 78 L246 78 L246 67 Z" />
      </clipPath>
      <clipPath clipPathUnits="userSpaceOnUse" id="clipPath25">
        <path d="M145 289 L145 300 L156 300 L156 289 Z" />
      </clipPath>
      <clipPath clipPathUnits="userSpaceOnUse" id="clipPath26">
        <path d="M299 70 L299 81 L310 81 L310 70 Z" />
      </clipPath>
      <clipPath clipPathUnits="userSpaceOnUse" id="clipPath27">
        <path d="M264 228 L264 239 L275 239 L275 228 Z" />
      </clipPath>
      <clipPath clipPathUnits="userSpaceOnUse" id="clipPath28">
        <path d="M0 0 L0 15 L38 15 L38 0 Z" />
      </clipPath>
    </defs>
    <g style="fill:white; stroke:white;">
      <rect x="0" y="0" width="1323" style="clip-path:url(#clipPath1); stroke:none;" height="501" />
      <rect x="0" y="0" width="1322" style="clip-path:url(#clipPath1); fill:none; stroke:blue;" height="500" />
      <rect x="35" y="15" width="686" style="clip-path:url(#clipPath2); stroke:none;" rx="4" ry="4" height="326" />
      <rect x="35" y="15" width="685" style="clip-path:url(#clipPath2); fill:none; stroke:black;" rx="4" ry="4" height="325" />
      <text x="268" y="13" transform="translate(40,15)" style="font-size:13; clip-path:url(#clipPath3); fill:black; stroke:none;" xml:space="preserve">Wissenstand erhöhen</text>
      <rect x="40" y="36" width="401" style="clip-path:url(#clipPath4); stroke:none;" height="302" />
      <rect x="40" y="36" width="400" style="clip-path:url(#clipPath4); fill:none; stroke:black;" height="301" />
      <rect x="40" y="36" width="401" style="clip-path:url(#clipPath5); stroke:none;" height="15" />
      <rect x="40" y="36" width="400" style="clip-path:url(#clipPath5); fill:none; stroke:black;" height="14" />
      <text x="105" y="13" transform="translate(45,36)" style="font-size:13; clip-path:url(#clipPath6); fill:black; stroke:none;" xml:space="preserve">Path of Enlightenment Spiel</text>
      <polygon points=" 240 136 269 122 299 136 269 151 240 136" transform="translate(3,3)" style="fill:rgb(153,153,153); clip-path:url(#clipPath7); stroke:none;" />
      <polygon points=" 240 136 269 122 299 136 269 151 240 136" transform="translate(3,3)" style="fill:none; clip-path:url(#clipPath7); stroke:rgb(153,153,153);" />
      <circle transform="translate(3,3)" style="clip-path:url(#clipPath8); fill:rgb(153,153,153); stroke:none;" r="7" cx="167" cy="76" />
      <circle transform="translate(3,3)" style="clip-path:url(#clipPath8); fill:none; stroke:rgb(153,153,153);" r="7" cx="167" cy="76" />
      <rect x="76" y="242" transform="translate(3,3)" width="302" style="clip-path:url(#clipPath9); fill:rgb(153,153,153); stroke:none;" rx="4" ry="4" height="30" />
      <rect x="76" y="242" transform="translate(3,3)" width="301" style="clip-path:url(#clipPath9); fill:none; stroke:rgb(153,153,153);" rx="4" ry="4" height="29" />
      <circle transform="translate(3,3)" style="clip-path:url(#clipPath10); fill:rgb(153,153,153); stroke:none;" r="8.5" cx="149.5" cy="310.5" />
      <circle transform="translate(3,3)" style="clip-path:url(#clipPath10); fill:none; stroke:rgb(153,153,153);" r="8.5" cx="149.5" cy="310.5" />
      <polygon points=" 240 76 269 62 299 76 269 91 240 76" transform="translate(3,3)" style="fill:rgb(153,153,153); clip-path:url(#clipPath11); stroke:none;" />
      <polygon points=" 240 76 269 62 299 76 269 91 240 76" transform="translate(3,3)" style="fill:none; clip-path:url(#clipPath11); stroke:rgb(153,153,153);" />
      <polygon style="clip-path:url(#clipPath7); stroke:none;" points=" 240 136 269 122 299 136 269 151 240 136" />
      <polygon style="fill:none; clip-path:url(#clipPath7); stroke:black;" points=" 240 136 269 122 299 136 269 151 240 136" />
      <text x="7" y="13" transform="translate(80,122)" style="font-size:13; clip-path:url(#clipPath12); fill:black; stroke:none;" xml:space="preserve">Wissensstandanzeiger</text>
      <text x="8" y="28" transform="translate(80,122)" style="font-size:13; clip-path:url(#clipPath12); fill:black; stroke:none;" xml:space="preserve">für geprüfte Kategorie</text>
      <text x="48" y="43" transform="translate(80,122)" style="font-size:13; clip-path:url(#clipPath12); fill:black; stroke:none;" xml:space="preserve">auf max.?</text>
      <circle style="clip-path:url(#clipPath8); fill:black; stroke:none;" r="7" cx="167" cy="76" />
      <circle style="clip-path:url(#clipPath8); fill:none; stroke:black;" r="7" cx="167" cy="76" />
      <rect x="76" y="242" width="302" style="clip-path:url(#clipPath9); stroke:none;" rx="4" ry="4" height="30" />
      <rect x="76" y="242" width="301" style="clip-path:url(#clipPath9); fill:none; stroke:black;" rx="4" ry="4" height="29" />
      <text x="0" y="13" transform="translate(81,249)" style="font-size:13; clip-path:url(#clipPath13); fill:black; stroke:none;" xml:space="preserve">Wissensstandanzeiger für Kategorie erhöhen</text>
      <circle style="clip-path:url(#clipPath10); stroke:none;" r="8.5" cx="149.5" cy="310.5" />
      <circle style="clip-path:url(#clipPath10); fill:none; stroke:black;" r="8.5" cx="149.5" cy="310.5" />
      <circle style="clip-path:url(#clipPath14); fill:black; stroke:none;" r="5.5" cx="149.5" cy="310.5" />
      <polygon style="clip-path:url(#clipPath11); stroke:none;" points=" 240 76 269 62 299 76 269 91 240 76" />
      <polygon style="fill:none; clip-path:url(#clipPath11); stroke:black;" points=" 240 76 269 62 299 76 269 91 240 76" />
      <text x="3" y="13" transform="translate(265,102)" style="font-size:13; clip-path:url(#clipPath15); fill:black; stroke:none;" xml:space="preserve"> </text>
      <rect x="460" y="36" width="241" style="clip-path:url(#clipPath16); stroke:none;" height="302" />
      <rect x="460" y="36" width="240" style="clip-path:url(#clipPath16); fill:none; stroke:black;" height="301" />
      <rect x="460" y="36" width="241" style="clip-path:url(#clipPath17); stroke:none;" height="15" />
      <rect x="460" y="36" width="240" style="clip-path:url(#clipPath17); fill:none; stroke:black;" height="14" />
      <text x="93" y="13" transform="translate(465,36)" style="font-size:13; clip-path:url(#clipPath18); fill:black; stroke:none;" xml:space="preserve">Spieler</text>
      <rect x="480" y="122" transform="translate(3,3)" width="181" style="clip-path:url(#clipPath19); fill:rgb(153,153,153); stroke:none;" rx="4" ry="4" height="59" />
      <rect x="480" y="122" transform="translate(3,3)" width="180" style="clip-path:url(#clipPath19); fill:none; stroke:rgb(153,153,153);" rx="4" ry="4" height="58" />
      <rect x="480" y="122" width="181" style="clip-path:url(#clipPath19); stroke:none;" rx="4" ry="4" height="59" />
      <rect x="480" y="122" width="180" style="clip-path:url(#clipPath19); fill:none; stroke:black;" rx="4" ry="4" height="58" />
      <text x="2" y="13" transform="translate(485,136)" style="font-size:13; clip-path:url(#clipPath20); fill:black; stroke:none;" xml:space="preserve">Andere Wissenskategorie</text>
      <text x="62" y="28" transform="translate(485,136)" style="font-size:13; clip-path:url(#clipPath20); fill:black; stroke:none;" xml:space="preserve">wählen</text>
      <path d="M299 135 L480 135" style="fill:none; clip-path:url(#clipPath1); stroke:rgb(0,0,127);" />
      <polygon style="fill:rgb(0,0,127); clip-path:url(#clipPath21); stroke:none;" points=" 479 135 469 130 479 135 469 140 479 135" />
      <polygon style="fill:none; clip-path:url(#clipPath21); stroke:rgb(0,0,127);" points=" 479 135 469 130 479 135 469 140 479 135" />
      <text x="0" y="13" transform="translate(311,140)" style="font-size:13; clip-path:url(#clipPath22); fill:black; stroke:none;" xml:space="preserve">[ja]</text>
      <path d="M299 135 L480 135" style="fill:none; clip-path:url(#clipPath1); stroke:rgb(0,0,127);" />
      <polygon style="fill:rgb(0,0,127); clip-path:url(#clipPath21); stroke:none;" points=" 479 135 469 130 479 135 469 140 479 135" />
      <polygon style="fill:none; clip-path:url(#clipPath21); stroke:rgb(0,0,127);" points=" 479 135 469 130 479 135 469 140 479 135" />
      <text x="0" y="13" transform="translate(311,140)" style="font-size:13; clip-path:url(#clipPath22); fill:black; stroke:none;" xml:space="preserve">[ja]</text>
      <path d="M269 91 L270 120" style="fill:none; clip-path:url(#clipPath1); stroke:rgb(0,0,127);" />
      <polygon style="fill:rgb(0,0,127); clip-path:url(#clipPath23); stroke:none;" points=" 269 118 274 108 269 118 264 108 269 118" />
      <polygon style="fill:none; clip-path:url(#clipPath23); stroke:rgb(0,0,127);" points=" 269 118 274 108 269 118 264 108 269 118" />
      <path d="M269 91 L270 120" style="fill:none; clip-path:url(#clipPath1); stroke:rgb(0,0,127);" />
      <polygon style="fill:rgb(0,0,127); clip-path:url(#clipPath23); stroke:none;" points=" 269 118 274 108 269 118 264 108 269 118" />
      <polygon style="fill:none; clip-path:url(#clipPath23); stroke:rgb(0,0,127);" points=" 269 118 274 108 269 118 264 108 269 118" />
      <path d="M174 72 L246 72" style="fill:none; clip-path:url(#clipPath1); stroke:rgb(0,0,127);" />
      <polygon style="fill:rgb(0,0,127); clip-path:url(#clipPath24); stroke:none;" points=" 245 72 235 67 245 72 235 77 245 72" />
      <polygon style="fill:none; clip-path:url(#clipPath24); stroke:rgb(0,0,127);" points=" 245 72 235 67 245 72 235 77 245 72" />
      <path d="M174 72 L246 72" style="fill:none; clip-path:url(#clipPath1); stroke:rgb(0,0,127);" />
      <polygon style="fill:rgb(0,0,127); clip-path:url(#clipPath24); stroke:none;" points=" 245 72 235 67 245 72 235 77 245 72" />
      <polygon style="fill:none; clip-path:url(#clipPath24); stroke:rgb(0,0,127);" points=" 245 72 235 67 245 72 235 77 245 72" />
      <path d="M150 272 L150 300" style="fill:none; clip-path:url(#clipPath1); stroke:rgb(0,0,127);" />
      <polygon style="fill:rgb(0,0,127); clip-path:url(#clipPath25); stroke:none;" points=" 150 299 155 289 150 299 145 289 150 299" />
      <polygon style="fill:none; clip-path:url(#clipPath25); stroke:rgb(0,0,127);" points=" 150 299 155 289 150 299 145 289 150 299" />
      <path d="M150 272 L150 300" style="fill:none; clip-path:url(#clipPath1); stroke:rgb(0,0,127);" />
      <polygon style="fill:rgb(0,0,127); clip-path:url(#clipPath25); stroke:none;" points=" 150 299 155 289 150 299 145 289 150 299" />
      <polygon style="fill:none; clip-path:url(#clipPath25); stroke:rgb(0,0,127);" points=" 150 299 155 289 150 299 145 289 150 299" />
      <path d="M620 120 L620 75 L299 75" style="fill:none; clip-path:url(#clipPath1); stroke:rgb(0,0,127);" />
      <polygon style="fill:rgb(0,0,127); clip-path:url(#clipPath26); stroke:none;" points=" 299 75 309 80 299 75 309 70 299 75" />
      <polygon style="fill:none; clip-path:url(#clipPath26); stroke:rgb(0,0,127);" points=" 299 75 309 80 299 75 309 70 299 75" />
      <path d="M620 120 L620 75 L299 75" style="fill:none; clip-path:url(#clipPath1); stroke:rgb(0,0,127);" />
      <polygon style="fill:rgb(0,0,127); clip-path:url(#clipPath26); stroke:none;" points=" 299 75 309 80 299 75 309 70 299 75" />
      <polygon style="fill:none; clip-path:url(#clipPath26); stroke:rgb(0,0,127);" points=" 299 75 309 80 299 75 309 70 299 75" />
      <path d="M269 151 L270 240" style="fill:none; clip-path:url(#clipPath1); stroke:rgb(0,0,127);" />
      <polygon style="fill:rgb(0,0,127); clip-path:url(#clipPath27); stroke:none;" points=" 269 238 274 228 269 238 264 228 269 238" />
      <polygon style="fill:none; clip-path:url(#clipPath27); stroke:rgb(0,0,127);" points=" 269 238 274 228 269 238 264 228 269 238" />
      <text x="0" y="13" transform="translate(282,202)" style="font-size:13; clip-path:url(#clipPath28); fill:black; stroke:none;" xml:space="preserve">[nein]</text>
      <path d="M269 151 L270 240" style="fill:none; clip-path:url(#clipPath1); stroke:rgb(0,0,127);" />
      <polygon style="fill:rgb(0,0,127); clip-path:url(#clipPath27); stroke:none;" points=" 269 238 274 228 269 238 264 228 269 238" />
      <polygon style="fill:none; clip-path:url(#clipPath27); stroke:rgb(0,0,127);" points=" 269 238 274 228 269 238 264 228 269 238" />
      <text x="0" y="13" transform="translate(282,202)" style="font-size:13; clip-path:url(#clipPath28); fill:black; stroke:none;" xml:space="preserve">[nein]</text>
    </g>
  </g>
</svg>
